<svg width="30" height="30" viewBox="0 0 30 30" fill="none" xmlns="http://www.w3.org/2000/svg">
<path fill-rule="evenodd" clip-rule="evenodd" d="M11.8585 12.3806C12.1856 12.6056 12.2687 13.0544 12.0435 13.382C11.8185 13.709 11.3701 13.7926 11.0426 13.5674C10.715 13.3424 10.6319 12.8935 10.8572 12.566C11.0822 12.2385 11.531 12.1554 11.8585 12.3806Z" />
<path fill-rule="evenodd" clip-rule="evenodd" d="M12.8821 16.0148L13.9647 16.7589C14.0238 16.7994 14.0915 16.8258 14.1622 16.8356L14.9659 16.9477L15.8031 17.5234L16.1956 18.2331C16.2915 18.4071 16.4881 18.4998 16.6832 18.4638L17.4554 18.3208L17.866 19.3467C17.915 19.4693 18.0146 19.5652 18.1391 19.6096C18.2641 19.6543 18.4016 19.6433 18.5172 19.5792L20.9324 18.2444C21.0727 18.1668 21.1622 18.023 21.17 17.8633C21.1777 17.7033 21.1027 17.5511 20.9706 17.4607L17.3378 14.9629C17.1279 14.8185 16.8407 14.872 16.6962 15.0814C16.5518 15.2913 16.6054 15.5786 16.8148 15.723L19.8333 17.7978L18.5284 18.5188L18.1718 17.6273C18.0901 17.4229 17.8757 17.3048 17.6594 17.3451L16.8421 17.4964L16.558 16.9821C16.5234 16.9198 16.4749 16.8658 16.4159 16.8253L15.3987 16.126C15.3397 16.0855 15.2719 16.0592 15.2012 16.0494L14.3976 15.9372L13.7657 15.5028C13.9607 15.3378 14.1369 15.1448 14.2887 14.9244C14.44 14.704 14.5571 14.4701 14.6411 14.2288L15.6615 14.9304C15.8714 15.0748 16.1586 15.0217 16.303 14.8118C16.4475 14.6019 16.3939 14.3147 16.1845 14.1703L14.8034 13.2211C14.7888 12.3051 14.3459 11.4093 13.5341 10.8513V10.8508C12.2015 9.9353 10.3764 10.2734 9.4602 11.6055C8.54468 12.938 8.88273 14.7631 10.2148 15.6793C11.0266 16.2373 12.0216 16.3296 12.8822 16.0155L12.8821 16.0148ZM13.0112 11.6109C13.9239 12.2383 14.1556 13.4887 13.5278 14.4015C12.9004 15.3142 11.65 15.5459 10.7372 14.918C9.82446 14.2907 9.59284 13.0403 10.2206 12.1275C10.848 11.2147 12.0984 10.9831 13.0112 11.6109Z" />
<path fill-rule="evenodd" clip-rule="evenodd" d="M25.6882 4.85232H22.8418C22.7196 4.85232 22.602 4.90084 22.5157 4.98736L21.7329 5.77012C21.5526 5.95047 21.5526 6.24253 21.7329 6.42244C21.9128 6.6028 22.2049 6.6028 22.3852 6.42244L23.0328 5.77492H25.6882C25.8782 6.31234 26.3911 6.6973 26.9931 6.6973C27.7569 6.6973 28.3769 6.0775 28.3769 5.3135C28.3769 4.54973 27.7571 3.92969 26.9931 3.92969C26.3912 3.92969 25.8783 4.31489 25.6882 4.85207L25.6882 4.85232ZM26.9931 4.85232C27.2476 4.85232 27.4543 5.059 27.4543 5.31352C27.4543 5.56804 27.2476 5.77472 26.9931 5.77472C26.7386 5.77472 26.5319 5.56804 26.5319 5.31352C26.5319 5.059 26.7386 4.85232 26.9931 4.85232Z" />
<path fill-rule="evenodd" clip-rule="evenodd" d="M20.9007 7.9065L21.3227 7.48445C21.5026 7.30455 21.5026 7.01204 21.3227 6.83212C21.1428 6.65222 20.8503 6.65222 20.6704 6.83212L20.1543 7.34779C19.9094 7.18323 19.6542 7.02896 19.3896 6.88568C16.2687 5.19748 12.6021 5.49637 9.8464 7.34779L7.48525 4.98711C7.39896 4.90036 7.28131 4.85207 7.15909 4.85207H4.31273C4.12275 4.31465 3.60984 3.92969 3.00784 3.92969C2.24407 3.92969 1.62404 4.54949 1.62404 5.3135C1.62404 6.07727 2.24384 6.69731 3.00784 6.69731C3.60978 6.69731 4.12271 6.3121 4.31273 5.77492H6.9682L9.10001 7.90674C8.2204 8.63734 7.46349 9.54414 6.88651 10.6105C6.762 10.8408 6.64848 11.0736 6.54525 11.3098H4.3917C4.13718 11.3098 3.9305 11.5165 3.9305 11.771C3.9305 12.0255 4.13718 12.2322 4.3917 12.2322H6.19896C5.96001 12.9909 5.82406 13.7659 5.78606 14.5384H4.39171C4.13719 14.5384 3.93051 14.7451 3.93051 14.9996C3.93051 15.2541 4.13719 15.4608 4.39171 15.4608H5.78694C5.82745 16.2458 5.96775 17.0213 6.20213 17.767H4.3917C4.13718 17.767 3.9305 17.9737 3.9305 18.2282C3.9305 18.4827 4.13718 18.6894 4.3917 18.6894H6.54707C7.11081 19.9842 7.97324 21.1567 9.1 22.0924L6.96818 24.2242H4.31272C4.12274 23.6868 3.60982 23.3018 3.00783 23.3018C2.24406 23.3018 1.62402 23.9216 1.62402 24.6856C1.62402 25.4494 2.24383 26.0694 3.00783 26.0694C3.60977 26.0694 4.1227 25.6842 4.31272 25.147H7.15908C7.2813 25.147 7.39895 25.0985 7.48524 25.012L9.84639 22.6513C10.0913 22.8159 10.3465 22.9702 10.6111 23.1134C10.8347 23.2347 11.1153 23.1512 11.2362 22.9271C11.3575 22.7035 11.2739 22.4229 11.0499 22.302C7.01996 20.1217 5.51756 15.0792 7.69789 11.0491C9.87822 7.01921 14.9207 5.51681 18.9508 7.69714C22.9807 9.87748 24.4831 14.92 22.3028 18.9501C20.5631 22.1654 17.0016 23.7715 13.5858 23.1825C13.335 23.1393 13.096 23.3075 13.053 23.5584C13.0097 23.8092 13.1779 24.0482 13.4288 24.0917C15.7821 24.4975 18.1978 23.9658 20.1536 22.6511L22.5147 25.0118C22.601 25.0985 22.7187 25.1468 22.8409 25.1468H25.6873C25.8772 25.6842 26.3902 26.0692 26.9922 26.0692C27.7559 26.0692 28.376 25.4494 28.376 24.6854C28.376 23.9216 27.7562 23.3016 26.9922 23.3016C26.3902 23.3016 25.8773 23.6868 25.6873 24.2239H23.0318L20.9 22.0921C21.7791 21.362 22.5365 20.4547 23.1135 19.3883C23.238 19.1581 23.3515 18.9253 23.4547 18.6891H25.6083C25.8628 18.6891 26.0695 18.4824 26.0695 18.2279C26.0695 17.9733 25.8628 17.7667 25.6083 17.7667H23.801C24.04 17.0079 24.1759 16.2329 24.2139 15.4605H25.6083C25.8628 15.4605 26.0695 15.2538 26.0695 14.9993C26.0695 14.7448 25.8628 14.5381 25.6083 14.5381H24.2131C24.1725 13.753 24.0322 12.9776 23.7979 12.2319H25.6083C25.8628 12.2319 26.0695 12.0252 26.0695 11.7707C26.0695 11.5162 25.8628 11.3095 25.6083 11.3095H23.4529C22.8892 10.0147 22.0268 8.84217 20.9 7.90649L20.9007 7.9065ZM26.9927 25.1471C26.7381 25.1471 26.5315 24.9405 26.5315 24.6859C26.5315 24.4314 26.7381 24.2247 26.9927 24.2247C27.2472 24.2247 27.4539 24.4314 27.4539 24.6859C27.4539 24.9405 27.2472 25.1471 26.9927 25.1471ZM3.0079 25.1471C2.75338 25.1471 2.5467 24.9405 2.5467 24.6859C2.5467 24.4314 2.75338 24.2247 3.0079 24.2247C3.26242 24.2247 3.46909 24.4314 3.46909 24.6859C3.46909 24.9405 3.26242 25.1471 3.0079 25.1471ZM3.0079 4.85201C3.26242 4.85201 3.46909 5.05869 3.46909 5.31321C3.46909 5.56773 3.26242 5.77441 3.0079 5.77441C2.75338 5.77441 2.5467 5.56773 2.5467 5.31321C2.5467 5.05869 2.75338 4.85201 3.0079 4.85201Z" />
<path fill-rule="evenodd" clip-rule="evenodd" d="M12.6031 23.2854C12.6031 23.5402 12.3966 23.7468 12.1419 23.7468C11.8871 23.7468 11.6807 23.5402 11.6807 23.2854C11.6807 23.0307 11.8871 22.8242 12.1419 22.8242C12.3966 22.8242 12.6031 23.0307 12.6031 23.2854Z" />
</svg>
