<svg width="224" height="185" viewBox="0 0 224 185" fill="none" xmlns="http://www.w3.org/2000/svg">
<g clip-path="url(#clip0_1652_23415)">
<mask id="mask0_1652_23415" style="mask-type:luminance" maskUnits="userSpaceOnUse" x="0" y="-18" width="224" height="224">
<path d="M224 -18H0V206H224V-18Z" fill="white"/>
</mask>
<g mask="url(#mask0_1652_23415)">
<path d="M203.624 107.661C201.6 104.723 199.114 102.135 196.182 100.078C189.833 95.622 181.431 93.4592 177.388 86.8016C173.832 80.9459 174.848 73.4232 176.626 66.792C178.404 60.1607 180.85 53.3879 179.768 46.605C177.984 35.4177 167.356 28.0497 157.117 23.4293C116.844 5.25689 47.9802 14.1675 20.7615 48.4557C16.5611 53.7471 7.90412 64.6528 7.99683 79.672C8.03354 85.6057 8.75179 91.5257 11.3579 96.922C17.3044 109.235 30.6675 114.008 28.476 129.859C27.7024 135.455 25.5779 140.752 23.9523 146.158C21.4177 154.586 17.7622 174.301 27.2482 174.301C35.5405 174.301 34.5738 174.301 44.6115 174.301C79.1542 174.301 62.708 174.605 99.2874 174.301C105.986 174.246 140.546 173.963 148.916 173.963C151.115 173.963 162.375 173.963 164.584 173.963C168.389 173.963 180.202 173.998 178.004 173.91C186.843 176.186 195.047 168.466 199.962 160.701C205.937 151.262 210.171 140.384 210.129 129.179C210.101 121.582 207.886 113.847 203.624 107.661Z" fill="url(#paint0_linear_1652_23415)" fill-opacity="0.3"/>
<path d="M216.41 73.6071C216.41 83.1522 208.752 90.8899 199.306 90.8899C189.861 90.8899 182.203 83.1522 182.203 73.6071C182.203 64.062 189.861 56.3242 199.306 56.3242C208.752 56.3242 216.41 64.062 216.41 73.6071Z" fill="url(#paint1_linear_1652_23415)"/>
<path d="M170.755 145.954C165.577 137.249 166.58 138.233 157.178 137.522C157.178 137.522 155.692 137.473 153.466 137.415C153.467 137.422 153.468 137.428 153.47 137.435C153.593 138.158 153.335 138.899 152.777 139.375C152.656 139.479 152.556 139.576 152.486 139.665C151.754 140.589 149.906 143.477 146.671 143.747C143.436 144.016 140.923 144.363 137.713 141.552C136.999 140.927 136.49 140.28 136.129 139.65L135.723 137.615V137.32C135.297 137.343 134.919 137.369 134.601 137.4C134.447 137.415 134.3 137.437 134.159 137.463C132.388 137.566 130.596 137.733 128.939 138.004C121.985 139.142 116.296 143.314 112.63 149.003C108.964 154.692 104.539 173.908 104.539 173.908L170.848 173.963C170.848 173.963 171.139 164.286 168.715 155.247C167.932 152.327 172.206 148.392 170.755 145.954Z" fill="#E6E6E6"/>
<path d="M118.24 174.051L128.74 173.666L129.317 169.532C129.297 168.973 128.747 168.589 128.215 168.762L118.186 172.58L118.24 174.051Z" fill="#F4B694"/>
<path d="M139.204 173.4L139.106 170.732C139.048 169.143 137.7 167.89 136.111 167.948L129.811 168.179C128.222 168.237 126.97 169.585 127.028 171.174L127.126 173.843L139.204 173.4Z" fill="#F4B694"/>
<path d="M179.697 173.418C180.903 170.089 181.615 165.333 177.045 163.281L160.966 166.163L130.124 170.362L129.996 173.418H179.697Z" fill="#F4B694"/>
<path d="M169.823 173.415H181.062L182.982 171.165L178.413 154.948C173.751 152.979 165.039 156.753 165.039 156.753L166.732 162.343L169.823 173.415Z" fill="#F4B694"/>
<path d="M178.413 154.949C178.413 154.949 174.828 152.844 165.04 156.754L160.847 149.092L160.093 144.676C159.862 143.322 160.212 141.934 161.058 140.852L161.47 140.325C162.593 138.889 164.534 138.361 166.221 139.05C168.288 139.895 171.076 141.49 173.5 144.441C178.031 149.955 178.413 154.949 178.413 154.949Z" fill="#E6E6E6"/>
<path d="M153.466 137.415C152.861 133.881 151.245 124.542 150.742 122.595C150.61 121.938 150.415 121.42 150.183 121.01C148.966 118.861 146.698 119.741 146.698 119.741L135.946 126.968L135.734 133.174L135.723 133.503V134.868V137.32V137.615L136.016 139.081C136.104 139.525 136.29 139.943 136.559 140.307C136.866 140.724 137.246 141.143 137.713 141.552C140.923 144.363 143.437 144.017 146.671 143.747C149.906 143.478 151.754 140.589 152.486 139.665C152.693 139.404 153.08 139.137 153.354 138.551C153.48 138.008 153.584 138.1 153.466 137.415Z" fill="#F4B694"/>
<path d="M155.047 110.012C155.005 110.024 154.981 110.028 154.981 110.028C154.981 110.028 151.007 113.263 150.3 118.302L150.258 118.104L141.413 122.958L137.281 128.631L145.806 128.257L150.828 122.958L150.776 120.547C150.972 120.258 151.169 119.911 151.297 119.675C151.385 119.513 151.551 119.41 151.736 119.406C152.821 119.381 156.582 118.983 157.511 114.734C158.227 111.463 156.392 110.374 155.047 110.012Z" fill="#F4B694"/>
<path d="M131.446 121.621C131.47 121.249 131.779 120.95 132.158 120.95L139.033 120.95C139.371 120.95 139.655 121.189 139.729 121.505C140.868 121.365 141.983 121.147 142.969 120.802C145.531 119.906 147.112 117.942 148.992 115.092C149.558 114.233 149.818 113.208 149.722 112.183C149.474 109.549 150.273 103.391 148.562 102.131C146.724 100.778 143.071 99.8711 136.436 100.176C130.986 100.427 130.155 103.339 130.035 104.439C130.01 104.691 130.018 104.847 130.018 104.854C130.018 104.854 130.018 104.856 130.018 104.856L130.018 104.856C130.123 105.217 130.325 106.329 130.282 109.476C130.276 109.89 130.194 110.304 130.005 110.672C128.492 113.633 128.045 115.792 127.863 117.27C127.877 117.339 128.664 121.1 131.446 121.621Z" fill="#F4B694"/>
<path d="M155.845 104.032C155.607 99.206 150.772 96.5461 150.772 96.5461C150.772 96.5461 148.658 93.9835 140.832 93.5679C133.005 93.1523 129.971 98.0318 129.722 99.9435C129.472 101.855 130.02 104.853 130.02 104.855C130.02 104.855 130.02 104.853 130.02 104.853C130.02 104.846 130.01 104.69 130.037 104.438C130.156 103.339 130.988 100.426 136.438 100.176C143.073 99.8702 146.726 100.777 148.564 102.13C150.275 103.39 149.476 109.548 149.723 112.183C149.82 113.207 149.56 114.232 148.993 115.091C147.114 117.941 145.533 119.906 142.971 120.801C141.985 121.146 140.87 121.364 139.731 121.504C139.657 121.188 139.373 120.949 139.035 120.949L132.159 120.949C131.781 120.949 131.472 121.248 131.448 121.62C128.666 121.099 127.879 117.338 127.865 117.269C127.865 117.268 127.864 117.266 127.864 117.266C127.864 117.266 126.751 117 127.831 124.48C128.912 131.961 132.154 133.125 133.733 133.291C135.312 133.457 138.637 132.792 144.123 130.299C149.609 127.805 150.19 125.727 150.19 119.826C150.19 113.924 154.979 110.029 154.979 110.029C154.979 110.029 156.136 109.927 155.845 104.032Z" fill="#423F3E"/>
<path d="M134.988 119.322L134.988 119.786C134.988 120.047 135.199 120.258 135.46 120.258L135.66 120.258C135.92 120.258 136.131 120.047 136.131 119.786L136.131 119.327C137.183 119.275 137.984 119.043 137.984 118.767C137.984 118.453 136.953 118.672 135.693 118.672L135.505 118.672C134.245 118.672 133.215 118.453 133.215 118.767C133.215 119.036 133.976 119.263 134.988 119.322Z" fill="#CE917C"/>
<g opacity="0.2">
<path d="M131.274 107.469C133.168 107.469 134.705 109.006 134.705 110.899C134.705 112.793 133.168 114.33 131.274 114.33C129.381 114.33 127.844 112.793 127.844 110.899C127.844 109.006 129.381 107.469 131.274 107.469Z" fill="white"/>
</g>
<g opacity="0.2">
<path d="M141.626 107.469C143.519 107.469 145.056 109.006 145.056 110.899C145.056 112.793 143.519 114.33 141.626 114.33C139.733 114.33 138.195 112.793 138.195 110.899C138.195 109.006 139.733 107.469 141.626 107.469Z" fill="white"/>
</g>
<path d="M141.624 106.406C139.299 106.406 137.386 108.172 137.153 110.436L135.724 110.436C135.491 108.172 133.578 106.406 131.253 106.406C128.77 106.406 126.758 108.419 126.758 110.901C126.758 113.384 128.771 115.396 131.253 115.396C133.561 115.396 135.46 113.656 135.716 111.416L137.161 111.416C137.417 113.656 139.316 115.396 141.624 115.396C144.107 115.396 146.119 113.384 146.119 110.901C146.119 108.419 144.107 106.406 141.624 106.406ZM131.253 114.332C129.371 114.332 127.845 112.796 127.845 110.901C127.845 109.007 129.371 107.471 131.253 107.471C133.135 107.471 134.661 109.006 134.661 110.901C134.661 112.796 133.135 114.332 131.253 114.332ZM141.624 114.332C139.742 114.332 138.216 112.796 138.216 110.901C138.216 109.006 139.742 107.471 141.624 107.471C143.506 107.471 145.032 109.006 145.032 110.901C145.032 112.796 143.506 114.332 141.624 114.332Z" fill="#333333"/>
<path d="M132.391 122.738C132.399 123.151 133.782 123.488 135.471 123.488L135.724 123.488C137.413 123.488 138.795 123.151 138.804 122.738L132.391 122.738Z" fill="#F0948C"/>
<path d="M133.523 122.738C133.529 123.151 134.385 123.488 135.431 123.488L135.588 123.488C136.634 123.488 137.49 123.151 137.495 122.738L133.523 122.738Z" fill="#F0948C"/>
<path d="M140.819 110.488C141.145 110.488 141.411 110.754 141.411 111.08C141.411 111.407 141.145 111.672 140.819 111.672C140.492 111.672 140.227 111.407 140.227 111.08C140.227 110.754 140.492 110.488 140.819 110.488Z" fill="#333333"/>
<path d="M131.325 110.48C131.656 110.48 131.924 110.749 131.924 111.079C131.924 111.41 131.656 111.678 131.325 111.678C130.995 111.678 130.727 111.41 130.727 111.079C130.727 110.749 130.995 110.48 131.325 110.48Z" fill="#333333"/>
<path d="M140.293 111.081C140.293 111.205 140.495 111.306 140.822 111.306C141.149 111.306 141.376 111.205 141.376 111.081C141.376 110.956 141.149 110.855 140.822 110.855C140.495 110.855 140.293 110.956 140.293 111.081Z" fill="#333333"/>
<path d="M130.82 111.08C130.82 111.205 130.995 111.307 131.326 111.307C131.656 111.307 131.79 111.205 131.79 111.08C131.79 110.954 131.656 110.852 131.326 110.852C130.995 110.852 130.82 110.954 130.82 111.08Z" fill="#333333"/>
<g opacity="0.6">
<path d="M96.211 173.223L130.892 172.879L143.226 173.047L155.142 173.217C155.51 173.217 155.592 173.336 155.279 173.527L132.104 173.599C131.851 173.753 131.111 173.897 130.815 173.897L73.6073 173.571C73.3808 173.571 73.2972 173.273 73.4908 173.155L96.211 173.223Z" fill="#333333"/>
</g>
<path d="M73.8238 171.776L80.9551 171.777L73.7106 171.371C73.5223 171.486 73.6034 171.776 73.8238 171.776Z" fill="#E6E6E6"/>
<path d="M155.053 172.707H153.896L145.142 172.578H145.141L132.022 171.559C131.777 171.708 131.495 171.787 131.207 171.787L80.957 171.776L97.6739 172.713L131.738 172.709L131.371 173.298L155.237 173.362C155.542 173.177 155.41 172.707 155.053 172.707Z" fill="#E6E6E6"/>
<path d="M97.6806 172.727L147.7 173.048L155.236 173.159C155.36 173.159 155.441 173.22 155.236 173.364L131.94 173.301C131.667 173.301 131.493 173.306 131.205 173.306L73.824 173.293C73.6035 173.293 73.5222 173.003 73.7105 172.889L97.6806 172.727Z" fill="#B3B3B3"/>
<path d="M132.103 171.516H73.1167L65.1962 131.743C65.0187 130.851 65.7008 130.02 66.6101 130.02H122.656C123.343 130.02 123.935 130.505 124.07 131.18L132.103 171.516Z" fill="#B3B3B3"/>
<path d="M124.707 131.18C124.573 130.505 123.981 130.02 123.293 130.02H122.657C123.345 130.02 123.937 130.505 124.071 131.18L132.104 171.516H73.7539L132.104 171.516L132.657 171.214L124.707 131.18Z" fill="#CCCCCC"/>
<path d="M131.625 173.297H73.5961C73.3316 173.297 73.1172 173.082 73.1172 172.818V171.512H132.104V172.818C132.104 173.082 131.889 173.297 131.625 173.297Z" fill="#999999"/>
<path d="M132.104 171.512V172.143H73.1172V171.512H132.104Z" fill="#808080"/>
<path d="M132.104 171.512V171.736H73.1172V171.512H132.104Z" fill="#666666"/>
<path d="M133.286 171.918L134.72 171.946C134.901 171.949 135.01 172.148 134.917 172.303L134.833 172.443C134.789 172.515 134.711 172.558 134.626 172.557L133.192 172.529C133.011 172.526 132.902 172.327 132.995 172.172L133.079 172.032C133.123 171.96 133.201 171.916 133.286 171.918Z" fill="#4D4D4D"/>
<g opacity="0.5">
<path d="M73.8015 130.012H68.1523L101.037 171.513H106.686L73.8015 130.012Z" fill="white"/>
</g>
<g opacity="0.5">
<path d="M76.12 130.012H74.8398L107.725 171.513H109.005L76.12 130.012Z" fill="white"/>
</g>
<path d="M89.4459 52.3789V105.776H18.25V52.3789H89.4459Z" fill="#333333"/>
<path d="M85.995 54.8516V102.989H21.2852V54.8516H85.995Z" fill="#E6E6E6"/>
<path d="M76.4174 61.9766V95.8644H30.8633V61.9766H76.4174Z" fill="#CECEBE"/>
<path d="M63.5391 76.9609L63.6055 80.4952C63.6936 79.9188 63.737 79.3279 63.7257 78.7251C63.7145 78.1224 63.6489 77.5338 63.5391 76.9609Z" fill="black"/>
<path d="M62.6546 74.3201C62.6037 74.2174 62.5502 74.1164 62.4961 74.0156L62.6734 83.4825C62.7236 83.3799 62.7736 83.2768 62.8205 83.1722L62.6546 74.3201Z" fill="black"/>
<path d="M61.6332 72.6679C61.5817 72.5997 61.5297 72.5318 61.4766 72.4648L61.7126 85.0686C61.7632 84.9997 61.8126 84.9298 61.8615 84.8597L61.6332 72.6679Z" fill="black"/>
<path d="M60.4648 71.3633L60.7428 86.2045C60.7934 86.1531 60.8432 86.101 60.8925 86.0486L60.6204 71.5134C60.569 71.4628 60.5173 71.4129 60.4648 71.3633Z" fill="black"/>
<path d="M59.6159 70.6443C59.5644 70.6051 59.5132 70.5655 59.4609 70.5273L59.771 87.0789C59.8218 87.0386 59.8714 86.9972 59.9214 86.9561L59.6159 70.6443Z" fill="black"/>
<path d="M58.6152 69.9677C58.5642 69.9374 58.5126 69.9084 58.4609 69.8789L58.7957 87.7624C58.8463 87.7311 58.8967 87.7 58.9467 87.6678L58.6152 69.9677Z" fill="black"/>
<path d="M57.6148 69.449C57.564 69.426 57.5122 69.405 57.4609 69.3828L57.8152 88.2984C57.8656 88.2743 57.9166 88.2513 57.9666 88.2264L57.6148 69.449Z" fill="black"/>
<path d="M56.6185 69.0605C56.5677 69.0435 56.5161 69.0279 56.4648 69.0117L56.8338 88.7088C56.8844 88.6907 56.9352 88.6731 56.9854 88.6542L56.6185 69.0605Z" fill="black"/>
<path d="M55.6259 68.7824C55.5751 68.7709 55.5239 68.7608 55.4727 68.75L55.852 89.005C55.9028 88.9923 55.9536 88.9801 56.004 88.9668L55.6259 68.7824Z" fill="black"/>
<path d="M54.6335 68.6103C54.5827 68.6039 54.5315 68.5994 54.4805 68.5938L54.8665 89.2013C54.9173 89.1939 54.9683 89.1874 55.0189 89.1791L54.6335 68.6103Z" fill="black"/>
<path d="M53.6411 68.5323C53.5905 68.5308 53.5391 68.5321 53.4883 68.5312L53.8774 89.299C53.9282 89.2963 53.9794 89.2956 54.03 89.2923L53.6411 68.5323Z" fill="black"/>
<path d="M52.6524 68.5508C52.6014 68.5541 52.5508 68.5589 52.5 68.5628L52.8885 89.3056C52.9395 89.3077 52.9903 89.3104 53.0413 89.3118L52.6524 68.5508Z" fill="black"/>
<path d="M51.664 68.6641C51.6131 68.6722 51.5623 68.6796 51.5117 68.6885L51.8963 89.219C51.9471 89.226 51.9983 89.2314 52.0493 89.2376L51.664 68.6641Z" fill="black"/>
<path d="M50.6794 68.8711C50.6288 68.8844 50.5775 68.896 50.5273 68.9101L50.9042 89.0311C50.955 89.0433 51.0065 89.0529 51.0575 89.0643L50.6794 68.8711Z" fill="black"/>
<path d="M49.6985 69.1836C49.6479 69.2025 49.5971 69.2201 49.5469 69.2398L49.9121 88.7398C49.9629 88.7575 50.0146 88.7732 50.0658 88.7902L49.6985 69.1836Z" fill="black"/>
<path d="M48.7137 69.6055C48.6629 69.6308 48.6127 69.6565 48.5625 69.6824L48.9118 88.329C48.963 88.353 49.014 88.3771 49.0657 88.4003L48.7137 69.6055Z" fill="black"/>
<path d="M47.7367 70.1602C47.6857 70.1927 47.6363 70.2274 47.5859 70.261L47.9143 87.7902C47.9659 87.8217 48.0165 87.8545 48.0688 87.8852L47.7367 70.1602Z" fill="black"/>
<path d="M46.76 70.8711C46.7098 70.9122 46.6587 70.952 46.6094 70.9939L46.9109 87.0962C46.9618 87.1362 47.0144 87.1741 47.0661 87.2131L46.76 70.8711Z" fill="black"/>
<path d="M45.7904 71.7734C45.7396 71.8269 45.6902 71.8819 45.6406 71.9365L45.9076 86.192C45.9592 86.2447 46.0106 86.2976 46.0633 86.3492L45.7904 71.7734Z" fill="black"/>
<path d="M44.8204 72.957C44.77 73.0288 44.7206 73.1014 44.6719 73.1746L44.8932 84.9914C44.9446 85.0628 44.9967 85.1333 45.0498 85.2032L44.8204 72.957Z" fill="black"/>
<path d="M43.865 74.6289C43.814 74.7413 43.7658 74.855 43.7188 74.9695L43.8735 83.2318C43.9249 83.3444 43.9772 83.4562 44.0324 83.5665L43.865 74.6289Z" fill="black"/>
<path d="M42.9701 79.7268L42.947 78.5039C42.9391 78.7065 42.9351 78.9104 42.9391 79.1158C42.943 79.3211 42.9545 79.5246 42.9701 79.7268Z" fill="black"/>
<g opacity="0.5">
<path d="M21.2852 102.99H22.2394V55.7055H85.995V54.8516H21.2852V102.99Z" fill="#B3B3B3"/>
</g>
<mask id="mask1_1652_23415" style="mask-type:luminance" maskUnits="userSpaceOnUse" x="0" y="-18" width="224" height="224">
<path d="M0 -18H224V206H0V-18Z" fill="white"/>
</mask>
<g mask="url(#mask1_1652_23415)">
<path d="M36.1815 156.202C42.5904 143.505 17.6602 133.371 17.6602 133.371C17.6602 133.371 32.4782 143.803 33.4765 156.076C33.4765 156.076 35.2446 156.183 36.1815 156.202Z" fill="#00923F"/>
<path d="M40.3821 156.214C33.9732 143.517 60.4879 132.445 60.4879 132.445C60.4879 132.445 44.087 143.832 43.0888 156.105C42.1266 156.163 40.3821 156.214 40.3821 156.214Z" fill="#007531"/>
<path d="M38.6461 156.235C45.055 143.538 29.5156 127.027 29.5156 127.027C29.5156 127.027 34.9497 143.925 35.948 156.198C36.8481 156.218 37.9945 156.233 38.6461 156.235Z" fill="#007531"/>
<path d="M38.5294 156.236C32.1205 143.539 48.6758 125.684 48.6758 125.684C48.6758 125.684 42.2304 143.924 41.2321 156.197C40.3158 156.215 39.0743 156.233 38.5294 156.236Z" fill="#009245"/>
</g>
<path d="M38.5001 153.473C31.4477 153.473 25.7305 154.358 25.7305 155.449C25.7305 155.486 25.7377 155.522 25.7504 155.558L29.015 173.33C29.015 173.37 29.0293 173.411 29.0519 173.451H47.9484C47.971 173.411 47.9853 173.37 47.9853 173.33L51.2499 155.558C51.2625 155.522 51.2698 155.486 51.2698 155.449C51.2698 154.358 45.5526 153.473 38.5001 153.473Z" fill="#7DB3E1"/>
<path d="M43.8331 164.561C43.9245 165.012 44.3982 165.367 44.8782 165.318C45.3581 165.268 45.669 164.861 45.6533 164.402C45.6317 163.769 45.0841 163.503 44.6042 163.553C44.1243 163.602 43.7148 163.979 43.8331 164.561Z" fill="#F2F2F2"/>
<path d="M45.5852 169.279C46.0652 169.229 46.3761 168.821 46.3603 168.363C46.3387 167.73 45.7912 167.464 45.3112 167.514C44.8313 167.563 44.4219 167.94 44.5401 168.522C44.6316 168.973 45.1053 169.328 45.5852 169.279Z" fill="#F2F2F2"/>
<path d="M43.0232 157.891C43.6776 157.824 44.1015 157.268 44.0802 156.642C44.0507 155.78 43.3041 155.417 42.6497 155.484C41.9953 155.552 41.4372 156.065 41.5983 156.86C41.723 157.474 42.3689 157.958 43.0232 157.891Z" fill="#F2F2F2"/>
<path d="M48.1844 171.203C48.2075 171.316 48.2545 171.423 48.3199 171.52L48.5366 170.34C48.2711 170.507 48.1038 170.805 48.1844 171.203Z" fill="#F2F2F2"/>
<path d="M44.0911 171.363C43.4367 171.431 42.8786 171.944 43.0397 172.739C43.0962 173.017 43.2629 173.265 43.4855 173.451H45.1514C45.3944 173.217 45.534 172.882 45.5216 172.521C45.4921 171.659 44.7455 171.296 44.0911 171.363Z" fill="#F2F2F2"/>
<path d="M46.0501 160.919C46.53 160.87 46.8409 160.462 46.8251 160.003C46.8036 159.371 46.256 159.105 45.7761 159.154C45.2961 159.204 44.8867 159.58 45.0049 160.163C45.0964 160.614 45.5701 160.969 46.0501 160.919Z" fill="#F2F2F2"/>
<path d="M31.3333 162.145C30.6789 162.212 30.1208 162.725 30.2819 163.52C30.4066 164.135 31.0525 164.618 31.7068 164.551C32.3612 164.484 32.7851 163.928 32.7638 163.302C32.7343 162.44 31.9877 162.077 31.3333 162.145Z" fill="#F2F2F2"/>
<path d="M47.4564 155.986C48.1108 155.919 48.5348 155.363 48.5134 154.737C48.5061 154.527 48.4549 154.347 48.3736 154.194C47.7777 154.082 47.1014 153.98 46.3615 153.891C46.0911 154.13 45.9378 154.493 46.0316 154.955C46.1562 155.57 46.8021 156.054 47.4564 155.986Z" fill="#F2F2F2"/>
<path d="M40.5322 164.562C40.5106 163.93 39.963 163.663 39.4831 163.713C39.0032 163.762 38.5937 164.139 38.712 164.721C38.8034 165.172 39.2772 165.527 39.7571 165.478C40.237 165.428 40.5479 165.021 40.5322 164.562Z" fill="#F2F2F2"/>
<path d="M31.3132 171.254C31.4378 171.869 32.0837 172.353 32.7381 172.285C33.3924 172.218 33.8166 171.662 33.795 171.036C33.7656 170.174 33.0189 169.812 32.3645 169.879C31.7102 169.946 31.152 170.46 31.3132 171.254Z" fill="#F2F2F2"/>
<path d="M29.2621 166.554C28.9107 167.349 29.4303 167.975 30.0544 168.174C30.6784 168.372 31.411 168.128 31.613 167.342C31.7694 166.733 31.3944 166.037 30.7703 165.839C30.1462 165.64 29.5172 165.977 29.2621 166.554Z" fill="#F2F2F2"/>
<path d="M39.3955 172.929C39.3571 171.808 38.3866 171.337 37.536 171.424C36.6855 171.512 35.9598 172.179 36.1692 173.212C36.1858 173.293 36.2138 173.372 36.2437 173.449H39.3274C39.3751 173.283 39.4017 173.109 39.3955 172.929Z" fill="#F2F2F2"/>
<path d="M39.3341 161.22C40.1847 161.133 40.7358 160.41 40.708 159.597C40.6696 158.476 39.6991 158.005 38.8486 158.092C37.998 158.18 37.2723 158.847 37.4817 159.88C37.6439 160.679 38.4835 161.308 39.3341 161.22Z" fill="#F2F2F2"/>
<path d="M27.3669 156.143C27.5104 155.584 27.2037 154.957 26.67 154.703C26.0661 154.933 25.7305 155.184 25.7305 155.447C25.7305 155.484 25.7377 155.52 25.7504 155.556L26.0198 157.022C26.5889 157.11 27.1873 156.841 27.3669 156.143Z" fill="#F2F2F2"/>
<path d="M39.9268 168.628C40.0183 169.079 40.492 169.433 40.9719 169.384C41.4519 169.335 41.7628 168.927 41.747 168.468C41.7254 167.836 41.1779 167.57 40.698 167.619C40.218 167.668 39.8086 168.045 39.9268 168.628Z" fill="#F2F2F2"/>
<path d="M49.6069 162.245C48.9525 162.312 48.3942 162.826 48.5554 163.62C48.6545 164.109 49.0843 164.51 49.5847 164.622L50.0178 162.264C49.8813 162.24 49.7426 162.231 49.6069 162.245Z" fill="#F2F2F2"/>
<path d="M50.0634 156.209C49.2128 156.297 48.4871 156.964 48.6966 157.997C48.8588 158.796 49.6986 159.425 50.5491 159.337C50.551 159.337 50.5529 159.336 50.5547 159.336L51.0957 156.391C50.7794 156.233 50.4118 156.174 50.0634 156.209Z" fill="#F2F2F2"/>
<path d="M30.2247 155.804C30.8791 155.737 31.3031 155.181 31.2815 154.555C31.2713 154.26 31.1734 154.028 31.028 153.848C30.2191 153.938 29.4822 154.043 28.8314 154.16C28.7721 154.339 28.7528 154.542 28.7996 154.773C28.9243 155.388 29.5704 155.872 30.2247 155.804Z" fill="#F2F2F2"/>
<path d="M29.2888 160.877C29.445 160.268 29.0702 159.572 28.4461 159.374C27.822 159.175 27.1927 159.512 26.9378 160.089C26.5865 160.884 27.1061 161.51 27.7301 161.709C28.3542 161.908 29.0868 161.663 29.2888 160.877Z" fill="#F2F2F2"/>
<path d="M38.7469 154.073C39.1457 154.032 39.4525 153.799 39.6171 153.481C39.2492 153.476 38.8775 153.473 38.5013 153.473C38.1825 153.473 37.8677 153.475 37.5547 153.479C37.803 153.864 38.2715 154.122 38.7469 154.073Z" fill="#F2F2F2"/>
<path d="M35.3123 157.602C35.9667 157.534 36.3906 156.979 36.3692 156.353C36.3398 155.491 35.5931 155.128 34.9387 155.195C34.2844 155.263 33.7262 155.776 33.8874 156.57C34.0123 157.185 34.6579 157.669 35.3123 157.602Z" fill="#F2F2F2"/>
<path d="M35.6583 168.443C36.5089 168.356 37.06 167.633 37.0322 166.819C36.9938 165.699 36.0233 165.228 35.1728 165.315C34.3222 165.402 33.5965 166.07 33.806 167.103C33.9681 167.902 34.8077 168.53 35.6583 168.443Z" fill="#F2F2F2"/>
<path d="M31.9567 160.107C32.5808 160.306 33.3134 160.061 33.5154 159.275C33.6718 158.667 33.2968 157.971 32.6727 157.772C32.0486 157.573 31.4195 157.91 31.1644 158.488C30.8131 159.283 31.3326 159.909 31.9567 160.107Z" fill="#F2F2F2"/>
<path d="M35.3776 160.346C34.8977 160.395 34.4883 160.772 34.6065 161.354C34.698 161.805 35.1717 162.16 35.6516 162.111C36.1316 162.061 36.4425 161.654 36.4267 161.195C36.4051 160.562 35.8576 160.296 35.3776 160.346Z" fill="#F2F2F2"/>
<mask id="mask2_1652_23415" style="mask-type:luminance" maskUnits="userSpaceOnUse" x="0" y="-19" width="224" height="225">
<path d="M0 -18.6211H224V205.379H0V-18.6211Z" fill="white"/>
</mask>
<g mask="url(#mask2_1652_23415)">
<path d="M196.285 159.878H195.044C194.672 159.878 194.371 159.363 194.371 158.728V154.306C194.371 153.671 194.672 153.156 195.044 153.156H196.285C196.657 153.156 196.958 153.671 196.958 154.306V158.728C196.958 159.363 196.657 159.878 196.285 159.878Z" fill="#F2F2F2"/>
<path d="M200.518 155.214H197.441C196.52 155.214 195.773 154.844 195.773 154.387V146.374C195.773 145.917 196.52 145.547 197.441 145.547H200.518C201.439 145.547 202.186 145.917 202.186 146.374V154.387C202.186 154.844 201.439 155.214 200.518 155.214Z" fill="#F2F2F2"/>
<path d="M197.132 143.055H207.668C208.348 143.055 208.898 143.261 208.898 143.516V150.254C208.898 150.508 208.348 150.715 207.668 150.715H197.132C196.453 150.715 195.902 150.508 195.902 150.254V143.516C195.902 143.261 196.453 143.055 197.132 143.055Z" fill="#F2F2F2"/>
<path d="M197.773 146.646H191.084C190.712 146.646 190.41 146.131 190.41 145.496V140.112C190.41 139.476 190.712 138.961 191.084 138.961H197.773C198.145 138.961 198.447 139.476 198.447 140.112V145.496C198.447 146.131 198.145 146.646 197.773 146.646Z" fill="#F2F2F2"/>
<path d="M205.245 144.691H198.654C197.475 144.691 196.52 143.911 196.52 142.95V137.574C196.52 136.612 197.475 135.832 198.654 135.832H205.245C206.424 135.832 207.379 136.612 207.379 137.574V142.95C207.379 143.911 206.424 144.691 205.245 144.691Z" fill="#F2F2F2"/>
<path d="M188.961 141.539H198.408C199.097 141.539 199.655 141.028 199.655 140.397V133.845C199.655 133.214 199.097 132.703 198.408 132.703H188.961C188.273 132.703 187.715 133.214 187.715 133.845V140.397C187.715 141.028 188.273 141.539 188.961 141.539Z" fill="#F2F2F2"/>
<path d="M204.572 136.686H196.823C196.015 136.686 195.359 136.011 195.359 135.177V130.161C195.359 129.328 196.015 128.652 196.823 128.652H204.572C205.38 128.652 206.035 129.328 206.035 130.161V135.177C206.035 136.011 205.38 136.686 204.572 136.686Z" fill="#F2F2F2"/>
<path d="M192.67 135.785H200.981C201.765 135.785 202.401 134.938 202.401 133.895V126.46C202.401 125.416 201.765 124.57 200.981 124.57H192.67C191.886 124.57 191.25 125.416 191.25 126.46V133.895C191.25 134.938 191.886 135.785 192.67 135.785Z" fill="#F2F2F2"/>
<path d="M203.812 130.36H199.215C198.723 130.36 198.324 129.773 198.324 129.05V122.29C198.324 121.567 198.723 120.98 199.215 120.98H203.812C204.304 120.98 204.702 121.567 204.702 122.29V129.05C204.702 129.773 204.304 130.36 203.812 130.36Z" fill="#F2F2F2"/>
<path d="M195.461 125.818H198.717C199.351 125.818 199.865 125.607 199.865 125.347V122.877C199.865 122.617 199.351 122.406 198.717 122.406H195.461C194.827 122.406 194.312 122.617 194.312 122.877V125.347C194.312 125.607 194.827 125.818 195.461 125.818Z" fill="#F2F2F2"/>
<path d="M198.882 124.407H202.021C202.137 124.407 202.231 124.188 202.231 123.917V120.068C202.231 119.797 202.137 119.578 202.021 119.578H198.882C198.766 119.578 198.672 119.797 198.672 120.068V123.917C198.672 124.188 198.766 124.407 198.882 124.407Z" fill="#F2F2F2"/>
<path d="M198.727 120.24H200.573C200.688 120.24 200.78 120.09 200.78 119.904V118.184C200.78 117.998 200.688 117.848 200.573 117.848H198.727C198.612 117.848 198.52 117.998 198.52 118.184V119.904C198.52 120.09 198.612 120.24 198.727 120.24Z" fill="#F2F2F2"/>
<path d="M197.175 117.385H198.249C198.365 117.385 198.459 117.291 198.459 117.175V116.1C198.459 115.984 198.365 115.891 198.249 115.891H197.175C197.059 115.891 196.965 115.984 196.965 116.1V117.175C196.965 117.291 197.059 117.385 197.175 117.385Z" fill="#F2F2F2"/>
<path d="M198.663 115.409H199.371C199.513 115.409 199.628 115.294 199.628 115.152V114.444C199.628 114.302 199.513 114.188 199.371 114.188H198.663C198.521 114.188 198.406 114.302 198.406 114.444V115.152C198.406 115.294 198.521 115.409 198.663 115.409Z" fill="#F2F2F2"/>
<path d="M198.554 113.079H199.256C199.361 113.079 199.446 112.994 199.446 112.888V112.187C199.446 112.082 199.361 111.996 199.256 111.996H198.554C198.449 111.996 198.363 112.082 198.363 112.187V112.888C198.363 112.994 198.449 113.079 198.554 113.079Z" fill="#F2F2F2"/>
<g opacity="0.0353651">
<path d="M199.054 109.979H199.273C199.356 109.979 199.424 109.911 199.424 109.827V109.608C199.424 109.525 199.356 109.457 199.273 109.457H199.054C198.97 109.457 198.902 109.525 198.902 109.608V109.827C198.902 109.911 198.97 109.979 199.054 109.979Z" fill="#F2F2F2"/>
</g>
</g>
<path d="M204.861 160.658H202.173V159.61C202.173 159.237 201.871 158.934 201.497 158.934H190.563C190.19 158.934 189.887 159.237 189.887 159.61V173.425H202.173V172.275H204.861C206.325 172.275 207.517 171.084 207.517 169.619V163.314C207.517 161.85 206.325 160.658 204.861 160.658ZM205.014 169.619C205.014 169.703 204.945 169.772 204.861 169.772H202.173V163.161H204.861C204.945 163.161 205.014 163.23 205.014 163.314V169.619Z" fill="url(#paint2_linear_1652_23415)"/>
<path d="M213.215 173.426L6.96484 173.406V175.193H213.215V173.426Z" fill="#A67C52"/>
<path d="M213.215 175.191V175.462H6.96484V175.191H213.215Z" fill="#603813"/>
<mask id="mask3_1652_23415" style="mask-type:luminance" maskUnits="userSpaceOnUse" x="0" y="-18" width="224" height="224">
<path d="M0 -18H224V206H0V-18Z" fill="white"/>
</mask>
<g mask="url(#mask3_1652_23415)">
<path d="M139.475 86.3945H141.12C141.298 86.3945 141.443 86.3039 141.443 86.192V85.5618C141.443 85.45 141.298 85.3594 141.12 85.3594H139.475C139.297 85.3594 139.152 85.45 139.152 85.5618V86.192C139.152 86.3039 139.297 86.3945 139.475 86.3945Z" fill="#00A8FF"/>
<path d="M139.63 87.8226H140.978C141.06 87.8226 141.127 87.7558 141.127 87.6735V86.3249C141.127 86.2426 141.06 86.1758 140.978 86.1758H139.63C139.547 86.1758 139.48 86.2426 139.48 86.3249V87.6735C139.48 87.7558 139.547 87.8226 139.63 87.8226Z" fill="#00A8FF"/>
</g>
</g>
<path fill-rule="evenodd" clip-rule="evenodd" d="M54.9728 82.802H52.8882L50.3566 80.1553C50.1913 79.9828 49.9379 79.9074 49.6958 79.9592C49.4537 80.011 49.2608 80.1814 49.1933 80.4042L47.4868 86.0179L45.5168 76.0979C45.4557 75.7922 45.165 75.5724 44.8311 75.5799C44.4966 75.5875 44.2178 75.8193 44.1729 76.1281L42.4627 87.8615L40.6228 70.0337C40.5893 69.7094 40.2965 69.4614 39.9463 69.4609C39.5962 69.4604 39.3028 69.7069 39.2676 70.0312L37.3424 87.9529L35.6187 76.1285C35.5738 75.8198 35.295 75.5879 34.9605 75.5804C34.626 75.5728 34.3359 75.7926 34.2748 76.0984L32.3047 86.0183L30.5983 80.4047C30.5302 80.1814 30.3368 80.0104 30.0931 79.9591C29.8505 79.9078 29.5965 79.9848 29.4317 80.1588L26.9375 82.8024H21.4459C21.0704 82.8024 20.7656 83.0865 20.7656 83.4361C20.7656 83.7856 21.0704 84.0692 21.4459 84.0692H27.2455C27.4411 84.0692 27.6276 83.9907 27.7567 83.8539L29.629 81.8701L31.7887 88.9749C31.8752 89.258 32.1594 89.4486 32.4755 89.4351C32.7911 89.4215 33.0553 89.2073 33.1131 88.9176L34.8411 80.2177L36.7701 93.452C36.8166 93.7704 37.1116 94.0057 37.4564 94.0002C37.8017 93.9946 38.0875 93.7497 38.1221 93.4299L39.9312 76.5883L41.6694 93.4273C41.7024 93.7477 41.9877 93.9941 42.3335 94.0001C42.6788 94.0061 42.9749 93.7708 43.0214 93.452L44.9504 80.2176L46.6784 88.9175C46.7357 89.2072 46.9999 89.4214 47.316 89.435C47.6321 89.4486 47.9163 89.258 48.0028 88.9749L50.1653 81.861L52.0749 83.857C52.2041 83.9923 52.3889 84.0692 52.5828 84.0692H55.2808C55.3808 84.0692 55.4759 84.0491 55.5618 84.0129C55.6472 83.9772 55.7261 83.9239 55.7925 83.8539L57.6648 81.8701L59.8246 88.9749C59.9105 89.258 60.1947 89.4486 60.5108 89.4351C60.8269 89.4215 61.0911 89.2073 61.1484 88.9176L62.8764 80.2177L64.8054 93.452C64.8519 93.7704 65.1469 94.0057 65.4922 94.0002C65.837 93.9946 66.1228 93.7497 66.1574 93.4299L67.967 76.5883L69.7047 93.4273C69.7377 93.7477 70.0235 93.9941 70.3688 94.0001C70.7146 94.0061 71.0102 93.7708 71.0567 93.452L72.9857 80.2176L74.7137 88.9175C74.7715 89.2072 75.0357 89.4214 75.3518 89.435C75.6674 89.4486 75.9516 89.258 76.0381 88.9749L78.2006 81.861L80.1102 83.857C80.2394 83.9923 80.4241 84.0692 80.6187 84.0692H86.782C87.1575 84.0692 87.4622 83.7856 87.4622 83.4361C87.4622 83.0865 87.1575 82.8024 86.782 82.8024H80.924L78.3919 80.1557C78.2265 79.9832 77.9736 79.9077 77.731 79.9596C77.4889 80.0113 77.2966 80.1818 77.229 80.4046L75.522 86.0183L73.552 76.0983C73.4914 75.7925 73.2007 75.5728 72.8663 75.5803C72.5323 75.5879 72.253 75.8197 72.2081 76.1285L70.4979 87.8618L68.658 70.0341C68.6245 69.7098 68.3322 69.4618 67.9821 69.4613C67.6319 69.4608 67.338 69.7072 67.3034 70.0316L65.3776 87.9533L63.6538 76.1289C63.609 75.8202 63.3302 75.5883 62.9957 75.5808C62.6618 75.5732 62.3711 75.793 62.3105 76.0987L60.3399 86.0187L58.6335 80.4051C58.5654 80.1818 58.3719 80.0108 58.1288 79.9595C57.8856 79.9082 57.6316 79.9851 57.4674 80.1591L54.9728 82.802Z" fill="url(#paint3_linear_1652_23415)"/>
<path fill-rule="evenodd" clip-rule="evenodd" d="M161.65 70.8984L160.208 70.4949V65.2474C160.208 64.8333 159.883 64.4965 159.482 64.4965C159.082 64.4965 158.757 64.8332 158.757 65.2474V70.0889L157.315 69.6861V67.2159C157.315 66.8017 156.99 66.4656 156.59 66.4656C156.189 66.4656 155.864 66.8017 155.864 67.2159V69.2803L154.423 68.8774V68.161C154.423 67.7469 154.097 67.4107 153.697 67.4107C153.297 67.4107 152.972 67.7468 152.972 68.161V70.76C152.972 70.8357 152.983 70.9084 153.002 70.9769V74.474V74.5032V82.5755C152.12 81.9592 150.869 81.56 149.476 81.56C147.871 81.56 146.455 82.0904 145.573 82.8711C144.881 83.4837 144.498 84.2537 144.498 85.0707C144.498 85.8884 144.881 86.6583 145.573 87.271C146.455 88.0518 147.871 88.5822 149.476 88.5822C151.081 88.5822 152.497 88.0518 153.379 87.271C154.071 86.6584 154.453 85.8884 154.453 85.0707V75.4686L163.376 77.9638V85.4758L163.373 85.4746C162.967 85.1921 162.52 84.977 162.056 84.8179C161.346 84.5741 160.597 84.4615 159.849 84.4609C159.016 84.4609 158.233 84.6039 157.549 84.8507L157.534 84.856C157.529 84.8578 157.524 84.8602 157.519 84.862C157.495 84.8709 157.47 84.8799 157.447 84.8888C157.435 84.893 157.424 84.8977 157.412 84.9025C157.397 84.9079 157.382 84.9138 157.367 84.9198L157.352 84.9258C157.347 84.9281 157.342 84.9299 157.337 84.9323L157.322 84.9383L157.309 84.9436C157.284 84.9538 157.258 84.9645 157.233 84.9752C157.223 84.98 157.213 84.9842 157.203 84.9883L157.189 84.9943L157.161 85.0074L157.146 85.0134C157.141 85.0157 157.136 85.0181 157.132 85.0199L157.123 85.0241C157.113 85.0283 157.104 85.0324 157.095 85.0372L157.089 85.0396L157.074 85.0461L157.062 85.0521C157.044 85.0604 157.027 85.0688 157.009 85.0771L156.995 85.0843C156.594 85.2785 156.241 85.511 155.946 85.7714C155.939 85.7786 155.931 85.7851 155.923 85.7929C155.246 86.4019 154.872 87.1636 154.872 87.9716C154.872 88.3888 154.972 88.7935 155.161 89.1713L155.162 89.1743L155.167 89.1832C155.22 89.2881 155.28 89.3912 155.348 89.4919L155.352 89.4979C155.512 89.7375 155.712 89.9639 155.946 90.1713C156.006 90.2238 156.067 90.2744 156.13 90.3245L156.14 90.3322C156.144 90.3352 156.148 90.3382 156.151 90.3412L156.163 90.3495L156.174 90.3585C156.182 90.3644 156.189 90.3698 156.197 90.3757L156.208 90.3841C156.267 90.4276 156.326 90.4699 156.388 90.5116L156.398 90.5182C156.402 90.5206 156.406 90.5235 156.41 90.5259L156.416 90.5307L156.472 90.5664L156.484 90.5748L156.496 90.5825C156.544 90.6123 156.593 90.6421 156.642 90.6707C156.649 90.6749 156.657 90.6797 156.664 90.6839L156.677 90.6904L156.684 90.6946C156.69 90.6982 156.696 90.7023 156.703 90.7059L156.716 90.7131C157.56 91.1874 158.652 91.4824 159.849 91.4824C161.454 91.4824 162.87 90.9526 163.752 90.1713C164.444 89.5587 164.827 88.7887 164.827 87.9716V77.403V77.3744V74.27C164.949 74.3671 165.102 74.4243 165.268 74.4243C165.668 74.4243 165.993 74.0882 165.993 73.674V65.2472C165.993 64.8331 165.668 64.4963 165.268 64.4963C164.867 64.4963 164.542 64.833 164.542 65.2472V71.7647C164.499 71.7307 164.452 71.7015 164.401 71.6777C164.362 71.6592 164.32 71.6437 164.277 71.633L163.101 71.304V63.7902C163.101 63.376 162.775 63.0399 162.375 63.0399C161.974 63.0399 161.65 63.376 161.65 63.7902L161.65 70.8984ZM159.849 85.9624C161.061 85.9624 162.143 86.3229 162.809 86.9123C163.149 87.2133 163.376 87.5703 163.376 87.9719C163.376 88.3736 163.149 88.73 162.809 89.0309C162.143 89.6209 161.061 89.9815 159.849 89.9815C158.637 89.9815 157.556 89.6209 156.89 89.0309C156.55 88.73 156.323 88.3736 156.323 87.9719C156.323 87.674 156.448 87.4004 156.651 87.1561L156.655 87.1519C156.667 87.1376 156.679 87.1239 156.691 87.1102L156.697 87.1024L156.704 87.0953C156.707 87.0923 156.709 87.0899 156.711 87.0875L156.718 87.0804C156.771 87.0226 156.829 86.9665 156.89 86.9123C156.924 86.8825 156.959 86.8533 156.995 86.8241C156.998 86.8217 157.001 86.8193 157.004 86.8164C157.043 86.786 157.083 86.7562 157.124 86.727C157.129 86.7228 157.135 86.7186 157.141 86.7144C157.203 86.6709 157.267 86.6292 157.334 86.5893L157.341 86.5851C157.397 86.5512 157.455 86.519 157.514 86.4874C157.54 86.4743 157.565 86.4618 157.59 86.4486C157.606 86.4409 157.622 86.4332 157.638 86.4254L157.648 86.4206L157.651 86.4194C157.662 86.4141 157.673 86.4093 157.684 86.404C157.693 86.3998 157.703 86.395 157.712 86.3908C157.75 86.3736 157.789 86.3569 157.828 86.3408C157.843 86.3342 157.858 86.3283 157.874 86.3217C157.883 86.3181 157.893 86.314 157.902 86.3104L157.911 86.3068L157.922 86.3026L157.934 86.2985C157.941 86.2955 157.949 86.2925 157.956 86.2895C157.977 86.2818 157.997 86.274 158.018 86.2669L158.025 86.2639C158.029 86.2627 158.033 86.2615 158.036 86.2603L158.042 86.2579C158.576 86.0678 159.194 85.9624 159.849 85.9624ZM149.476 83.0612C150.688 83.0612 151.769 83.4223 152.435 84.0117C152.775 84.3127 153.002 84.6697 153.002 85.0707C153.002 85.4724 152.775 85.8294 152.435 86.1304C151.769 86.7204 150.688 87.0809 149.476 87.0809C148.264 87.0809 147.182 86.7204 146.517 86.1304C146.176 85.8294 145.949 85.4724 145.949 85.0707C145.949 84.6697 146.176 84.3127 146.517 84.0117C147.183 83.4223 148.264 83.0612 149.476 83.0612ZM137.067 83.2423V55.6784C137.067 55.2642 136.742 54.9275 136.342 54.9275C135.941 54.9275 135.616 55.2642 135.616 55.6784V83.2423C135.616 83.6565 135.941 83.9933 136.342 83.9933C136.742 83.9933 137.067 83.6565 137.067 83.2423ZM134.175 79.9349V58.9862C134.175 58.572 133.849 58.2358 133.449 58.2358C133.049 58.2358 132.724 58.572 132.724 58.9862V79.9349C132.724 80.3491 133.049 80.6858 133.449 80.6858C133.849 80.6858 134.175 80.3491 134.175 79.9349ZM139.96 79.9349V58.9862C139.96 58.572 139.635 58.2358 139.234 58.2358C138.834 58.2358 138.509 58.572 138.509 58.9862V79.9349C138.509 80.3491 138.834 80.6858 139.234 80.6858C139.635 80.6858 139.96 80.3491 139.96 79.9349ZM142.853 77.2572V61.6635C142.853 61.2493 142.527 60.9132 142.127 60.9132C141.726 60.9132 141.402 61.2493 141.402 61.6635V77.2572C141.402 77.6714 141.726 78.0081 142.127 78.0081C142.527 78.0081 142.853 77.6714 142.853 77.2572ZM131.282 77.2572V61.6635C131.282 61.2493 130.957 60.9132 130.557 60.9132C130.156 60.9132 129.831 61.2493 129.831 61.6635V77.2572C129.831 77.6714 130.156 78.0081 130.557 78.0081C130.957 78.0081 131.282 77.6714 131.282 77.2572ZM156.386 70.9817L154.453 70.4412V73.9139L163.376 76.4086V72.936L162.199 72.607C162.19 72.6046 162.18 72.6022 162.171 72.5992L159.306 71.7983C159.297 71.7959 159.288 71.7929 159.279 71.7905L156.414 70.9896C156.405 70.9866 156.395 70.9841 156.386 70.9817ZM128.389 75.1308V63.7903C128.389 63.3761 128.063 63.04 127.663 63.04C127.262 63.04 126.938 63.3761 126.938 63.7903V75.1308C126.938 75.5449 127.262 75.8817 127.663 75.8817C128.063 75.8817 128.389 75.545 128.389 75.1308ZM115.448 47.4478C115.327 47.4681 115.217 47.5187 115.123 47.5926C115.03 47.6659 114.954 47.7631 114.904 47.8787C114.874 47.9442 114.855 48.0152 114.845 48.0897C114.84 48.1278 114.838 48.1659 114.839 48.2035V53.2018V53.231V61.3039C113.956 60.6876 112.705 60.2884 111.312 60.2884C109.708 60.2884 108.292 60.8182 107.41 61.5989C106.717 62.2115 106.335 62.9815 106.335 63.7992C106.335 64.0727 106.378 64.3415 106.461 64.6007V73.6736C106.461 74.0878 106.786 74.4239 107.187 74.4239C107.587 74.4239 107.912 74.0878 107.912 73.6736V66.3796C108.326 66.6484 108.814 66.8719 109.354 67.0322V75.13C109.354 75.5442 109.679 75.881 110.079 75.881C110.479 75.881 110.805 75.5442 110.805 75.13V67.292C110.972 67.3039 111.141 67.3099 111.312 67.3099C111.632 67.3099 111.944 67.289 112.246 67.2491V73.6735C112.246 74.0877 112.571 74.4238 112.972 74.4238C113.372 74.4238 113.697 74.0877 113.697 73.6735V66.8884C114.293 66.6626 114.81 66.3574 115.215 65.9987C115.907 65.386 116.29 64.6161 116.29 63.799V54.1964L125.212 56.6916V64.2042C124.329 63.588 123.079 63.1887 121.686 63.1887C120.081 63.1887 118.665 63.7185 117.783 64.4992C117.091 65.1124 116.708 65.8818 116.708 66.6995C116.708 67.5166 117.091 68.2865 117.783 68.8998C117.862 68.9689 117.945 69.0369 118.032 69.1024V70.7591C118.032 71.1733 118.356 71.51 118.757 71.51C119.157 71.51 119.483 71.1733 119.483 70.7591V69.8545C119.993 70.0291 120.556 70.1465 121.152 70.1906V71.7043C121.152 72.1185 121.477 72.4546 121.878 72.4546C122.278 72.4546 122.604 72.1185 122.604 71.7043V70.1518C123.118 70.0851 123.602 69.9635 124.045 69.7984V73.6733C124.045 74.0874 124.37 74.4236 124.77 74.4236C125.171 74.4236 125.496 74.0875 125.496 73.6733V69.1113C125.496 69.0689 125.492 69.0278 125.486 68.9873C125.521 68.9587 125.555 68.9289 125.589 68.8997C126.281 68.2865 126.663 67.5165 126.663 66.6994V56.1312V56.102V51.103C126.665 51.0572 126.661 51.0125 126.654 50.9678C126.635 50.8432 126.585 50.7288 126.514 50.6322C126.443 50.5363 126.349 50.457 126.238 50.4052C126.198 50.3867 126.156 50.3712 126.114 50.3605L115.768 47.4677C115.733 47.457 115.697 47.4492 115.66 47.4439C115.588 47.4343 115.517 47.4355 115.448 47.4474L115.448 47.4478ZM145.744 75.1308V63.7903C145.744 63.3761 145.419 63.04 145.019 63.04C144.618 63.04 144.293 63.3761 144.293 63.7903V75.1308C144.293 75.5449 144.618 75.8817 145.019 75.8817C145.419 75.8817 145.744 75.545 145.744 75.1308ZM148.637 73.6742V65.2475C148.637 64.8333 148.311 64.4965 147.911 64.4965C147.511 64.4965 147.186 64.8333 147.186 65.2475V73.6742C147.186 74.0884 147.511 74.4245 147.911 74.4245C148.311 74.4245 148.637 74.0884 148.637 73.6742ZM151.529 71.7052V67.2158C151.529 66.8017 151.204 66.4655 150.804 66.4655C150.403 66.4655 150.078 66.8016 150.078 67.2158V71.7052C150.078 72.1194 150.403 72.4555 150.804 72.4555C151.204 72.4555 151.529 72.1194 151.529 71.7052ZM116.59 71.7052V67.2158C116.59 66.8017 116.265 66.4655 115.865 66.4655C115.464 66.4655 115.139 66.8016 115.139 67.2158V71.7052C115.139 72.1194 115.464 72.4555 115.865 72.4555C116.265 72.4555 116.59 72.1194 116.59 71.7052ZM105.02 71.7052V67.2158C105.02 66.8017 104.695 66.4655 104.294 66.4655C103.894 66.4655 103.569 66.8016 103.569 67.2158V71.7052C103.569 72.1194 103.894 72.4555 104.294 72.4555C104.695 72.4555 105.02 72.1194 105.02 71.7052ZM168.885 71.7052V67.2158C168.885 66.8017 168.559 66.4655 168.159 66.4655C167.759 66.4655 167.434 66.8016 167.434 67.2158V71.7052C167.434 72.1194 167.759 72.4555 168.159 72.4555C168.559 72.4555 168.885 72.1194 168.885 71.7052ZM171.777 70.76V68.1611C171.777 67.7469 171.452 67.4108 171.052 67.4108C170.651 67.4108 170.326 67.7469 170.326 68.1611V70.76C170.326 71.1742 170.651 71.511 171.052 71.511C171.452 71.511 171.777 71.1742 171.777 70.76ZM102.127 70.76V68.1611C102.127 67.7469 101.802 67.4108 101.401 67.4108C101.001 67.4108 100.676 67.7469 100.676 68.1611V70.76C100.676 71.1742 101.001 71.511 101.401 71.511C101.802 71.511 102.127 71.1742 102.127 70.76ZM125.212 66.7004C125.212 66.2988 124.985 65.9418 124.645 65.6408C123.979 65.0514 122.897 64.6909 121.686 64.6909C120.474 64.6909 119.392 65.0514 118.726 65.6408C118.386 65.9418 118.159 66.2988 118.159 66.7004C118.159 67.1021 118.386 67.4585 118.726 67.76C118.838 67.859 118.961 67.9513 119.095 68.0366C119.119 68.0491 119.141 68.0634 119.163 68.0789C119.821 68.477 120.711 68.71 121.686 68.71C122.897 68.71 123.979 68.3494 124.645 67.76C124.985 67.4585 125.212 67.1021 125.212 66.7004ZM114.838 63.7999C114.838 63.3982 114.612 63.0412 114.272 62.7403C113.606 62.1508 112.524 61.7903 111.312 61.7903C110.101 61.7903 109.019 62.1508 108.353 62.7403C108.013 63.0412 107.786 63.3982 107.786 63.7999C107.786 63.925 107.808 64.0466 107.849 64.1628C107.858 64.1831 107.866 64.2039 107.873 64.2248C107.968 64.4566 108.138 64.6694 108.353 64.8589C108.8 65.2552 109.434 65.5472 110.169 65.6968C110.199 65.701 110.229 65.7069 110.258 65.7147C110.592 65.7767 110.946 65.8094 111.312 65.8094C112.524 65.8094 113.606 65.4489 114.272 64.8589C114.611 64.5579 114.838 64.2015 114.838 63.7999ZM116.289 52.6423L125.212 55.1371V51.6644L116.289 49.1696V52.6423Z" fill="url(#paint4_linear_1652_23415)"/>
<path d="M153.248 167.977C148.991 167.977 145.519 164.505 145.519 160.248V154.064H143.308C143.046 154.064 142.832 153.85 142.832 153.589C142.832 153.327 143.046 153.113 143.308 153.113H145.995C146.256 153.113 146.47 153.327 146.47 153.589V160.224C146.47 163.958 149.515 167.002 153.248 167.002C156.982 167.002 160.026 163.958 160.026 160.224L160.027 153.589C160.027 153.327 160.241 153.113 160.502 153.113H163.189C163.451 153.113 163.665 153.327 163.665 153.589C163.665 153.85 163.451 154.064 163.189 154.064H160.978V160.224C160.978 164.504 157.506 167.977 153.249 167.977H153.248Z" fill="url(#paint5_linear_1652_23415)"/>
<path d="M153.249 173.278C152.988 173.278 152.773 173.064 152.773 172.802V167.499C152.773 167.238 152.988 167.023 153.249 167.023C153.511 167.023 153.725 167.238 153.725 167.499V172.802C153.725 173.064 153.511 173.278 153.249 173.278Z" fill="url(#paint6_linear_1652_23415)"/>
<path d="M153.25 165.884C150.135 165.884 147.59 163.34 147.59 160.224L147.59 148.738C147.59 145.623 150.135 143.078 153.25 143.078C156.365 143.078 158.91 145.623 158.91 148.738V160.224C158.91 163.34 156.365 165.884 153.25 165.884ZM153.25 144.029C150.658 144.029 148.541 146.146 148.541 148.738V160.224C148.541 162.817 150.658 164.933 153.25 164.933C155.842 164.933 157.959 162.817 157.959 160.224L157.959 148.738C157.959 146.146 155.842 144.029 153.25 144.029Z" fill="url(#paint7_linear_1652_23415)"/>
<path d="M155.629 149.285C155.486 149.285 155.391 149.19 155.391 149.047V144.148C155.391 144.005 155.486 143.91 155.629 143.91C155.771 143.91 155.866 144.005 155.866 144.148V149.047C155.866 149.166 155.771 149.285 155.629 149.285Z" fill="url(#paint8_linear_1652_23415)"/>
<path d="M150.871 149.285C150.728 149.285 150.633 149.19 150.633 149.047L150.633 144.148C150.633 144.005 150.728 143.91 150.871 143.91C151.014 143.91 151.109 144.005 151.109 144.148V149.047C151.109 149.166 150.99 149.285 150.871 149.285Z" fill="url(#paint9_linear_1652_23415)"/>
<path d="M157.219 173.279H149.276C149.015 173.279 148.801 173.065 148.801 172.804C148.801 172.542 149.015 172.328 149.276 172.328H157.196C157.457 172.328 157.671 172.542 157.671 172.804C157.671 173.065 157.481 173.279 157.219 173.279H157.219Z" fill="url(#paint10_linear_1652_23415)"/>
<path d="M158.431 156.109H148.062C147.919 156.109 147.824 156.014 147.824 155.871C147.824 155.728 147.919 155.633 148.062 155.633H158.431C158.574 155.633 158.669 155.728 158.669 155.871C158.668 155.99 158.55 156.109 158.431 156.109Z" fill="url(#paint11_linear_1652_23415)"/>
<g clip-path="url(#clip1_1652_23415)">
<mask id="mask4_1652_23415" style="mask-type:luminance" maskUnits="userSpaceOnUse" x="191" y="65" width="16" height="16">
<path d="M191.129 65.1289H206.873V80.873H191.129V65.1289Z" fill="white"/>
</mask>
<g mask="url(#mask4_1652_23415)">
<path d="M205.562 71.69C205.272 71.6908 204.99 71.7879 204.761 71.966C204.532 72.1439 204.369 72.393 204.297 72.674H202.938V70.7059C202.938 70.4451 202.834 70.1949 202.65 70.0104C202.465 69.8259 202.215 69.7222 201.954 69.7219H199.33V69.0659H202.61C202.784 69.0657 202.951 68.9965 203.074 68.8735C203.197 68.7506 203.266 68.5839 203.266 68.4099V67.7073C203.682 67.6 204.019 67.2959 204.168 66.8932C204.318 66.4905 204.26 66.0403 204.015 65.6877C203.77 65.3352 203.368 65.125 202.938 65.125C202.509 65.125 202.106 65.3352 201.861 65.6877C201.616 66.0403 201.559 66.4905 201.708 66.8932C201.857 67.2959 202.194 67.6 202.61 67.7073V68.4099H199.33V67.7073C199.746 67.6 200.083 67.2959 200.232 66.8932C200.381 66.4905 200.324 66.0403 200.079 65.6877C199.834 65.3352 199.431 65.125 199.002 65.125C198.572 65.125 198.17 65.3352 197.925 65.6877C197.68 66.0403 197.622 66.4905 197.772 66.8932C197.921 67.2959 198.258 67.6 198.674 67.7073V68.4099H195.394V67.7073C195.81 67.6 196.147 67.2959 196.296 66.8932C196.445 66.4905 196.388 66.0403 196.143 65.6877C195.898 65.3352 195.495 65.125 195.066 65.125C194.637 65.125 194.234 65.3352 193.989 65.6877C193.744 66.0403 193.686 66.4905 193.836 66.8932C193.985 67.2959 194.322 67.6 194.738 67.7073V68.4099C194.738 68.5839 194.807 68.7506 194.93 68.8735C195.053 68.9965 195.22 69.0657 195.394 69.0659H198.674V69.7219H196.05C195.789 69.7222 195.539 69.8259 195.354 70.0104C195.17 70.1949 195.066 70.4451 195.066 70.7059V72.674H193.707C193.6 72.2581 193.296 71.9211 192.893 71.7717C192.49 71.6225 192.04 71.6797 191.688 71.9249C191.335 72.1702 191.125 72.5724 191.125 73.002C191.125 73.4314 191.335 73.8336 191.688 74.079C192.04 74.3242 192.49 74.3814 192.893 74.2321C193.296 74.0827 193.6 73.7458 193.707 73.33H195.066V75.298C195.066 75.5589 195.17 75.809 195.354 75.9935C195.539 76.1779 195.789 76.2817 196.05 76.2819H198.674V76.9379H195.394C195.22 76.9381 195.053 77.0074 194.93 77.1303C194.807 77.2533 194.738 77.4201 194.738 77.5939V78.2965C194.322 78.4038 193.985 78.708 193.836 79.1106C193.686 79.5133 193.744 79.9635 193.989 80.3162C194.234 80.6687 194.637 80.8788 195.066 80.8788C195.495 80.8788 195.898 80.6687 196.143 80.3162C196.388 79.9635 196.445 79.5133 196.296 79.1106C196.147 78.708 195.81 78.4038 195.394 78.2965V77.5939H198.674V78.2965C198.258 78.4038 197.921 78.708 197.772 79.1106C197.622 79.5133 197.68 79.9635 197.925 80.3162C198.17 80.6687 198.572 80.8788 199.002 80.8788C199.431 80.8788 199.834 80.6687 200.079 80.3162C200.324 79.9635 200.381 79.5133 200.232 79.1106C200.083 78.708 199.746 78.4038 199.33 78.2965V77.5939H202.61V78.2965C202.194 78.4038 201.857 78.708 201.708 79.1106C201.559 79.5133 201.616 79.9635 201.861 80.3162C202.106 80.6687 202.509 80.8788 202.938 80.8788C203.368 80.8788 203.77 80.6687 204.015 80.3162C204.26 79.9635 204.318 79.5133 204.168 79.1106C204.019 78.708 203.682 78.4038 203.266 78.2965V77.5939C203.266 77.4201 203.197 77.2533 203.074 77.1303C202.951 77.0074 202.784 76.9381 202.61 76.9379H199.33V76.2819H201.954H201.954C202.215 76.2817 202.465 76.1779 202.65 75.9935C202.834 75.809 202.938 75.5589 202.938 75.298V73.33H204.297C204.379 73.6476 204.578 73.9226 204.854 74.1006C205.13 74.2785 205.463 74.3463 205.786 74.2907C206.11 74.235 206.401 74.0598 206.601 73.8C206.802 73.5401 206.897 73.2144 206.869 72.8872C206.841 72.5602 206.691 72.2556 206.449 72.0338C206.207 71.8121 205.89 71.6894 205.562 71.69ZM202.282 66.4418C202.282 66.2679 202.351 66.101 202.474 65.978C202.597 65.8549 202.764 65.7858 202.938 65.7858C203.112 65.7858 203.279 65.8549 203.402 65.978C203.525 66.101 203.594 66.2679 203.594 66.4418C203.594 66.6158 203.525 66.7826 203.402 66.9057C203.279 67.0288 203.112 67.0978 202.938 67.0978C202.764 67.0976 202.597 67.0285 202.474 66.9055C202.351 66.7825 202.282 66.6158 202.282 66.4418ZM198.346 66.4418C198.346 66.2679 198.415 66.101 198.538 65.978C198.661 65.8549 198.828 65.7858 199.002 65.7858C199.176 65.7858 199.343 65.8549 199.466 65.978C199.589 66.101 199.658 66.2679 199.658 66.4418C199.658 66.6158 199.589 66.7826 199.466 66.9057C199.343 67.0288 199.176 67.0978 199.002 67.0978C198.828 67.0976 198.661 67.0285 198.538 66.9055C198.415 66.7825 198.346 66.6158 198.346 66.4418ZM194.41 66.4418C194.41 66.2679 194.479 66.101 194.602 65.978C194.725 65.8549 194.892 65.7858 195.066 65.7858C195.24 65.7858 195.407 65.8549 195.53 65.978C195.653 66.101 195.722 66.2679 195.722 66.4418C195.722 66.6158 195.653 66.7826 195.53 66.9057C195.407 67.0288 195.24 67.0978 195.066 67.0978C194.892 67.0976 194.725 67.0285 194.602 66.9055C194.479 66.7825 194.41 66.6158 194.41 66.4418ZM192.442 73.6578C192.268 73.6578 192.101 73.5886 191.978 73.4656C191.855 73.3426 191.786 73.1757 191.786 73.0018C191.786 72.8277 191.855 72.6608 191.978 72.5379C192.101 72.4148 192.268 72.3457 192.442 72.3457C192.616 72.3457 192.783 72.4148 192.906 72.5379C193.029 72.6608 193.098 72.8277 193.098 73.0018C193.098 73.1756 193.029 73.3423 192.906 73.4654C192.783 73.5883 192.616 73.6575 192.442 73.6578ZM195.722 79.5618C195.722 79.7359 195.653 79.9026 195.53 80.0257C195.407 80.1488 195.24 80.2178 195.066 80.2178C194.892 80.2178 194.725 80.1488 194.602 80.0257C194.479 79.9027 194.41 79.7359 194.41 79.5618C194.41 79.3879 194.479 79.221 194.602 79.098C194.725 78.975 194.892 78.9058 195.066 78.9058C195.24 78.9061 195.407 78.9753 195.53 79.0982C195.653 79.2213 195.722 79.388 195.722 79.5618ZM199.658 79.5618C199.658 79.7359 199.589 79.9026 199.466 80.0257C199.343 80.1488 199.176 80.2178 199.002 80.2178C198.828 80.2178 198.661 80.1488 198.538 80.0257C198.415 79.9027 198.346 79.7359 198.346 79.5618C198.346 79.3879 198.415 79.221 198.538 79.098C198.661 78.975 198.828 78.9058 199.002 78.9058C199.176 78.9061 199.343 78.9753 199.466 79.0982C199.589 79.2213 199.658 79.388 199.658 79.5618ZM203.594 79.5618C203.594 79.7359 203.525 79.9026 203.402 80.0257C203.279 80.1488 203.112 80.2178 202.938 80.2178C202.764 80.2178 202.597 80.1488 202.474 80.0257C202.351 79.9027 202.282 79.7359 202.282 79.5618C202.282 79.3879 202.351 79.221 202.474 79.098C202.597 78.975 202.764 78.9058 202.938 78.9058C203.112 78.9061 203.279 78.9753 203.402 79.0982C203.524 79.2213 203.594 79.388 203.594 79.5618ZM197.034 75.6259V70.3781H200.97V75.6259H197.034ZM195.722 75.2979V70.706C195.722 70.5249 195.869 70.3781 196.05 70.378H196.378V75.6258H196.05C195.869 75.6257 195.722 75.479 195.722 75.298V75.2979ZM202.282 75.2979L202.282 75.298C202.282 75.4791 202.135 75.6258 201.954 75.6259H201.626V70.3781H201.954C202.135 70.3782 202.282 70.5249 202.282 70.7061L202.282 75.2979ZM205.562 73.658C205.388 73.658 205.221 73.5888 205.098 73.4659C204.975 73.3428 204.906 73.176 204.906 73.002C204.906 72.8279 204.975 72.6611 205.098 72.5381C205.221 72.4151 205.388 72.346 205.562 72.346C205.736 72.346 205.903 72.4151 206.026 72.5381C206.149 72.6611 206.218 72.8279 206.218 73.002C206.218 73.1758 206.149 73.3426 206.025 73.4656C205.903 73.5886 205.736 73.6578 205.562 73.658ZM200.133 72.7086L198.165 71.7246C198.063 71.6738 197.942 71.6791 197.845 71.739C197.749 71.7987 197.69 71.9042 197.69 72.018V73.986C197.69 74.0997 197.749 74.2053 197.845 74.265C197.942 74.3248 198.063 74.3302 198.165 74.2794L200.133 73.2954C200.244 73.2398 200.314 73.1262 200.314 73.002C200.314 72.8778 200.244 72.7641 200.133 72.7086V72.7086ZM198.346 73.4553V72.5488L199.253 73.002L198.346 73.4553Z" fill="white"/>
</g>
</g>
</g>
<defs>
<linearGradient id="paint0_linear_1652_23415" x1="-29.244" y1="244.58" x2="191.716" y2="23.6195" gradientUnits="userSpaceOnUse">
<stop stop-color="#492B9B"/>
<stop offset="0.39" stop-color="#5279CA"/>
<stop offset="0.82" stop-color="#5AC7F9"/>
</linearGradient>
<linearGradient id="paint1_linear_1652_23415" x1="205.579" y1="51.13" x2="166.391" y2="99.3554" gradientUnits="userSpaceOnUse">
<stop stop-color="#0096FF"/>
<stop offset="1" stop-color="#0083E0"/>
</linearGradient>
<linearGradient id="paint2_linear_1652_23415" x1="201.935" y1="156.756" x2="186.493" y2="180.117" gradientUnits="userSpaceOnUse">
<stop stop-color="#0096FF"/>
<stop offset="1" stop-color="#0083E0"/>
</linearGradient>
<linearGradient id="paint3_linear_1652_23415" x1="20.7656" y1="69.4609" x2="89.7083" y2="70.3886" gradientUnits="userSpaceOnUse">
<stop stop-color="#0096FF"/>
<stop offset="0.503706" stop-color="#8E54E9"/>
</linearGradient>
<linearGradient id="paint4_linear_1652_23415" x1="149.264" y1="40.8188" x2="108.545" y2="122.561" gradientUnits="userSpaceOnUse">
<stop stop-color="#0096FF"/>
<stop offset="1" stop-color="#0083E0"/>
</linearGradient>
<linearGradient id="paint5_linear_1652_23415" x1="157.069" y1="150.88" x2="142.207" y2="176.783" gradientUnits="userSpaceOnUse">
<stop stop-color="#0096FF"/>
<stop offset="1" stop-color="#0083E0"/>
</linearGradient>
<linearGradient id="paint6_linear_1652_23415" x1="153.423" y1="166.084" x2="150.778" y2="166.584" gradientUnits="userSpaceOnUse">
<stop stop-color="#0096FF"/>
<stop offset="1" stop-color="#0083E0"/>
</linearGradient>
<linearGradient id="paint7_linear_1652_23415" x1="155.326" y1="139.651" x2="131.713" y2="154.226" gradientUnits="userSpaceOnUse">
<stop stop-color="#0096FF"/>
<stop offset="1" stop-color="#0083E0"/>
</linearGradient>
<linearGradient id="paint8_linear_1652_23415" x1="155.716" y1="143.102" x2="154.362" y2="143.252" gradientUnits="userSpaceOnUse">
<stop stop-color="#0096FF"/>
<stop offset="1" stop-color="#0083E0"/>
</linearGradient>
<linearGradient id="paint9_linear_1652_23415" x1="150.958" y1="143.102" x2="149.603" y2="143.252" gradientUnits="userSpaceOnUse">
<stop stop-color="#0096FF"/>
<stop offset="1" stop-color="#0083E0"/>
</linearGradient>
<linearGradient id="paint10_linear_1652_23415" x1="154.863" y1="172.185" x2="154.674" y2="174.372" gradientUnits="userSpaceOnUse">
<stop stop-color="#0096FF"/>
<stop offset="1" stop-color="#0083E0"/>
</linearGradient>
<linearGradient id="paint11_linear_1652_23415" x1="155.235" y1="155.561" x2="155.196" y2="156.662" gradientUnits="userSpaceOnUse">
<stop stop-color="#0096FF"/>
<stop offset="1" stop-color="#0083E0"/>
</linearGradient>
<clipPath id="clip0_1652_23415">
<rect width="224" height="185" fill="white"/>
</clipPath>
<clipPath id="clip1_1652_23415">
<rect width="16" height="16" fill="white" transform="translate(191 65)"/>
</clipPath>
</defs>
</svg>
