<svg width="341" height="135" viewBox="0 0 341 135" fill="none" xmlns="http://www.w3.org/2000/svg">
<path d="M329.186 22.2365C325.78 17.2935 321.598 12.9385 316.663 9.47603C305.98 1.97864 291.842 -1.66083 285.039 -12.8636C279.055 -22.7172 280.765 -35.3757 283.757 -46.5342C286.749 -57.6926 290.864 -69.0895 289.044 -80.5031C286.041 -99.3282 268.158 -111.726 250.927 -119.501C183.161 -150.08 67.2819 -135.086 21.4806 -77.3889C14.4125 -68.485 -0.154771 -50.1338 0.00124322 -24.8608C0.0630183 -14.876 1.27163 -4.91428 5.65691 4.16621C15.6633 24.8861 38.1496 32.9178 34.4619 59.5904C33.1601 69.0063 29.5852 77.92 26.8497 87.0165C22.5848 101.198 16.4336 134.373 32.3958 134.373C46.3495 134.373 44.7228 134.373 61.6134 134.373C119.739 134.373 92.0646 134.884 153.617 134.373C164.89 134.28 223.044 133.804 237.128 133.804C240.828 133.804 259.776 133.804 263.494 133.804C269.895 133.804 289.773 133.863 286.076 133.714C300.949 137.545 314.754 124.554 323.024 111.488C333.078 95.6042 340.203 77.3008 340.133 58.4464C340.085 45.6626 336.358 32.6456 329.186 22.2365Z" fill="url(#paint0_linear_1652_24310)" fill-opacity="0.1"/>
<defs>
<linearGradient id="paint0_linear_1652_24310" x1="-62.6645" y1="252.632" x2="309.149" y2="-119.181" gradientUnits="userSpaceOnUse">
<stop stop-color="#492B9B"/>
<stop offset="0.39" stop-color="#5279CA"/>
<stop offset="0.82" stop-color="#5AC7F9"/>
</linearGradient>
</defs>
</svg>
