<svg width="30" height="30" viewBox="0 0 30 30" fill="none" xmlns="http://www.w3.org/2000/svg">
<path d="M17.113 5.80469C16.306 5.80469 15.6514 6.45473 15.6514 7.26197C15.6514 8.06922 16.3057 8.72359 17.113 8.72359C17.9202 8.72359 18.5746 8.06922 18.5746 7.26197C18.5746 6.45473 17.9202 5.80469 17.113 5.80469ZM16.9603 8.33957C16.4499 8.33957 16.0354 7.92941 16.0354 7.419C16.0354 6.91295 16.4499 6.49844 16.9603 6.49844C17.4664 6.49844 17.8809 6.91294 17.8809 7.419C17.8809 7.92941 17.4664 8.33957 16.9603 8.33957Z" />
<path d="M17.5504 7.42096C17.5504 7.74826 17.2842 8.01422 16.9614 8.01422C16.6341 8.01422 16.3682 7.74803 16.3682 7.42096C16.3682 7.09801 16.6344 6.83203 16.9614 6.83203C17.0619 6.83203 17.1622 6.85812 17.245 6.91054C17.1315 6.92358 17.0486 7.02406 17.0486 7.13736C17.0486 7.26393 17.1489 7.36853 17.2798 7.36853C17.3844 7.36853 17.4762 7.29437 17.5023 7.19847C17.5327 7.26805 17.5504 7.34222 17.5504 7.42096Z" />
<path d="M12.9255 5.80469C12.1185 5.80469 11.4639 6.45473 11.4639 7.26197C11.4639 8.06922 12.1182 8.72359 12.9255 8.72359C13.7325 8.72359 14.3871 8.06922 14.3871 7.26197C14.3871 6.45473 13.7327 5.80469 12.9255 5.80469ZM13.0784 8.33957C12.568 8.33957 12.1578 7.92941 12.1578 7.419C12.1578 6.91295 12.568 6.49844 13.0784 6.49844C13.5888 6.49844 13.9989 6.91294 13.9989 7.419C13.9989 7.92941 13.5888 8.33957 13.0784 8.33957Z" />
<path d="M13.6707 7.42094C13.6707 7.74824 13.4045 8.01421 13.0772 8.01421C12.7499 8.01421 12.4883 7.74801 12.4883 7.42094C12.4883 7.34244 12.5057 7.26828 12.5363 7.19847C12.5624 7.29437 12.6542 7.36853 12.7588 7.36853C12.8854 7.36853 12.99 7.2637 12.99 7.13736C12.99 7.01948 12.9028 6.92358 12.7893 6.91053C12.8721 6.85812 12.9724 6.83203 13.0772 6.83203C13.4045 6.8318 13.6707 7.09798 13.6707 7.42094Z" />
<path d="M15.0004 16.3828C14.4273 16.3828 13.9639 16.8463 13.9639 17.4194C13.9639 17.9907 14.4274 18.4542 15.0004 18.4542C15.5715 18.4542 16.0352 17.9904 16.0352 17.4194C16.0352 16.8463 15.5717 16.3828 15.0004 16.3828Z" />
<path d="M18.169 17.2287C18.2519 17.2287 18.3173 17.1632 18.3173 17.0847V17.0543H18.6446C18.7668 17.0543 18.8671 16.954 18.8671 16.8318C18.8671 16.7096 18.7669 16.6093 18.6446 16.6093H18.3173V16.5743C18.3173 16.4958 18.2519 16.4303 18.169 16.4303H18.0818V16.0508H18.169C18.2519 16.0508 18.3173 15.9854 18.3173 15.9069V15.8721H18.6446C18.7668 15.8721 18.8671 15.7762 18.8671 15.654C18.8671 15.5274 18.7669 15.4315 18.6446 15.4315H18.3173V15.3965C18.3173 15.318 18.2519 15.2525 18.169 15.2525H18.0818V15.0998C18.0818 14.6766 17.7415 14.3363 17.3183 14.3363L17.1656 14.3361V14.2489C17.1656 14.166 17.1001 14.1006 17.0216 14.1006H16.9869V13.7733C16.9869 13.651 16.8907 13.5508 16.7687 13.5508C16.6422 13.5508 16.5463 13.651 16.5463 13.7733V14.1006H16.5115C16.433 14.1006 16.3675 14.166 16.3675 14.2489V14.3361H15.988V14.2489C15.988 14.166 15.9225 14.1006 15.844 14.1006H15.809V13.7733C15.809 13.651 15.7088 13.5508 15.5865 13.5508C15.4643 13.5508 15.3684 13.651 15.3684 13.7733V14.1006H15.3336C15.2551 14.1006 15.1897 14.166 15.1897 14.2489V14.3361H14.81V14.2489C14.81 14.166 14.7445 14.1006 14.666 14.1006H14.631V13.7733C14.631 13.651 14.5307 13.5508 14.4085 13.5508C14.2863 13.5508 14.186 13.651 14.186 13.7733V14.1006H14.1553C14.0768 14.1006 14.0114 14.166 14.0114 14.2489V14.3361H13.6317V14.2489C13.6317 14.166 13.5662 14.1006 13.4834 14.1006H13.4529V13.7733C13.4529 13.651 13.3527 13.5508 13.2304 13.5508C13.1082 13.5508 13.008 13.651 13.008 13.7733V14.1006H12.9773C12.8944 14.1006 12.8333 14.166 12.8333 14.2489V14.3361H12.6807C12.2575 14.3361 11.9171 14.6764 11.9171 15.0996V15.2653H11.8299C11.7471 15.2653 11.6816 15.3264 11.6816 15.4093V15.4397H11.3543C11.2321 15.4397 11.1318 15.54 11.1318 15.6622C11.1318 15.7844 11.2321 15.8847 11.3543 15.8847H11.6816V15.9151C11.6816 15.998 11.7471 16.0634 11.8299 16.0634H11.9171V16.4429H11.8299C11.7471 16.4429 11.6816 16.5084 11.6816 16.5869V16.6173H11.3543C11.2321 16.6173 11.1318 16.7178 11.1318 16.8398C11.1318 16.962 11.2321 17.0623 11.3543 17.0623H11.6816V17.0973C11.6816 17.1758 11.7471 17.2413 11.8299 17.2413H11.9171V17.621H11.8299C11.7471 17.621 11.6816 17.6864 11.6816 17.7649V17.8H11.3543C11.2321 17.8 11.1318 17.8959 11.1318 18.0181C11.1318 18.1403 11.2321 18.2406 11.3543 18.2406H11.6816V18.2756C11.6816 18.3541 11.7471 18.4195 11.8299 18.4195H11.9171V18.799H11.8299C11.7471 18.799 11.6816 18.8645 11.6816 18.943V18.978H11.3543C11.2321 18.978 11.1318 19.0739 11.1318 19.2005C11.1318 19.3227 11.2321 19.4186 11.3543 19.4186H11.6816V19.4534C11.6816 19.5319 11.7471 19.5974 11.8299 19.5974H11.9171V19.737C11.9171 20.1558 12.2575 20.4962 12.6807 20.4962H12.8333V20.5877C12.8333 20.6662 12.8944 20.7317 12.9773 20.7317H13.008V21.0634C13.008 21.1856 13.1082 21.2858 13.2304 21.2858C13.3527 21.2858 13.4529 21.1856 13.4529 21.0634V20.7317H13.4834C13.5662 20.7317 13.6317 20.6662 13.6317 20.5877V20.4962H14.0114V20.5877C14.0114 20.6662 14.0768 20.7317 14.1553 20.7317H14.186V21.0634C14.186 21.1856 14.2863 21.2858 14.4085 21.2858C14.5307 21.2858 14.631 21.1856 14.631 21.0634V20.7317H14.666C14.7445 20.7317 14.81 20.6662 14.81 20.5877V20.4962H15.1897V20.5877C15.1897 20.6662 15.2551 20.7317 15.3336 20.7317H15.3684V21.0634C15.3684 21.1856 15.4643 21.2858 15.5865 21.2858C15.7088 21.2858 15.809 21.1856 15.809 21.0634V20.7317H15.844C15.9225 20.7317 15.988 20.6662 15.988 20.5877V20.4962H16.3675V20.5877C16.3675 20.6662 16.433 20.7317 16.5115 20.7317H16.5463V21.0634C16.5463 21.1856 16.6422 21.2858 16.7687 21.2858C16.8909 21.2858 16.9869 21.1856 16.9869 21.0634V20.7317H17.0216C17.1001 20.7317 17.1656 20.6662 17.1656 20.5877V20.4962H17.3183C17.7415 20.4962 18.0818 20.1558 18.0818 19.737V19.5887H18.169C18.2519 19.5887 18.3173 19.5232 18.3173 19.4404V19.4099H18.6446C18.7668 19.4099 18.8671 19.3097 18.8671 19.1874C18.8671 19.0652 18.7669 18.965 18.6446 18.965H18.3173V18.9345C18.3173 18.8517 18.2519 18.7862 18.169 18.7862H18.0818V18.4067H18.169C18.2519 18.4067 18.3173 18.3413 18.3173 18.2628V18.2323H18.6446C18.7668 18.2323 18.8671 18.1321 18.8671 18.0098C18.8671 17.8876 18.7669 17.7874 18.6446 17.7874H18.3173V17.7569C18.3173 17.6741 18.2519 17.6086 18.169 17.6086H18.0818V17.2291L18.169 17.2287ZM17.0697 17.6855L16.6822 17.7782C16.671 17.8357 16.6563 17.8913 16.6378 17.9469L16.9253 18.2213L16.6581 18.6834L16.278 18.5722C16.2372 18.6148 16.1965 18.6557 16.1537 18.6965L16.2649 19.0767L15.8033 19.3438L15.5288 19.0563C15.4732 19.0748 15.4176 19.0897 15.3602 19.1007L15.2675 19.4882H14.7314L14.6387 19.1007C14.5813 19.0895 14.5257 19.0748 14.47 19.0563L14.1954 19.3435L13.7337 19.0764L13.845 18.6963C13.8024 18.6555 13.7614 18.6148 13.7207 18.572L13.3405 18.6832L13.0734 18.2216L13.3609 17.9471C13.3423 17.8915 13.3275 17.8359 13.3165 17.7784L12.9287 17.6857V17.1497L13.3165 17.057C13.3275 16.9996 13.3423 16.9439 13.3609 16.8883L13.0734 16.6139L13.3405 16.1522L13.7207 16.2635C13.7614 16.2209 13.8022 16.1799 13.845 16.1392L13.7337 15.759L14.1954 15.4919L14.4698 15.7794C14.5254 15.7608 14.581 15.746 14.6385 15.7348L14.7312 15.3473H15.2672L15.3599 15.7348C15.4174 15.746 15.473 15.7606 15.5286 15.7794L15.803 15.4919L16.2647 15.759L16.1535 16.1392C16.196 16.1799 16.2368 16.2207 16.2777 16.2635L16.6579 16.1522L16.925 16.6139L16.6375 16.8883C16.6561 16.9439 16.671 16.9996 16.682 17.057L17.0694 17.1497L17.0697 17.6855Z" />
<path d="M19.688 21.3081C19.688 21.8011 19.2866 22.2026 18.7935 22.2026H11.2062C10.7132 22.2026 10.3117 21.8011 10.3117 21.3081V13.9493C10.3717 13.9564 10.4305 13.9676 10.4926 13.9676C11.2696 13.9676 11.9018 13.3835 11.9963 12.6348H18.0033C18.0979 13.3835 18.73 13.9676 19.5071 13.9676C19.5691 13.9676 19.6279 13.9566 19.6879 13.9493L19.688 21.3081ZM23.6759 18.6075V14.0175C23.6759 12.8047 22.6898 11.8141 21.4768 11.8141H20.8922C20.6523 11.2863 20.1243 10.9196 19.5091 10.9196C19.0074 10.9196 18.5668 11.1638 18.2919 11.5348H15.9054C16.0407 11.5305 16.1542 11.4169 16.1542 11.2817C16.1542 11.1377 16.0363 11.0242 15.8967 11.0242C16.0363 11.0242 16.1542 10.9107 16.1542 10.7667C16.1542 10.6271 16.0363 10.5136 15.8967 10.5136H16.861C18.1393 10.5136 19.2389 9.77176 19.7712 8.70289H20.2336C20.4647 8.70289 20.6524 8.51521 20.6524 8.28404V8.11833C21.0363 8.08331 21.3505 7.79973 21.4203 7.42892H21.8652C21.922 7.54679 22.044 7.62964 22.1882 7.62964C22.3889 7.62964 22.5546 7.46828 22.5546 7.2632C22.5546 7.06247 22.3889 6.89677 22.1882 6.89677C22.0442 6.89677 21.922 6.97962 21.8652 7.10184H21.4203C21.3505 6.73106 21.0362 6.44747 20.6524 6.41243V6.2426C20.6524 6.01143 20.4647 5.82375 20.2336 5.82375H19.7712C19.2389 4.75488 18.1395 4.01742 16.861 4.01742H16.4161C16.3987 3.82104 16.3419 3.63793 16.2503 3.47634C16.1544 3.29736 15.9581 3.20146 15.7573 3.20146H15.238V2.06275C15.4605 1.97554 15.6175 1.75742 15.6175 1.50428C15.6175 1.17262 15.3513 0.902344 15.0197 0.902344C14.6882 0.902344 14.4177 1.17265 14.4177 1.50428C14.4177 1.75742 14.5791 1.97555 14.8018 2.06275V3.20146H14.2824C14.0817 3.20146 13.8853 3.29736 13.7851 3.47634C13.6979 3.63771 13.6368 3.82104 13.6191 4.01742H13.1742C11.9003 4.01742 10.8007 4.75488 10.2685 5.82375H9.80597C9.57045 5.82375 9.38276 6.01143 9.38276 6.2426V6.41266C9.00327 6.44745 8.68901 6.73126 8.61923 7.10207H8.17428C8.11316 6.97985 7.99552 6.89699 7.85133 6.89699C7.6506 6.89699 7.48489 7.0627 7.48489 7.26343C7.48489 7.46851 7.6506 7.62987 7.85133 7.62987C7.99529 7.62987 8.11317 7.54702 8.17428 7.42914H8.61923C8.68903 7.79993 9.00306 8.08352 9.38276 8.11856V8.28427C9.38276 8.51544 9.57044 8.70312 9.80597 8.70312H10.2685C10.8009 9.77199 11.9003 10.5138 13.1742 10.5138H14.1428C14.0032 10.5138 13.8853 10.6273 13.8853 10.7669C13.8853 10.9109 14.0032 11.0244 14.1428 11.0244C14.0032 11.0244 13.8853 11.1379 13.8853 11.2819C13.8853 11.4172 13.9988 11.5307 14.1339 11.535H11.708C11.4331 11.1643 10.9925 10.9198 10.4908 10.9198C9.87559 10.9198 9.34778 11.2863 9.10772 11.8143L8.52338 11.8141C7.31055 11.8141 6.3243 12.8044 6.3243 14.0175V18.6075C5.93177 18.8606 5.66992 19.3012 5.66992 19.8029C5.66992 20.4182 6.06703 20.946 6.62113 21.1336L6.6209 19.8029H7.55014V21.1336C8.10426 20.946 8.50112 20.4182 8.50112 19.8029C8.50112 19.2662 8.20014 18.8038 7.76389 18.5638L7.76412 14.0175C7.76412 13.5986 8.10447 13.254 8.52332 13.254H9.20834C9.21704 13.2714 9.22573 13.2844 9.23443 13.302V21.9973C9.23443 22.7172 9.8103 23.2933 10.5301 23.2976C10.5301 23.2976 11.0842 23.2976 12.127 23.3019V23.6249C12.127 23.878 12.3321 24.0831 12.5853 24.0831H14.3696V26.6223H11.9306V25.8371C11.9306 25.632 11.7691 25.4663 11.5642 25.4663H9.7318C9.52672 25.4663 9.36101 25.632 9.36101 25.8371V28.7297C9.36101 28.9347 9.52695 29.1004 9.7318 29.1004H11.5642C11.7693 29.1004 11.9306 28.9347 11.9306 28.7297V28.049H18.0695V28.7297C18.0695 28.9347 18.2352 29.1004 18.4403 29.1004H20.2727C20.4778 29.1004 20.6391 28.9347 20.6391 28.7297V25.8371C20.6391 25.632 20.4778 25.4663 20.2727 25.4663H18.4403C18.2352 25.4663 18.0695 25.632 18.0695 25.8371V26.6223H15.6305V24.0831H17.4149C17.668 24.0831 17.8772 23.878 17.8772 23.6249V23.3019C18.3485 23.3019 18.8807 23.2976 19.4654 23.2976C20.1852 23.2976 20.7657 22.7174 20.7657 21.9973L20.7659 13.302C20.7746 13.2846 20.7833 13.2716 20.792 13.254H21.477C21.8959 13.254 22.2362 13.5987 22.2362 14.0175V18.5638C21.8 18.8037 21.499 19.2662 21.499 19.8029C21.499 20.4182 21.8961 20.946 22.45 21.1336V19.8029H23.3794V21.1336C23.9336 20.946 24.3304 20.4182 24.3304 19.8029C24.3304 19.3012 24.0686 18.8604 23.6759 18.6075ZM12.9169 9.14402C11.8698 9.13967 11.0277 8.29324 11.032 7.25484C11.0364 6.21638 11.8872 5.37867 12.9299 5.38306C13.9771 5.38741 14.8235 6.23384 14.8191 7.27224C14.8145 8.3107 13.9638 9.14841 12.9169 9.14402ZM15.2203 7.27247C15.216 6.23402 16.0624 5.38763 17.1052 5.3833C18.1523 5.37895 19.0031 6.21667 19.0074 7.25507C19.0118 8.29353 18.1654 9.13992 17.1226 9.14425C16.0757 9.14837 15.2247 8.31064 15.2203 7.27247Z" />
</svg>
