<svg width="30" height="30" viewBox="0 0 30 30" fill="none" xmlns="http://www.w3.org/2000/svg">
<g clip-path="url(#clip0_1551_14777)">
<path d="M7.15922 16.8442C9.18873 16.8442 10.8493 15.1836 10.8493 13.1541V10.8479C10.8493 10.5712 10.6648 10.3867 10.3881 10.3867C10.1114 10.3867 9.92689 10.5712 9.92689 10.8479V13.1541C9.92689 14.6762 8.68154 15.9215 7.1595 15.9215C5.63741 15.9215 4.39212 14.6761 4.39212 13.1541V11.7703C4.39212 11.4936 4.20764 11.3091 3.93092 11.3091C3.6542 11.3091 3.46973 11.4936 3.46973 11.7703V13.1541C3.46927 15.1836 5.12981 16.8442 7.15932 16.8442H7.15922Z" />
<path d="M3.92995 10.3892H8.54239C9.83397 10.3892 10.8486 9.37438 10.8486 8.08303V7.16064C10.8486 6.88392 10.6641 6.69945 10.3874 6.69945L5.77494 6.69922C4.48336 6.69922 3.46875 7.71406 3.46875 9.00541V9.92779C3.46875 10.2047 3.69923 10.3892 3.92995 10.3892ZM4.39114 9.00565C4.39114 8.22148 4.99079 7.62184 5.77495 7.62184H9.9262V8.08303C9.9262 8.8672 9.32655 9.46684 8.54239 9.46684H4.39114V9.00565Z" />
<path d="M8.68067 17.9522C8.31171 18.4134 7.75828 18.6441 7.20463 18.6441C6.6512 18.6441 6.0975 18.3674 5.7286 17.9522C5.59012 17.7677 5.2674 17.7215 5.08289 17.86C4.89842 17.9984 4.85218 18.3212 4.99065 18.5057C5.54409 19.1976 6.32823 19.5665 7.20462 19.5665C8.08101 19.5665 8.86517 19.1976 9.41858 18.5057C9.55706 18.3212 9.55706 17.9982 9.32635 17.86C9.09586 17.7217 8.81894 17.7217 8.68067 17.9522Z" />
<mask id="mask0_1551_14777" style="mask-type:luminance" maskUnits="userSpaceOnUse" x="0" y="17" width="16" height="13">
<path d="M0.239258 17.7539H15.9371V29.7598H0.239258V17.7539Z" fill="white"/>
</mask>
<g mask="url(#mask0_1551_14777)">
<path d="M14.538 20.533H14.0768C13.8461 18.9647 12.5085 17.7656 10.8942 17.7656C10.6175 17.7656 10.433 17.9501 10.433 18.2268C10.433 18.5035 10.6175 18.688 10.8942 18.688C12.0014 18.688 12.9237 19.4722 13.1544 20.533H6.23568C5.45152 20.533 4.85188 21.1327 4.85188 21.9168V26.0681H3.4683C3.19158 26.0681 3.0071 26.2526 3.0071 26.5293C3.0071 26.806 3.19158 26.9905 3.4683 26.9905H4.85211V28.8355L1.16187 28.8357V20.9947C1.16187 19.7031 2.17672 18.6885 3.46807 18.6885C3.74479 18.6885 3.92926 18.504 3.92926 18.2273C3.92926 17.9506 3.74479 17.7661 3.46807 17.7661C1.6693 17.7661 0.239258 19.1959 0.239258 20.9949V29.2976C0.239258 29.5744 0.423734 29.7588 0.700455 29.7588H15.4602C15.7369 29.7588 15.9214 29.5744 15.9214 29.2976L15.9219 21.9172C15.9219 21.133 15.3222 20.5334 14.5381 20.5334L14.538 20.533ZM14.9994 28.8357H5.77444V21.917C5.77444 21.6403 5.95892 21.4558 6.23564 21.4558H14.5384C14.8151 21.4558 14.9996 21.6403 14.9996 21.917L14.9994 28.8357Z" />
</g>
<mask id="mask1_1551_14777" style="mask-type:luminance" maskUnits="userSpaceOnUse" x="6" y="0" width="24" height="27">
<path d="M6.67969 0.238281H29.7598V26.0729H6.67969V0.238281Z" fill="white"/>
</mask>
<g mask="url(#mask1_1551_14777)">
<path d="M28.3762 0.238498H8.08107C7.29691 0.238498 6.69727 0.838146 6.69727 1.62231V5.31237C6.69727 5.58909 6.88174 5.77356 7.15846 5.77356C7.43518 5.77356 7.61966 5.58909 7.61966 5.31237L7.61989 1.62231C7.61989 1.34559 7.80436 1.16111 8.08109 1.16111H28.3762C28.6529 1.16111 28.8374 1.34559 28.8374 1.62231V24.6848C28.8374 24.9615 28.6529 25.146 28.3762 25.146H17.3061C17.0294 25.146 16.8449 25.3305 16.8449 25.6072C16.8449 25.8839 17.0294 26.0684 17.3061 26.0684H28.3762C29.1604 26.0684 29.76 25.4687 29.76 24.6846L29.7598 1.62209C29.7598 0.837929 29.1601 0.238281 28.3762 0.238281L28.3762 0.238498Z" />
</g>
<path d="M20.0738 10.8495C20.0738 10.7111 19.9816 10.5728 19.8893 10.4806L17.1219 8.63558C16.9835 8.54335 16.799 8.54335 16.6607 8.63558C16.476 8.68182 16.3838 8.82006 16.3838 9.00477V12.6948C16.3838 12.8793 16.476 13.0178 16.6145 13.11C16.7067 13.156 16.753 13.156 16.8452 13.156C16.9375 13.156 17.0297 13.1098 17.1219 13.0638L19.8893 11.2188C19.9816 11.1265 20.0738 10.988 20.0738 10.8495ZM17.3064 11.8182V9.83464L18.7824 10.8033L17.3064 11.8182Z" />
<path d="M23.7636 23.3025C26.0697 23.3025 27.9148 21.4575 27.9148 19.1513C27.9148 16.845 26.0698 15 23.7636 15C21.4573 15 19.6123 16.845 19.6123 19.1513C19.6123 21.4575 21.4573 23.3025 23.7636 23.3025ZM23.7636 15.9226C25.5623 15.9226 26.9924 17.3524 26.9924 19.1514C26.9924 20.9502 25.5626 22.3802 23.7636 22.3802C21.9648 22.3802 20.5347 20.9504 20.5347 19.1514C20.5347 17.3524 21.9648 15.9226 23.7636 15.9226Z" />
<path d="M22.3801 19.6144H24.0407L23.9022 19.7529C23.7177 19.9373 23.7177 20.2141 23.9022 20.3986C24.0867 20.583 24.3634 20.583 24.5479 20.3986L25.4703 19.4762C25.5625 19.3839 25.6088 19.2455 25.6088 19.1532C25.6088 19.061 25.5625 18.9225 25.4703 18.8303L24.5479 17.9079C24.3634 17.7234 24.0867 17.7234 23.9022 17.9079C23.7177 18.0924 23.7177 18.3691 23.9022 18.5536L24.0407 18.6921H22.3801C22.1034 18.6921 21.9189 18.8765 21.9189 19.1533C21.9189 19.43 22.1497 19.6145 22.3801 19.6145V19.6144Z" />
<path d="M10.3875 22.6094C9.00371 22.6094 7.85059 23.7625 7.85059 25.1463C7.85059 26.5301 9.00371 27.6832 10.3875 27.6832C11.7713 27.6832 12.9245 26.5301 12.9245 25.1463C12.9245 23.7625 11.7713 22.6094 10.3875 22.6094ZM10.3875 26.7606C9.51113 26.7606 8.7732 26.0227 8.7732 25.1463C8.7732 24.2699 9.51113 23.532 10.3875 23.532C11.2639 23.532 12.0018 24.2699 12.0018 25.1463C12.0021 26.0227 11.2639 26.7606 10.3875 26.7606Z" />
<path d="M12.8323 16.3828C12.5556 16.3828 12.3711 16.5673 12.3711 16.844C12.3711 17.1207 12.5556 17.3052 12.8323 17.3052H18.7825C19.0592 17.3052 19.2437 17.1207 19.2437 16.844C19.2437 16.5673 19.0592 16.3828 18.7825 16.3828H12.8323Z" />
<path d="M25.2855 3.46875H11.7246C10.7559 3.46875 9.92578 4.29891 9.92578 5.26752C9.92578 5.54424 10.1103 5.72872 10.387 5.72872C10.6637 5.72872 10.8482 5.54424 10.8482 5.26752C10.8482 4.80632 11.2634 4.39113 11.7246 4.39113H25.2855C25.7467 4.39113 26.1619 4.80632 26.1619 5.26752V14.3079C26.1619 14.5847 26.3464 14.7691 26.6231 14.7691C26.8998 14.7691 27.0843 14.5847 27.0843 14.3079L27.0845 5.26752C27.0845 4.29891 26.3003 3.46875 25.2855 3.46875Z" />
</g>
<defs>
<clipPath id="clip0_1551_14777">
<rect width="30" height="30" fill="white"/>
</clipPath>
</defs>
</svg>
