<svg width="30" height="30" viewBox="0 0 30 30" fill="none" xmlns="http://www.w3.org/2000/svg">
<path d="M25.9807 2.12891H14.4975C14.2613 2.12891 14.0841 2.30606 14.0841 2.54227V5.67129H10.5712C9.62664 5.67129 8.85895 6.43875 8.85895 7.38358V23.5015H5.31678C4.37219 23.5015 3.60449 24.269 3.60449 25.2138V27.4278C3.60449 27.664 3.78164 27.8412 4.01785 27.8412H15.4718C15.708 27.8412 15.8851 27.664 15.8851 27.4278V26.9259L19.4275 26.9261C20.3721 26.9261 21.1398 26.1586 21.1398 25.2138L21.1396 16.3286V16.2991C22.0842 14.8821 22.8814 13.3765 23.4717 11.8121L24.2981 9.65722C24.3572 9.48007 24.3572 9.27339 24.2981 9.12576H24.7115C25.6561 9.12576 26.4238 8.3583 26.4238 7.41348V2.54264C26.3943 2.30643 26.2171 2.12928 25.9809 2.12928L25.9807 2.12891ZM15.0881 27.0441H4.46094V25.2436C4.46094 24.7416 4.8743 24.358 5.34647 24.358H15.3244C15.1768 24.6238 15.0587 24.919 15.0587 25.2436V27.0441H15.0881ZM15.9146 25.2433C15.9146 24.7414 16.3279 24.3578 16.8001 24.3578C17.302 24.3578 17.6856 24.7712 17.6856 25.2433C17.6856 25.5681 17.7742 25.8927 17.9513 26.1288H15.9145L15.9146 25.2433ZM20.313 25.2433C20.313 25.7453 19.8996 26.1288 19.4274 26.1288C18.9255 26.1288 18.5419 25.7155 18.5419 25.2433C18.5419 24.2987 17.7744 23.531 16.8296 23.531H9.68586V7.38377C9.68586 6.88183 10.0992 6.49824 10.5714 6.49824H20.5493C20.4017 6.76398 20.2836 7.05923 20.2836 7.38377V12.6385C20.2836 12.6975 20.2836 12.727 20.3131 12.7861C19.6933 13.7307 19.1323 14.7639 18.6599 15.797C18.6008 15.738 18.5123 15.7085 18.3942 15.7085H11.2504C11.0142 15.7085 10.837 15.8856 10.837 16.1218C10.837 16.358 11.0142 16.5352 11.2504 16.5352H18.3942C18.3056 16.7419 18.2465 16.919 18.1579 17.1257L18.0103 17.5391C17.9513 17.48 17.8627 17.4505 17.7741 17.4505L11.2503 17.4503C11.0141 17.4503 10.8369 17.6274 10.8369 17.8636C10.8369 18.0998 11.0141 18.277 11.2503 18.277H17.7155L17.3907 19.192C17.3612 19.2806 17.3317 19.3987 17.3317 19.4873L15.9737 20.7271C15.9147 20.7862 15.8556 20.8748 15.8556 20.9633L15.5604 22.7935C15.5308 22.9706 15.6194 23.1182 15.767 23.2068C15.8261 23.2656 15.8851 23.2656 15.9442 23.2656C16.0328 23.2656 16.1213 23.2361 16.2099 23.1771L17.6565 21.9963C17.7155 21.9372 17.7746 21.8487 17.8041 21.7601L18.1879 19.9595C18.2765 19.93 18.3651 19.8414 18.4242 19.7823L19.8117 18.0701C19.9888 17.8634 20.1364 17.6567 20.3136 17.4503L20.313 25.2433ZM22.9403 7.38395C22.9403 7.70873 23.0289 8.03328 23.206 8.26947H21.1397V7.38395C21.1397 6.88201 21.553 6.49842 22.0252 6.49842C22.5269 6.49842 22.9403 6.88203 22.9403 7.38395ZM17.1544 20.7568L17.0068 21.4357L16.5344 21.8195L16.6229 21.1997L17.1544 20.7568ZM22.6746 11.5171C21.8481 13.7016 20.6377 15.7679 19.1617 17.5687L18.6007 18.218L18.896 17.4211C19.693 15.2366 20.9033 13.1407 22.3793 11.3695L22.9698 10.6316L22.6746 11.5171ZM21.789 10.838C21.5824 11.1038 21.3462 11.3695 21.1397 11.6645V9.12576H23.1765L21.789 10.838ZM24.6819 8.2993C24.1799 8.2993 23.7963 7.88594 23.7963 7.41377C23.7963 6.46918 23.0289 5.70148 22.0841 5.70148H14.911V2.95625H25.5382V7.38418C25.5677 7.88612 25.1543 8.29924 24.6819 8.29924L24.6819 8.2993ZM10.8368 9.21436C10.8368 8.97815 11.0139 8.80099 11.2501 8.80099H14.8516C15.0878 8.80099 15.2649 8.97815 15.2649 9.21436C15.2649 9.45057 15.0878 9.62772 14.8516 9.62772H11.2501C11.0139 9.62772 10.8368 9.45057 10.8368 9.21436ZM10.8368 10.9266C10.8368 10.6904 11.0139 10.5133 11.2501 10.5133H18.4531C18.6893 10.5133 18.8664 10.6904 18.8664 10.9266C18.8664 11.1628 18.6893 11.34 18.4531 11.34H11.2501C11.0139 11.34 10.8368 11.1628 10.8368 10.9266ZM10.8368 12.6685C10.8368 12.4323 11.0139 12.2551 11.2501 12.2551H18.4531C18.6893 12.2551 18.8664 12.4322 18.8664 12.6685C18.8664 12.9047 18.6893 13.0818 18.4531 13.0818L11.2501 13.0816C11.0139 13.0816 10.8368 12.8749 10.8368 12.6685ZM10.8368 14.41C10.8368 14.1738 11.0139 13.9967 11.2501 13.9967H18.4531C18.6893 13.9967 18.8664 14.1738 18.8664 14.41C18.8664 14.6462 18.6893 14.8234 18.4531 14.8234H11.2501C11.0139 14.8234 10.8368 14.6167 10.8368 14.41ZM15.1466 21.9376C15.1466 22.1738 14.9695 22.3509 14.7333 22.3509C14.4971 22.3509 14.3199 22.1738 14.3199 21.9376V21.8785C14.0837 21.8785 13.5229 22.1443 13.1686 22.2919C12.6077 22.5576 12.0764 22.7938 11.6631 22.7938C11.4859 22.7938 11.3383 22.7643 11.1907 22.6757C11.043 22.5871 10.8364 22.3509 10.8364 21.9378C10.8364 21.7016 11.0135 21.5244 11.2497 21.5244C11.4859 21.5244 11.6631 21.7016 11.6631 21.9378V21.9968C11.8993 21.9968 12.4601 21.7311 12.8143 21.5835C13.6113 21.2292 14.2904 20.9046 14.7921 21.1996C14.9402 21.288 15.1466 21.4947 15.1466 21.9376Z" />
</svg>
