<svg width="276" height="178" viewBox="0 0 276 178" fill="none" xmlns="http://www.w3.org/2000/svg">
<path d="M323.299 157.236C319.956 152.293 315.85 147.939 311.006 144.476C300.519 136.979 286.641 133.339 279.963 122.136C274.089 112.283 275.768 99.6243 278.705 88.4658C281.642 77.3074 285.681 65.9105 283.894 54.4969C280.947 35.6718 263.392 23.2736 246.479 15.4988C179.958 -15.0803 66.2092 -0.0861922 21.2498 57.6111C14.3116 66.515 0.0121367 84.8662 0.165283 110.139C0.225922 120.124 1.41231 130.086 5.71699 139.166C15.5394 159.886 37.6123 167.918 33.9925 194.59C32.7146 204.006 29.2055 212.92 26.5202 222.017C22.3337 236.198 16.2955 269.373 31.9644 269.373C45.6615 269.373 44.0647 269.373 60.6448 269.373C117.702 269.373 90.5363 269.884 150.958 269.373C162.023 269.28 219.108 268.804 232.933 268.804C236.565 268.804 255.164 268.804 258.814 268.804C265.098 268.804 284.61 268.863 280.981 268.714C295.581 272.545 309.133 259.554 317.251 246.488C327.119 230.604 334.114 212.301 334.045 193.446C333.998 180.663 330.339 167.646 323.299 157.236Z" fill="url(#paint0_linear_1652_17427)" fill-opacity="0.1"/>
<defs>
<linearGradient id="paint0_linear_1652_17427" x1="-61.3485" y1="387.632" x2="310.401" y2="22.7164" gradientUnits="userSpaceOnUse">
<stop stop-color="#492B9B"/>
<stop offset="0.39" stop-color="#5279CA"/>
<stop offset="0.82" stop-color="#5AC7F9"/>
</linearGradient>
</defs>
</svg>
