<svg width="30" height="30" viewBox="0 0 30 30" fill="none" xmlns="http://www.w3.org/2000/svg">
<path d="M19.5752 21.5004C19.5752 21.5668 19.5695 21.6329 19.5665 21.7023C19.5578 21.8176 19.5695 21.6647 19.5722 21.6677C19.5779 21.6734 19.5578 21.7512 19.5548 21.7657C19.5434 21.8233 19.529 21.881 19.5116 21.9357C19.5029 21.9675 19.4914 21.9961 19.4798 22.028C19.474 22.0453 19.4653 22.0655 19.4596 22.0827C19.4914 22.0106 19.4971 21.9934 19.4798 22.0337C19.4221 22.1403 19.3731 22.247 19.304 22.3479C19.2982 22.3566 19.2664 22.4084 19.2607 22.4084C19.2694 22.4084 19.3385 22.3161 19.2809 22.3825C19.2319 22.4402 19.1799 22.4949 19.128 22.5498C19.0904 22.5844 19.0531 22.6162 19.0156 22.6507C18.9176 22.7373 19.1222 22.5816 19.0126 22.6537C18.9925 22.6681 18.9723 22.6826 18.9492 22.697C18.9002 22.7288 18.8512 22.7574 18.8023 22.7835C18.7734 22.7979 18.7446 22.8123 18.7187 22.8268C18.7013 22.8355 18.6842 22.8442 18.6668 22.8499C18.6265 22.8673 18.6436 22.8613 18.7157 22.8297C18.6061 22.8412 18.491 22.9046 18.3813 22.9277C18.364 22.9307 18.2488 22.968 18.3411 22.9364C18.4303 22.9076 18.3209 22.9364 18.2978 22.9394C18.2431 22.9423 18.1911 22.9451 18.1364 22.9451H17.7011H14.8499H10.6266H6.51568H4.00189H3.80002C3.75378 22.9451 3.7048 22.9451 3.65879 22.9421C3.63293 22.9391 3.60684 22.9391 3.578 22.9364C3.44548 22.9249 3.67894 22.9565 3.59242 22.9394C3.53474 22.9279 3.47706 22.9163 3.41939 22.9018C3.35599 22.8844 3.29533 22.8643 3.23491 22.8442C3.16281 22.821 3.22621 22.8643 3.26672 22.8586C3.24658 22.8615 3.1802 22.8183 3.16304 22.8096C3.11978 22.7865 2.87465 22.6798 2.8719 22.6308C2.87488 22.6567 2.96414 22.7116 2.88335 22.6395C2.86023 22.6194 2.83436 22.5992 2.81125 22.5761C2.76501 22.5329 2.72198 22.4896 2.67872 22.4406C2.65858 22.4175 2.63844 22.3917 2.6183 22.3685C2.56062 22.3109 2.69612 22.4839 2.627 22.38C2.59519 22.331 2.5636 22.2848 2.53476 22.2358C2.50592 22.1868 2.48006 22.1348 2.45397 22.0859C2.45099 22.0801 2.42215 22.0282 2.42215 22.0167C2.45397 22.0946 2.45969 22.106 2.43657 22.0486C2.43085 22.0312 2.42215 22.011 2.41643 21.9939C2.39903 21.9392 2.38187 21.8815 2.36745 21.8265C2.36173 21.8007 2.35601 21.7746 2.35005 21.7487C2.34708 21.7373 2.34433 21.7229 2.34136 21.7112C2.32991 21.6478 2.33266 21.6592 2.34433 21.7457C2.31252 21.7139 2.32991 21.5469 2.32991 21.5036V21.4603V19.2983V15.2279V11.0737V8.66082V8.48779C2.33289 8.42736 2.34433 8.36671 2.34433 8.30903C2.34731 8.43308 2.33289 8.38685 2.34136 8.34359C2.35005 8.30605 2.35577 8.26577 2.36447 8.22823C2.37592 8.17925 2.39034 8.12729 2.40773 8.07831C2.41643 8.0465 2.43085 8.01789 2.43955 7.98608C2.45397 7.94579 2.44824 7.96296 2.41643 8.03506C2.42787 8.01194 2.43657 7.98882 2.44824 7.96593C2.49723 7.86225 2.55788 7.76704 2.62128 7.67182C2.6817 7.57958 2.59816 7.69768 2.59816 7.69768C2.59816 7.68327 2.64714 7.63726 2.65858 7.62559C2.70482 7.57363 2.7538 7.52465 2.80278 7.47567C2.82017 7.45827 2.84031 7.44111 2.86045 7.42669C2.8719 7.41524 2.97009 7.35185 2.88929 7.40082C2.81445 7.44706 2.96139 7.35184 2.98726 7.33742C3.04196 7.30286 3.09689 7.27105 3.15159 7.24519C3.17471 7.23374 3.19783 7.22207 3.22072 7.21337C3.33882 7.15569 3.09964 7.25366 3.22369 7.21337C3.33608 7.17584 3.44571 7.147 3.56106 7.12113C3.69358 7.09229 3.42854 7.12983 3.56404 7.12113C3.5899 7.11816 3.616 7.11541 3.64483 7.11541C3.68512 7.11244 3.72563 7.11244 3.76591 7.11244H3.88997H6.17307H10.1975H14.4872H17.5256H18.1079C18.1683 7.11244 18.226 7.11541 18.2866 7.11816C18.2896 7.11816 18.3587 7.11816 18.3674 7.12686C18.3272 7.08932 18.2551 7.10946 18.35 7.12686C18.4077 7.1383 18.4654 7.14997 18.5201 7.16714C18.5375 7.17286 18.6989 7.2104 18.7046 7.22756C18.7046 7.22756 18.5721 7.16416 18.6728 7.21314C18.7073 7.23054 18.7419 7.24496 18.7764 7.2651C18.8311 7.29394 18.8861 7.32552 18.9408 7.36031C18.9609 7.37473 18.9811 7.38915 19.0042 7.40357C19.1079 7.47269 18.9351 7.3372 18.9927 7.39487C19.0763 7.48139 19.1715 7.55349 19.2493 7.64573C19.258 7.65442 19.2667 7.66587 19.2724 7.67456C19.31 7.72355 19.3042 7.71485 19.2523 7.6487C19.258 7.6487 19.2985 7.7121 19.2955 7.70912C19.3274 7.75536 19.3589 7.80434 19.3848 7.85332C19.4136 7.9023 19.4368 7.95426 19.4626 8.00621C19.5203 8.12157 19.4308 7.91397 19.4569 7.99179C19.4683 8.02933 19.4828 8.06389 19.4944 8.10143C19.5118 8.15613 19.5263 8.21381 19.5407 8.27148C19.5464 8.3033 19.5521 8.33488 19.5581 8.3667C19.5755 8.45024 19.5466 8.21678 19.5551 8.35228C19.5581 8.4214 19.5638 8.48778 19.5638 8.5569V8.60313V8.8684V9.97823V13.7605V18.0761V21.0799C19.5752 21.212 19.5752 21.3562 19.5752 21.5004C19.5752 21.803 19.8405 22.0914 20.1518 22.0769C20.4631 22.0625 20.7283 21.8233 20.7283 21.5004V19.7332V15.7406V11.4279V8.74681C20.7283 8.23366 20.6535 7.73789 20.3997 7.27945C19.9442 6.45205 19.0477 5.9533 18.1106 5.95054C17.462 5.94757 16.8133 5.95054 16.1647 5.95054H12.2153H7.82468H4.55855H3.83503C3.04812 5.95054 2.27843 6.27349 1.77968 6.89331C1.36174 7.41219 1.18296 8.01761 1.18296 8.67767V9.60005V13.2411V17.6432V20.8949C1.18296 21.0938 1.17999 21.2927 1.18296 21.4889C1.19166 22.5901 1.87191 23.5385 2.89249 23.9336C3.25573 24.0748 3.6391 24.0922 4.02247 24.0922H5.02865H8.63216H13.0573H16.7501H17.8224C18.1337 24.0922 18.4336 24.0922 18.742 24.0201C19.9009 23.7521 20.7168 22.6738 20.7283 21.4976C20.7312 21.195 20.4602 20.9066 20.1517 20.9211C19.8375 20.9382 19.5782 21.1774 19.5752 21.5004Z" />
<path d="M28.0883 7.57486C27.1716 7.95824 26.2547 8.33887 25.338 8.72225C23.888 9.32465 22.4408 9.93004 20.9906 10.5327C20.6592 10.6712 20.3276 10.8094 19.9989 10.9449C19.7597 11.0458 19.5752 11.2246 19.5752 11.5013V13.8739V17.6706V18.5383C19.5752 18.818 19.7597 18.9938 19.9989 19.0947C20.9156 19.4781 21.8324 19.8587 22.7491 20.2421C24.1991 20.8445 25.6463 21.4499 27.0965 22.0525C27.4279 22.191 27.7595 22.3292 28.0883 22.4647C28.4428 22.6117 28.8177 22.2457 28.8177 21.9083V20.5362V17.2439V13.2628V9.82062C28.8177 9.2642 28.8321 8.7078 28.8177 8.1514V8.12828C28.8177 7.8257 28.5524 7.5373 28.2411 7.55173C27.9299 7.56615 27.6646 7.80533 27.6646 8.12828V9.50043V12.7927V16.7738V20.216C27.6646 20.7694 27.6415 21.3316 27.6646 21.8852V21.9083C27.9067 21.7239 28.1519 21.5364 28.394 21.3519C27.4773 20.9685 26.5604 20.5879 25.6437 20.2045C24.1938 19.6021 22.7466 18.9967 21.2964 18.3941C20.965 18.2556 20.6333 18.1174 20.3046 17.9819C20.4458 18.1664 20.5871 18.3538 20.7283 18.5383V16.1657V12.369V11.5013C20.5871 11.6858 20.4458 11.8732 20.3046 12.0577C21.2213 11.6743 22.1382 11.2937 23.0549 10.9103C24.5049 10.3079 25.9521 9.70254 27.4023 9.09991C27.7337 8.96143 28.0653 8.82318 28.394 8.68769C28.5382 8.62726 28.6563 8.56363 28.7399 8.42242C28.812 8.29836 28.8435 8.11686 28.7975 7.97839C28.711 7.71037 28.3881 7.45081 28.0883 7.57486Z" />
<path d="M11.0364 14.6124C11.0352 14.5037 10.9767 14.4038 10.8827 14.3495L9.65266 13.6115V13.6115C9.60591 13.5845 9.55287 13.5703 9.49891 13.5703C9.44489 13.5703 9.39191 13.5845 9.34516 13.6115C9.29824 13.6386 9.25927 13.6776 9.23227 13.7246C9.20526 13.7716 9.19118 13.8248 9.19141 13.879V15.355C9.19118 15.4092 9.20526 15.4625 9.23227 15.5094C9.25927 15.5564 9.29824 15.5954 9.34516 15.6225C9.39168 15.6499 9.44495 15.6637 9.49891 15.6625C9.55304 15.6619 9.60608 15.6471 9.65266 15.6195L10.8827 14.8814C10.9298 14.8542 10.9689 14.8149 10.9959 14.7677C11.0229 14.7204 11.0369 14.6668 11.0364 14.6124L11.0364 14.6124ZM9.80641 14.8076V14.4171L10.1308 14.6124L9.80641 14.8076Z" />
<path d="M12.7279 14.6137C12.7279 13.9205 12.4526 13.2557 11.9624 12.7656C11.4722 12.2754 10.8074 12 10.1142 12C10.0043 12 9.9028 12.0586 9.84787 12.1537C9.79293 12.2489 9.79293 12.3661 9.84787 12.4612C9.9028 12.5564 10.0043 12.615 10.1142 12.615C10.8282 12.615 11.4881 12.996 11.8452 13.6144C12.2022 14.2328 12.2022 14.9947 11.8452 15.6131C11.4881 16.2316 10.8283 16.6126 10.1142 16.6126C10.0327 16.6129 9.95476 16.6455 9.89736 16.7033C9.87951 16.7202 9.86446 16.74 9.85279 16.7617C9.80495 16.835 9.79362 16.9264 9.822 17.0092C9.84106 17.072 9.87968 17.1271 9.93221 17.1663C9.98479 17.2056 10.0485 17.227 10.1142 17.2276C10.8073 17.2276 11.4722 16.9522 11.9624 16.462C12.4526 15.9718 12.7279 15.307 12.7279 14.6138L12.7279 14.6137Z" />
<path d="M8.68124 16.0071C8.60434 15.9282 8.49121 15.8964 8.38449 15.9236C8.27778 15.9508 8.19367 16.0329 8.16386 16.1388C8.13405 16.2449 8.16306 16.3587 8.23996 16.4375C8.29764 16.4972 8.37689 16.531 8.45987 16.5313C8.54066 16.531 8.61808 16.4989 8.67542 16.4419C8.7327 16.3849 8.76531 16.3077 8.76611 16.2269C8.76691 16.1461 8.7359 16.0682 8.67971 16.0101L8.68124 16.0071Z" />
<path d="M8.25019 15.3408C8.20853 15.2415 8.11784 15.1712 8.01124 15.1556C7.9047 15.14 7.7977 15.1813 7.7292 15.2645C7.66077 15.3477 7.64086 15.4606 7.67673 15.5623C7.69893 15.6198 7.7379 15.6693 7.78866 15.7044C7.83935 15.7395 7.89949 15.7585 7.96117 15.759C7.99905 15.7588 8.03659 15.7514 8.07183 15.7375C8.14811 15.7086 8.20974 15.6505 8.24321 15.5761C8.27662 15.5017 8.2792 15.4171 8.25019 15.3408Z" />
<path d="M9.3361 16.454C9.23476 16.4111 9.11826 16.4256 9.03049 16.492C8.94271 16.5583 8.89699 16.6665 8.91056 16.7756C8.92417 16.8848 8.99496 16.9785 9.0963 17.0213C9.13423 17.0375 9.17498 17.0459 9.21623 17.0459C9.31231 17.0469 9.40329 17.0029 9.46222 16.927C9.52116 16.8512 9.54119 16.7521 9.51647 16.6593C9.49175 16.5664 9.42503 16.4905 9.33612 16.454L9.3361 16.454Z" />
<path d="M9.27755 12.7713C9.31537 12.7714 9.35291 12.7647 9.38827 12.7513C9.48474 12.7147 9.55639 12.6322 9.57916 12.5316C9.60187 12.431 9.57269 12.3256 9.50134 12.2511C9.43004 12.1766 9.32607 12.1428 9.22455 12.1612C9.12304 12.1795 9.03749 12.2475 8.9967 12.3422C8.95596 12.437 8.9654 12.5458 9.02193 12.6321C9.07841 12.7185 9.17442 12.7707 9.27753 12.7712L9.27755 12.7713Z" />
<path d="M7.86865 14.0006C7.90671 14.0163 7.94739 14.0246 7.98853 14.0252C8.09113 14.0254 8.18703 13.9744 8.24425 13.8894C8.30153 13.8043 8.31257 13.6962 8.27377 13.6013C8.23498 13.5064 8.15138 13.4371 8.05096 13.4164C7.95048 13.3958 7.84633 13.4267 7.77332 13.4987C7.70025 13.5706 7.66792 13.6743 7.68704 13.775C7.70621 13.8758 7.7743 13.9604 7.86865 14.0006Z" />
<path d="M8.29158 12.7368C8.23431 12.7944 8.20215 12.8724 8.20215 12.9536C8.20215 13.0348 8.23431 13.1128 8.29158 13.1704C8.34921 13.23 8.42851 13.2638 8.51143 13.2642C8.59165 13.2646 8.6689 13.2337 8.72669 13.1781C8.80577 13.1014 8.83798 12.9884 8.8112 12.8816C8.78437 12.7748 8.7026 12.6904 8.59668 12.6602C8.49076 12.6301 8.37683 12.6587 8.2977 12.7353L8.29158 12.7368Z" />
<path d="M8.11501 14.6122C8.11501 14.5307 8.08263 14.4524 8.02495 14.3948C7.96727 14.3371 7.88905 14.3047 7.80751 14.3047C7.72596 14.3047 7.64775 14.3371 7.59006 14.3948C7.53238 14.4524 7.5 14.5306 7.5 14.6122C7.5 14.6937 7.53239 14.7719 7.59006 14.8296C7.64774 14.8873 7.72596 14.9197 7.80751 14.9197C7.88905 14.9197 7.96726 14.8873 8.02495 14.8296C8.08263 14.772 8.11501 14.6937 8.11501 14.6122Z" />
</svg>
