<svg width="25" height="26" viewBox="0 0 25 26" fill="none" xmlns="http://www.w3.org/2000/svg">
<g clip-path="url(#clip0_2024_27007)">
<path d="M5.44224 16.7223C3.81462 16.7311 2.49738 18.0627 2.50617 19.6903C2.51495 21.3179 3.84649 22.6351 5.4741 22.6264C7.10172 22.6176 8.41896 21.286 8.41018 19.6584C8.40139 18.0308 7.07004 16.7136 5.44224 16.7223ZM5.47012 21.8884C4.24918 21.895 3.25089 20.9073 3.2443 19.6864C3.23771 18.4655 4.22533 17.4672 5.44622 17.4606C6.66711 17.454 7.66546 18.4417 7.67205 19.6625C7.67882 20.8835 6.6912 21.8818 5.47012 21.8884Z" />
<path d="M5.45059 18.1991C4.63652 18.2035 3.97818 18.8689 3.98258 19.683C3.98697 20.4971 4.65245 21.1554 5.46652 21.151C6.28059 21.1466 6.93893 20.4811 6.93453 19.6671C6.93014 18.853 6.26465 18.1947 5.45059 18.1991ZM5.46254 20.4129C5.0555 20.4151 4.72285 20.0859 4.72066 19.679C4.71846 19.272 5.04773 18.9393 5.45457 18.9371C5.86161 18.935 6.19425 19.2642 6.19645 19.6711C6.19883 20.0781 5.86956 20.4107 5.46254 20.4129Z" />
<path d="M10.992 19.2753L10.2542 19.2793L10.2488 18.2801L9.57366 18.0457C9.55046 17.988 9.52616 17.9301 9.50039 17.8723L9.80544 17.2256L7.85998 15.301L7.21656 15.613C7.15892 15.5879 7.10075 15.5638 7.0424 15.5416L6.80147 14.8698L5.8023 14.8752L5.79831 14.1373L8.01219 14.1254L8.00024 11.9115L19.8083 11.8478C21.843 11.8368 23.4893 10.1726 23.4783 8.13797C23.4673 6.10315 21.8032 4.45663 19.7685 4.46761C19.2474 4.47042 18.7315 4.58508 18.2582 4.80114C17.5557 3.90239 16.4857 3.37824 15.3346 3.38445C14.5412 3.38873 13.7825 3.64515 13.154 4.11473C12.2256 2.54847 10.5187 1.56541 8.68251 1.57533C6.10991 1.58921 3.94542 3.51787 3.59805 6.03158C3.57882 6.03095 3.55959 6.03106 3.54037 6.03116C1.91275 6.03995 0.595509 7.37148 0.604294 8.9991C0.611582 10.3493 1.54992 11.5187 2.83359 11.8439L2.84623 14.153L5.06011 14.1411L5.06409 14.879L4.06492 14.8844L3.83052 15.5595C3.77278 15.5827 3.71487 15.607 3.65715 15.6327L3.01115 15.3279L1.08658 17.2733L1.39858 17.9167C1.37344 17.9744 1.3494 18.0326 1.32719 18.0909L0.654655 18.3317L0.669423 21.0678L1.34453 21.3022C1.36773 21.3599 1.39203 21.4178 1.41779 21.4755L1.11274 22.1219L3.05821 24.0465L3.70163 23.7345C3.75926 23.7596 3.81743 23.7836 3.87578 23.8059L4.11672 24.4784L6.85282 24.4636L7.08721 23.7885C7.14495 23.7653 7.20287 23.741 7.26059 23.7153L7.90734 24.0203L9.83191 22.0748L9.5199 21.4314C9.54504 21.3738 9.56908 21.3156 9.59129 21.2573L10.2633 21.0163L10.2579 20.0172L10.9958 20.0132L11.0197 24.4412L23.5656 24.3734L23.502 12.5653L10.9561 12.6331L10.992 19.2753ZM1.34252 8.99503C1.33593 7.7741 2.32355 6.7758 3.54444 6.76921C3.64405 6.76867 3.7492 6.7769 3.87564 6.79507L4.2711 6.85227L4.2966 6.45368C4.44508 4.14426 6.37327 2.32585 8.68642 2.31337C10.3961 2.30414 11.9752 3.29998 12.7098 4.85116L12.9304 5.31671L13.3 4.95784C13.851 4.4231 14.5749 4.1266 15.3384 4.12248C16.3488 4.11703 17.281 4.6227 17.8325 5.47535L18.0223 5.76876L18.3259 5.59518C18.7664 5.34305 19.2665 5.20833 19.7724 5.2056C21.4 5.19681 22.7315 6.51405 22.7403 8.14167C22.7491 9.76928 21.4319 11.1008 19.8042 11.1096L7.99613 11.1732L7.98418 8.95928L2.81816 8.98716L2.82941 11.072C1.96316 10.7689 1.34729 9.94199 1.34218 8.99513L1.34252 8.99503ZM3.56037 9.72098L7.25027 9.70107L7.27019 13.391L3.58029 13.4111L3.56037 9.72098ZM9.52253 20.4979L9.00991 20.6817L8.95296 20.851C8.90538 20.9927 8.84682 21.1354 8.77891 21.2751L8.70123 21.4361L8.93935 21.9271L7.74958 23.1297L7.25613 22.8969L7.09597 22.9764C6.95681 23.0458 6.81468 23.1055 6.67377 23.155L6.50508 23.2137L6.32658 23.7285L4.6347 23.7376L4.45084 23.225L4.28152 23.1681C4.1399 23.1205 3.99713 23.0619 3.85742 22.994L3.69641 22.9163L3.2055 23.1545L2.00281 21.9647L2.23563 21.4712L2.15621 21.3111C2.08698 21.1719 2.02706 21.0302 1.9776 20.8887L1.91882 20.72L1.40462 20.5417L1.39549 18.8498L1.90811 18.6659L1.96506 18.4966C2.01263 18.355 2.07119 18.2122 2.1391 18.0725L2.21679 17.9115L1.97866 17.4206L3.16844 16.2179L3.66189 16.4507L3.82205 16.3713C3.96121 16.3019 4.10334 16.2422 4.24425 16.1927L4.41294 16.1339L4.59126 15.6195L6.28314 15.6104L6.467 16.123L6.63632 16.18C6.77793 16.2276 6.92071 16.2861 7.06042 16.354L7.22142 16.4317L7.71233 16.1936L8.91502 17.3834L8.68221 17.8768L8.76163 18.037C8.83104 18.1761 8.89078 18.3183 8.94024 18.4592L8.99901 18.6279L9.51341 18.8064L9.52253 20.4979ZM11.698 13.3671L22.7678 13.3074L22.8236 23.6394L11.7537 23.6992L11.698 13.3671Z" />
<path d="M12.4713 20.0054L22.0651 19.9536L22.0332 14.0498L12.4395 14.1016L12.4713 20.0054ZM19.0999 17.4737L19.6906 16.2764L19.8316 16.2757L19.8475 19.2277L19.1096 19.2316L19.0999 17.4737ZM18.3715 19.2356L17.6336 19.2396L17.6257 17.7636L18.3636 17.7596L18.3715 19.2356ZM16.8956 19.2436L16.1577 19.2476L16.1497 17.7716L16.8876 17.7676L16.8956 19.2436ZM15.4196 19.2516L14.6817 19.2555L14.6737 17.7796L15.4116 17.7756L15.4196 19.2516ZM13.9436 19.2595L13.5259 19.2618L13.9402 18.6333L13.9436 19.2595ZM20.5857 19.2237L20.5698 16.2717L21.3077 16.2677L21.3236 19.2197L20.5857 19.2237ZM21.2999 14.7917L21.3039 15.5296L19.2307 15.5408L18.5008 17.0207L14.1034 17.0445L13.2012 18.4137L13.1818 14.8355L21.2999 14.7917Z" />
<path d="M12.4766 20.7441L13.2145 20.7402L13.2184 21.4781L12.4805 21.482L12.4766 20.7441Z" />
<path d="M13.9531 20.7363L22.0708 20.6925L22.0748 21.4304L13.9571 21.4742L13.9531 20.7363Z" />
<path d="M12.4844 22.2188L22.0781 22.167L22.0821 22.9049L12.4884 22.9566L12.4844 22.2188Z" />
<path d="M4.30273 10.4551L6.51661 10.4431L6.52059 11.181L4.30672 11.193L4.30273 10.4551Z" />
<path d="M4.31055 11.9316L6.52442 11.9197L6.5284 12.6576L4.31453 12.6695L4.31055 11.9316Z" />
<path d="M12.7772 8.12848L12.7895 10.4103L13.5274 10.4063L13.5151 8.1245C13.9427 7.96948 14.25 7.56187 14.2474 7.08141C14.2441 6.4711 13.7446 5.97706 13.1344 5.98035C12.5241 5.98365 12.03 6.4831 12.0333 7.09336C12.0363 7.57382 12.3479 7.97789 12.7772 8.12848ZM13.1386 6.71843C13.3418 6.71734 13.5084 6.88215 13.5095 7.0854C13.5106 7.28864 13.3458 7.45524 13.1425 7.45634C12.9393 7.45744 12.7727 7.29262 12.7716 7.08938C12.7705 6.88595 12.9353 6.71953 13.1386 6.71843Z" />
<path d="M9.83343 9.62014L9.83778 10.426L10.5757 10.422L10.5713 9.61616C10.999 9.46114 11.3062 9.05353 11.3036 8.57306C11.301 8.0926 10.9892 7.68834 10.5601 7.53794L10.552 5.99399L9.81407 5.99797L9.8224 7.54192C9.39476 7.69694 9.08752 8.10455 9.09011 8.58501C9.09252 9.06547 9.40416 9.46955 9.83343 9.62014ZM10.1948 8.21009C10.398 8.20899 10.5646 8.37381 10.5657 8.57705C10.5668 8.78029 10.402 8.9469 10.1988 8.94799C9.99553 8.94909 9.82892 8.78428 9.82782 8.58103C9.82673 8.37761 9.99154 8.21119 10.1948 8.21009Z" />
<path d="M16.1112 10.3908C16.7215 10.3875 17.2156 9.88801 17.2123 9.27775C17.2097 8.79729 16.8979 8.39303 16.4688 8.24263L16.4563 5.96078L15.7184 5.96477L15.7307 8.24661C15.303 8.40163 14.9958 8.80924 14.9984 9.2897C15.0017 9.90001 15.501 10.3941 16.1112 10.3908ZM16.1032 8.91478C16.3065 8.91368 16.4731 9.0785 16.4742 9.28174C16.4753 9.48498 16.3105 9.65159 16.1072 9.65268C15.904 9.65378 15.7374 9.48897 15.7363 9.28572C15.7352 9.08248 15.9 8.91588 16.1032 8.91478Z" />
<path d="M8.69388 3.79043L8.6899 3.05235C6.65527 3.06333 5.00893 4.72749 5.01992 6.76217L5.75781 6.75818C5.74921 5.13057 7.06627 3.79922 8.69388 3.79043Z" />
<path d="M22.0029 8.14625L21.265 8.15024C21.2694 8.9643 20.6111 9.62979 19.797 9.63418L19.801 10.3721C21.0219 10.3655 22.0095 9.36714 22.0029 8.14625Z" />
</g>
<defs>
<clipPath id="clip0_2024_27007">
<rect width="24" height="24" fill="white" transform="translate(0 1.0625) rotate(-0.309239)"/>
</clipPath>
</defs>
</svg>
