<svg width="25" height="26" viewBox="0 0 25 26" fill="none" xmlns="http://www.w3.org/2000/svg">
<path fill-rule="evenodd" clip-rule="evenodd" d="M9.5397 10.9129C9.80232 11.0915 9.87073 11.4502 9.69197 11.7132C9.51339 11.9758 9.15506 12.0446 8.89206 11.8658C8.62907 11.6872 8.56066 11.3285 8.73942 11.0655C8.91799 10.8025 9.2767 10.7341 9.5397 10.9129Z" />
<path fill-rule="evenodd" clip-rule="evenodd" d="M10.3751 13.819L11.2444 14.4096C11.2918 14.4418 11.3461 14.4625 11.4027 14.4701L12.0461 14.5563L12.7184 15.0132L13.0354 15.5793C13.1129 15.7181 13.2706 15.7914 13.4264 15.7618L14.0436 15.644L14.3766 16.4629C14.4163 16.5609 14.4963 16.6371 14.5961 16.6721C14.6963 16.7073 14.8063 16.6979 14.8985 16.6461L16.8248 15.5679C16.9367 15.5052 17.0077 15.3898 17.0132 15.262C17.0188 15.134 16.9581 15.0125 16.852 14.9408L13.935 12.9582C13.7665 12.8436 13.5369 12.8877 13.4223 13.0559C13.3077 13.2244 13.3518 13.4539 13.5199 13.5686L15.9437 15.2154L14.9029 15.7978L14.6138 15.0861C14.5475 14.923 14.3754 14.8294 14.2026 14.8626L13.5494 14.9871L13.3199 14.5769C13.292 14.5273 13.253 14.4843 13.2056 14.4521L12.3888 13.8971C12.3414 13.865 12.2871 13.8442 12.2305 13.8366L11.5871 13.7504L11.0797 13.4056C11.235 13.2727 11.3752 13.1176 11.4956 12.9406C11.6157 12.7636 11.7084 12.576 11.7746 12.3826L12.5939 12.9395C12.7624 13.0541 12.992 13.0104 13.1066 12.8418C13.2212 12.6733 13.1771 12.4438 13.009 12.3291L11.9001 11.5758C11.8844 10.8431 11.5262 10.1283 10.8743 9.68543L10.8743 9.68506C9.80436 8.9584 8.34573 9.23673 7.61856 10.3063C6.8919 11.3763 7.17022 12.8349 8.23984 13.5621C8.8917 14.005 9.68807 14.0745 10.3752 13.8196L10.3751 13.819ZM10.4593 10.2954C11.1922 10.7933 11.3829 11.7926 10.8846 12.5256C10.3867 13.2585 9.38739 13.4492 8.65447 12.9509C7.92155 12.4529 7.73086 11.4536 8.22916 10.7207C8.7271 9.98779 9.7264 9.7971 10.4593 10.2954Z" />
<path fill-rule="evenodd" clip-rule="evenodd" d="M20.5713 4.83372L18.2942 4.84601C18.1965 4.84653 18.1025 4.88586 18.0339 4.95545L17.4111 5.58502C17.2676 5.73008 17.2688 5.96372 17.4139 6.10687C17.5586 6.25038 17.7922 6.24912 17.9357 6.10405L18.451 5.58325L20.5753 5.57178C20.7296 6.00089 21.1416 6.30665 21.6232 6.30405C22.2342 6.30075 22.7275 5.80223 22.7242 5.19104C22.7209 4.58003 22.2224 4.08669 21.6112 4.08998C21.1297 4.09258 20.721 4.40296 20.5713 4.83351L20.5713 4.83372ZM21.6152 4.82808C21.8188 4.82698 21.985 4.99143 21.9861 5.19504C21.9872 5.39866 21.8228 5.56489 21.6192 5.56599C21.4156 5.56709 21.2493 5.40264 21.2482 5.19903C21.2471 4.99541 21.4116 4.82918 21.6152 4.82808Z" />
<path fill-rule="evenodd" clip-rule="evenodd" d="M16.7547 7.29739L17.0905 6.95793C17.2336 6.81324 17.2324 6.57923 17.0877 6.43608C16.943 6.29294 16.709 6.2942 16.5658 6.4389L16.1551 6.85366C15.9585 6.72306 15.7537 6.60075 15.5414 6.48727C13.0375 5.15021 10.1055 5.40514 7.90897 6.89816L6.00988 5.01984C5.94048 4.95081 5.84616 4.91269 5.74838 4.91322L3.47132 4.92551C3.31702 4.4964 2.90503 4.19064 2.42345 4.19324C1.81244 4.19654 1.31909 4.69506 1.32239 5.30625C1.32569 5.91726 1.8242 6.4106 2.4354 6.40731C2.91694 6.40471 3.32561 6.09433 3.47531 5.66378L5.59965 5.65231L7.31428 7.34853C6.61376 7.93681 6.01215 8.6655 5.55518 9.52111C5.45657 9.70585 5.36676 9.89255 5.2852 10.082L3.56238 10.0913C3.35877 10.0924 3.19432 10.2586 3.19542 10.4622C3.19652 10.6658 3.36275 10.8303 3.56636 10.8292L5.01215 10.8214C4.82427 11.4294 4.71886 12.05 4.69179 12.6681L3.57633 12.6741C3.37271 12.6752 3.20827 12.8414 3.20936 13.0451C3.21046 13.2487 3.3767 13.4131 3.58031 13.412L4.69648 13.406C4.73228 14.0338 4.84787 14.6536 5.03858 15.2491L3.59026 15.2569C3.38665 15.258 3.2222 15.4243 3.2233 15.6279C3.2244 15.8315 3.39063 15.9959 3.59424 15.9948L5.31852 15.9855C5.77509 17.0189 6.47009 17.9532 7.37552 18.6969L5.6793 20.4115L3.55496 20.423C3.40066 19.9939 2.98867 19.6881 2.50708 19.6907C1.89607 19.694 1.40273 20.1925 1.40603 20.8037C1.40932 21.4147 1.90784 21.9081 2.51903 21.9048C3.00057 21.9022 3.40925 21.5918 3.55894 21.1612L5.836 21.149C5.93378 21.1484 6.02768 21.1091 6.09634 21.0395L7.97504 19.1408C8.17167 19.2714 8.3765 19.3937 8.58879 19.5072C8.76821 19.6033 8.99233 19.5352 9.08804 19.3554C9.18412 19.176 9.11608 18.9519 8.9363 18.8562C5.70301 17.1294 4.47933 13.1019 6.20617 9.86845C7.93301 6.63516 11.9605 5.41149 15.1939 7.13833C18.4272 8.86517 19.6509 12.8926 17.924 16.1261C16.5462 18.7058 13.704 20.006 10.9688 19.5496C10.768 19.5161 10.5775 19.6517 10.5442 19.8526C10.5107 20.0534 10.6463 20.2439 10.8471 20.2776C12.7315 20.5921 14.6617 20.1563 16.2207 19.0961L18.1198 20.9744C18.1892 21.0435 18.2835 21.0816 18.3813 21.081L20.6583 21.0688C20.8126 21.4979 21.2246 21.8036 21.7062 21.801C22.3172 21.7977 22.8106 21.2992 22.8073 20.688C22.804 20.077 22.3055 19.5837 21.6943 19.587C21.2127 19.5896 20.804 19.8999 20.6543 20.3305L18.53 20.342L16.8154 18.6457C17.5155 18.0578 18.1175 17.3288 18.5745 16.4732C18.6731 16.2884 18.7629 16.1017 18.8445 15.9123L20.5673 15.903C20.7709 15.9019 20.9353 15.7357 20.9342 15.532C20.9331 15.3284 20.7669 15.164 20.5633 15.1651L19.1175 15.1729C19.3054 14.5649 19.4108 13.9443 19.4379 13.3262L20.5533 13.3202C20.7569 13.3191 20.9214 13.1528 20.9203 12.9492C20.9192 12.7456 20.753 12.5812 20.5493 12.5823L19.4332 12.5883C19.3974 11.9604 19.2818 11.3407 19.0911 10.7451L20.5394 10.7373C20.743 10.7362 20.9075 10.57 20.9064 10.3664C20.9053 10.1628 20.739 9.99832 20.5354 9.99942L18.8111 10.0087C18.3546 8.97533 17.6596 8.04105 16.7541 7.29738L16.7547 7.29739ZM21.7026 21.0634C21.499 21.0645 21.3328 20.9 21.3317 20.6964C21.3306 20.4928 21.495 20.3266 21.6987 20.3255C21.9023 20.3244 22.0685 20.4888 22.0696 20.6924C22.0707 20.8961 21.9062 21.0623 21.7026 21.0634ZM2.5151 21.1669C2.31149 21.168 2.14526 21.0036 2.14416 20.8C2.14306 20.5964 2.30751 20.4301 2.51112 20.429C2.71473 20.4279 2.88096 20.5924 2.88206 20.796C2.88316 20.9996 2.71871 21.1659 2.5151 21.1669ZM2.42747 4.93109C2.63108 4.92999 2.79732 5.09444 2.79841 5.29805C2.79951 5.50167 2.63507 5.6679 2.43145 5.669C2.22784 5.6701 2.06161 5.50565 2.06051 5.30204C2.05941 5.09842 2.22386 4.93219 2.42747 4.93109Z" />
<path fill-rule="evenodd" clip-rule="evenodd" d="M10.1833 19.6345C10.1844 19.8383 10.0201 20.0045 9.8163 20.0056C9.6125 20.0067 9.44645 19.8423 9.44535 19.6385C9.44425 19.4347 9.60852 19.2686 9.81231 19.2675C10.0161 19.2664 10.1822 19.4307 10.1833 19.6345Z" />
</svg>
