<svg width="30" height="30" viewBox="0 0 25 26" fill="none" xmlns="http://www.w3.org/2000/svg">
<path fill-rule="evenodd" clip-rule="evenodd" d="M16.1221 5.23147L2.4296 5.30537C1.81822 5.30867 1.32525 5.80681 1.32855 6.41838L1.40024 19.7021C1.40354 20.3135 1.90168 20.8064 2.51325 20.8031L21.7008 20.6996C22.3122 20.6963 22.8051 20.1982 22.8018 19.5866L22.7301 6.30287C22.7268 5.69149 22.2287 5.19851 21.6171 5.20181L20.3828 5.20847L20.752 4.56067C20.8733 4.34816 20.9047 4.09604 20.8405 3.86016C20.7757 3.62393 20.62 3.42335 20.4075 3.30237C19.9493 3.04099 19.2631 2.6499 18.8048 2.38851C18.5923 2.26716 18.3402 2.23574 18.1043 2.3C17.868 2.36482 17.6675 2.52044 17.5465 2.73295L16.1221 5.23147ZM13.5891 9.67325L14.0114 8.93306L2.08 8.99745L2.13776 19.6984C2.13886 19.902 2.30509 20.0665 2.5087 20.0654L21.6962 19.9618C21.8998 19.9607 22.0643 19.7945 22.0632 19.5908L22.0054 8.88991L18.2716 8.91006L17.8493 9.65026L19.611 9.64075C20.1205 9.638 20.5357 10.0487 20.5384 10.5583L20.5803 18.3071C20.583 18.8166 20.1723 19.2318 19.6627 19.2345L3.98047 19.3192C3.82173 19.32 3.68001 19.2193 3.62902 19.0687C3.57804 18.9185 3.62914 18.7521 3.75552 18.6562L5.07856 17.6528L5.04072 10.6418C5.0394 10.3972 5.13517 10.1619 5.30727 9.98796C5.47937 9.81399 5.71358 9.71568 5.95821 9.71436L13.5891 9.67325ZM11.5044 13.7437L6.90306 13.7685C6.69945 13.7696 6.53322 13.6051 6.53212 13.4015C6.53102 13.1979 6.69547 13.0317 6.89908 13.0306L11.6896 13.0047L12.3227 11.8943L6.89278 11.9236C6.68917 11.9247 6.52294 11.7602 6.52184 11.5566C6.52074 11.353 6.68518 11.1868 6.8888 11.1857L12.7448 11.154L13.1671 10.4139L5.96251 10.4527C5.91343 10.453 5.86666 10.4728 5.83224 10.5073C5.79819 10.5421 5.77885 10.589 5.77912 10.6381L5.81795 17.8333C5.81858 17.9496 5.7646 18.059 5.67196 18.1293L5.08402 18.5752L19.6596 18.4965C19.7614 18.496 19.8437 18.413 19.8432 18.311L19.8013 10.5622C19.8008 10.4604 19.7178 10.3781 19.6158 10.3786L17.4284 10.3904L17.0061 11.1306L18.6973 11.1215C18.9009 11.1204 19.0671 11.2848 19.0682 11.4884C19.0693 11.6921 18.9049 11.8583 18.7013 11.8594L16.584 11.8708L15.951 12.9813L17.2314 12.9744C17.435 12.9733 17.6012 13.1377 17.6023 13.3414C17.6034 13.545 17.439 13.7112 17.2354 13.7123L15.5293 13.7215L14.8962 14.832L18.1832 14.8142C18.3869 14.8131 18.5531 14.9776 18.5542 15.1812C18.5553 15.3848 18.3908 15.551 18.1872 15.5521L14.135 15.574L12.9495 16.6875L13.3772 16.6852C13.5809 16.6841 13.7471 16.8485 13.7482 17.0521C13.7493 17.2557 13.5848 17.422 13.3812 17.4231L6.92382 17.4579C6.72021 17.459 6.55398 17.2946 6.55288 17.091C6.55178 16.8874 6.71623 16.7211 6.91984 16.72L10.9527 16.6983C10.9149 16.5582 10.9105 16.4081 10.9437 16.2596L11.0932 15.5904L6.91386 15.613C6.71025 15.6141 6.54402 15.4496 6.54292 15.246C6.54182 15.0424 6.70627 14.8762 6.90988 14.8751L11.2582 14.8516L11.5053 13.7432L11.5044 13.7437ZM12.5082 13.0596L14.4314 14.1563L19.1057 5.9583L17.1825 4.86162L12.5082 13.0596ZM6.58798 6.66679C6.84268 6.66542 7.05033 6.87103 7.0517 7.12554C7.05308 7.38023 6.84747 7.58789 6.59296 7.58926C6.33826 7.59063 6.13061 7.38502 6.12924 7.13051C6.12786 6.87582 6.33347 6.66817 6.58798 6.66679ZM4.92741 6.67575C5.18211 6.67438 5.38976 6.87999 5.39113 7.1345C5.39251 7.38919 5.1869 7.59685 4.93239 7.59822C4.67769 7.5996 4.47004 7.39399 4.46867 7.13948C4.46729 6.88478 4.6729 6.67713 4.92741 6.67575ZM3.26684 6.68472C3.52154 6.68334 3.72919 6.88895 3.73057 7.14346C3.73194 7.39816 3.52633 7.60581 3.27182 7.60718C3.01712 7.60856 2.80947 7.40295 2.8081 7.14844C2.80672 6.89374 3.01233 6.68609 3.26684 6.68472Z" />
</svg>
