<svg width="20" height="20" viewBox="0 0 20 20" lns="http://www.w3.org/2000/svg">
<path d="M19.1204 13.8599C18.8164 13.5555 18.3788 13.4264 17.9583 13.5167C17.5377 13.6072 17.1918 13.9049 17.0398 14.3073H13.2441C13.174 14.1075 13.0603 13.9261 12.9111 13.7761C12.7509 13.6157 12.5542 13.4966 12.3378 13.4291V11.5737H13.9681C14.1019 11.9512 14.406 12.2432 14.7887 12.3616C15.1712 12.4799 15.5872 12.4105 15.9107 12.1744C16.2342 11.9383 16.427 11.5634 16.4312 11.1629C16.4351 10.7625 16.2497 10.3838 15.931 10.1412C15.6124 9.89869 15.1978 9.82102 14.8129 9.93165C14.4281 10.0423 14.1181 10.3282 13.9768 10.703H12.3378V9.13423C12.7175 8.94151 12.9749 8.57102 13.0233 8.14806C13.0715 7.72509 12.9039 7.30606 12.5774 7.03294C12.2509 6.75965 11.8088 6.66886 11.401 6.79109C10.9931 6.91316 10.6739 7.23206 10.5513 7.63991H9.27541V5.94589C9.65367 5.811 9.94588 5.50523 10.0635 5.12132C10.1812 4.73726 10.1105 4.32038 9.87295 3.99659C9.63522 3.67295 9.25861 3.48054 8.85701 3.47781C8.45557 3.47491 8.07623 3.66213 7.83404 3.98257C7.59204 4.30285 7.51559 4.71898 7.6279 5.10441C7.74036 5.49 8.02829 5.79976 8.40458 5.93984V7.63995H6.61825C6.47207 7.22003 6.13606 6.89425 5.71188 6.76105V3.2848C6.08603 3.13694 6.36833 2.82109 6.47313 2.43288C6.57796 2.04455 6.49328 1.62952 6.2444 1.31351C5.99568 0.997501 5.61222 0.817767 5.21014 0.828587C4.80807 0.839421 4.43483 1.03961 4.20339 1.36859C3.97191 1.69742 3.90966 2.11644 4.03524 2.49851C4.16081 2.88059 4.45973 3.18074 4.84121 3.30816V6.76718C4.45745 6.89398 4.14649 7.17902 3.98656 7.55011C3.82664 7.9212 3.83306 8.34296 4.00442 8.70902C4.17562 9.07492 4.49528 9.35019 4.8827 9.46523V11.4431C5.17704 11.455 5.46926 11.4988 5.75414 11.5737V9.44174C6.18262 9.29251 6.51266 8.94584 6.64098 8.51065H8.40457V9.82963C8.01776 9.95689 7.70465 10.245 7.54582 10.62C7.38683 10.9949 7.39766 11.4203 7.57542 11.7867L7.13199 12.2301C7.36758 12.4018 7.58425 12.598 7.77835 12.8156L8.17753 12.4164C8.55244 12.6183 8.99831 12.6407 9.39136 12.4773C9.78456 12.3137 10.0832 11.9818 10.2043 11.5737H11.467V13.4345C11.0803 13.5611 10.7675 13.8492 10.6096 14.2243H8.60613C8.70363 14.5063 8.7694 14.7983 8.80251 15.095H10.5339C10.6284 15.5036 10.8994 15.8492 11.2735 16.0386C11.6478 16.2278 12.0868 16.241 12.472 16.0749C12.8569 15.9087 13.1484 15.5802 13.2675 15.1781H17.0313H17.0311C17.0934 15.3563 17.195 15.5182 17.3285 15.6516C17.6487 15.9717 18.1151 16.0967 18.5524 15.9795C18.9896 15.8623 19.3311 15.5208 19.4483 15.0836C19.5655 14.6463 19.4405 14.1799 19.1204 13.8599ZM11.4669 10.703H10.1809C10.0347 10.2834 9.69898 9.95764 9.27523 9.82428V8.51065H10.6041C10.7613 8.87472 11.0811 9.14311 11.4669 9.23483V10.703Z" />
<path d="M6.72191 13.0427C6.63763 12.9907 6.5325 12.9858 6.44391 13.0301L5.14346 13.6807V13.2858C5.14346 13.1281 5.01573 13.0002 4.8578 13.0002L1.71502 13.0001C1.55702 13.0001 1.42936 13.1281 1.42936 13.2858C1.42936 13.4435 1.55709 13.5714 1.71502 13.5714H4.57199V16.4284L1.14359 16.4285V14.1429C1.14359 13.9852 1.01585 13.8573 0.857927 13.8573C0.699926 13.8573 0.572266 13.9853 0.572266 14.1429V16.7143C0.572266 16.8723 0.7 16.9999 0.857927 16.9999H4.85776C5.01576 16.9999 5.14342 16.8722 5.14342 16.7143V16.3194L6.44423 16.9697C6.4845 16.99 6.52823 17 6.5719 17C6.62421 17 6.67617 16.9857 6.72189 16.9574C6.80617 16.9052 6.85763 16.8134 6.85763 16.7143V13.2859C6.85763 13.1867 6.80617 13.095 6.72189 13.0427L6.72191 13.0427ZM6.28625 16.2519L5.14344 15.6805V14.3194L6.28625 13.748V16.2519Z" />
<path d="M1.14366 13.2857C1.14366 13.4435 1.01578 13.5714 0.857999 13.5714C0.700211 13.5714 0.572266 13.4435 0.572266 13.2857C0.572266 13.1279 0.700212 13 0.857999 13C1.01579 13 1.14366 13.1279 1.14366 13.2857Z" />
<path d="M3.35432 15.0003C3.35386 14.9587 3.33149 14.9204 3.2955 14.8997L2.82491 14.6173V14.6173C2.80702 14.607 2.78673 14.6016 2.76608 14.6016C2.74542 14.6016 2.72515 14.607 2.70726 14.6173C2.68931 14.6277 2.6744 14.6426 2.66407 14.6606C2.65374 14.6786 2.64835 14.6989 2.64844 14.7197V15.2844C2.64835 15.3051 2.65374 15.3255 2.66407 15.3434C2.6744 15.3614 2.68931 15.3763 2.70726 15.3867C2.72506 15.3972 2.74544 15.4025 2.76608 15.402C2.78679 15.4018 2.80709 15.3961 2.82491 15.3855L3.2955 15.1032C3.31353 15.0928 3.32849 15.0777 3.33882 15.0597C3.34915 15.0416 3.35449 15.0211 3.35432 15.0002L3.35432 15.0003ZM2.88373 15.075V14.9255L3.00785 15.0002L2.88373 15.075Z" />
<path d="M4.00046 15C4.00046 14.7348 3.89512 14.4804 3.70757 14.2929C3.52004 14.1054 3.26568 14 3.00047 14C2.95844 14 2.9196 14.0224 2.89858 14.0588C2.87757 14.0952 2.87757 14.1401 2.89858 14.1765C2.9196 14.2129 2.95844 14.2353 3.00047 14.2353C3.27366 14.2353 3.52612 14.381 3.66273 14.6176C3.79931 14.8542 3.79931 15.1458 3.66273 15.3823C3.52613 15.6189 3.27367 15.7647 3.00047 15.7647C2.96932 15.7648 2.93948 15.7773 2.91752 15.7994C2.91069 15.8059 2.90493 15.8135 2.90047 15.8218C2.88217 15.8498 2.87783 15.8848 2.88869 15.9165C2.89598 15.9405 2.91076 15.9616 2.93085 15.9766C2.95097 15.9916 2.97536 15.9998 3.00047 16C3.26567 16 3.52003 15.8946 3.70757 15.7071C3.89511 15.5196 4.00046 15.2652 4.00046 15L4.00046 15Z" />
<path d="M2.45235 15.5317C2.42293 15.5015 2.37965 15.4893 2.33882 15.4998C2.29799 15.5102 2.26581 15.5415 2.25441 15.5821C2.243 15.6227 2.2541 15.6662 2.28352 15.6964C2.30559 15.7192 2.33591 15.7321 2.36765 15.7322C2.39857 15.7321 2.42819 15.7198 2.45012 15.6981C2.47204 15.6762 2.48451 15.6467 2.48482 15.6158C2.48513 15.5849 2.47326 15.5551 2.45176 15.5329L2.45235 15.5317Z" />
<path d="M2.28471 15.2791C2.26877 15.2411 2.23407 15.2143 2.19329 15.2083C2.15253 15.2023 2.11159 15.2181 2.08538 15.2499C2.0592 15.2818 2.05158 15.325 2.06531 15.3639C2.0738 15.3859 2.08871 15.4048 2.10813 15.4182C2.12753 15.4317 2.15053 15.4389 2.17413 15.4391C2.18862 15.439 2.20298 15.4362 2.21647 15.4309C2.24565 15.4198 2.26923 15.3976 2.28204 15.3692C2.29482 15.3407 2.29581 15.3083 2.28471 15.2791Z" />
<path d="M2.70277 15.7046C2.664 15.6882 2.61943 15.6938 2.58585 15.7192C2.55227 15.7445 2.53477 15.7859 2.53996 15.8277C2.54517 15.8694 2.57225 15.9053 2.61103 15.9217C2.62554 15.9278 2.64113 15.9311 2.65691 15.9311C2.69367 15.9315 2.72848 15.9146 2.75102 15.8856C2.77357 15.8566 2.78123 15.8187 2.77178 15.7831C2.76232 15.7476 2.73679 15.7186 2.70278 15.7046L2.70277 15.7046Z" />
<path d="M2.67952 14.2939C2.69399 14.294 2.70835 14.2914 2.72188 14.2862C2.75879 14.2722 2.7862 14.2407 2.79491 14.2022C2.8036 14.1637 2.79244 14.1234 2.76514 14.0949C2.73786 14.0664 2.69808 14.0534 2.65925 14.0605C2.62041 14.0675 2.58768 14.0935 2.57207 14.1297C2.55648 14.166 2.5601 14.2076 2.58173 14.2407C2.60333 14.2737 2.64007 14.2937 2.67952 14.2939L2.67952 14.2939Z" />
<path d="M2.14186 14.765C2.15642 14.771 2.17198 14.7741 2.18772 14.7744C2.22698 14.7744 2.26367 14.755 2.28556 14.7224C2.30747 14.6898 2.3117 14.6485 2.29686 14.6122C2.28201 14.5759 2.25003 14.5494 2.21161 14.5415C2.17317 14.5336 2.13332 14.5454 2.10539 14.5729C2.07743 14.6005 2.06507 14.6401 2.07238 14.6787C2.07971 14.7172 2.10576 14.7496 2.14186 14.765Z" />
<path d="M2.30375 14.2838C2.28183 14.3058 2.26953 14.3357 2.26953 14.3667C2.26953 14.3978 2.28183 14.4276 2.30375 14.4497C2.32579 14.4725 2.35614 14.4854 2.38786 14.4856C2.41855 14.4858 2.4481 14.4739 2.47021 14.4526C2.50047 14.4233 2.51279 14.3801 2.50255 14.3392C2.49228 14.2984 2.461 14.2661 2.42047 14.2545C2.37995 14.243 2.33636 14.2539 2.30609 14.2832L2.30375 14.2838Z" />
<path d="M2.2353 15.0005C2.2353 14.9693 2.22291 14.9393 2.20084 14.9173C2.17877 14.8952 2.14885 14.8828 2.11765 14.8828C2.08645 14.8828 2.05653 14.8952 2.03446 14.9173C2.01239 14.9393 2 14.9693 2 15.0005C2 15.0317 2.01239 15.0616 2.03446 15.0837C2.05652 15.1057 2.08645 15.1181 2.11765 15.1181C2.14885 15.1181 2.17877 15.1057 2.20084 15.0837C2.22291 15.0616 2.2353 15.0317 2.2353 15.0005Z" />
</svg>
