<svg width="20" height="20" viewBox="0 0 20 20" fill="none" xmlns="http://www.w3.org/2000/svg">
<g clip-path="url(#clip0_2024_27211)">
<path d="M19.1204 13.8599C18.8164 13.5555 18.3788 13.4264 17.9583 13.5167C17.5377 13.6072 17.1918 13.9049 17.0398 14.3073H13.2441C13.174 14.1075 13.0603 13.9261 12.9111 13.7761C12.7509 13.6157 12.5542 13.4966 12.3378 13.4291V11.5737H13.9681C14.1019 11.9512 14.406 12.2432 14.7887 12.3616C15.1712 12.4799 15.5872 12.4105 15.9107 12.1744C16.2342 11.9383 16.427 11.5634 16.4312 11.1629C16.4351 10.7625 16.2497 10.3838 15.931 10.1412C15.6124 9.89869 15.1978 9.82102 14.8129 9.93165C14.4281 10.0423 14.1181 10.3282 13.9768 10.703H12.3378V9.13423C12.7175 8.94151 12.9749 8.57102 13.0233 8.14806C13.0715 7.72509 12.9039 7.30606 12.5774 7.03294C12.2509 6.75965 11.8088 6.66886 11.401 6.79109C10.9931 6.91316 10.6739 7.23206 10.5513 7.63991H9.27541V5.94589C9.65367 5.811 9.94588 5.50523 10.0635 5.12132C10.1812 4.73726 10.1105 4.32038 9.87295 3.99659C9.63522 3.67295 9.25861 3.48054 8.85701 3.47781C8.45557 3.47491 8.07623 3.66213 7.83404 3.98257C7.59204 4.30285 7.51559 4.71898 7.6279 5.10441C7.74036 5.49 8.02829 5.79976 8.40458 5.93984V7.63995H6.61825C6.47207 7.22003 6.13606 6.89425 5.71188 6.76105V3.2848C6.08603 3.13694 6.36833 2.82109 6.47313 2.43288C6.57796 2.04455 6.49328 1.62952 6.2444 1.31351C5.99568 0.997501 5.61222 0.817767 5.21014 0.828587C4.80807 0.839421 4.43483 1.03961 4.20339 1.36859C3.97191 1.69742 3.90966 2.11644 4.03524 2.49851C4.16081 2.88059 4.45973 3.18074 4.84121 3.30816V6.76718C4.45745 6.89398 4.14649 7.17902 3.98656 7.55011C3.82664 7.9212 3.83306 8.34296 4.00442 8.70902C4.17562 9.07492 4.49528 9.35019 4.8827 9.46523V11.4431C5.17704 11.455 5.46926 11.4988 5.75414 11.5737V9.44174C6.18262 9.29251 6.51266 8.94584 6.64098 8.51065H8.40457V9.82963C8.01776 9.95689 7.70465 10.245 7.54582 10.62C7.38683 10.9949 7.39766 11.4203 7.57542 11.7867L7.13199 12.2301C7.36758 12.4018 7.58425 12.598 7.77835 12.8156L8.17753 12.4164C8.55244 12.6183 8.99831 12.6407 9.39136 12.4773C9.78456 12.3137 10.0832 11.9818 10.2043 11.5737H11.467V13.4345C11.0803 13.5611 10.7675 13.8492 10.6096 14.2243H8.60613C8.70363 14.5063 8.7694 14.7983 8.80251 15.095H10.5339C10.6284 15.5036 10.8994 15.8492 11.2735 16.0386C11.6478 16.2278 12.0868 16.241 12.472 16.0749C12.8569 15.9087 13.1484 15.5802 13.2675 15.1781H17.0313H17.0311C17.0934 15.3563 17.195 15.5182 17.3285 15.6516C17.6487 15.9717 18.1151 16.0967 18.5524 15.9795C18.9896 15.8623 19.3311 15.5208 19.4483 15.0836C19.5655 14.6463 19.4405 14.1799 19.1204 13.8599ZM11.4669 10.703H10.1809C10.0347 10.2834 9.69898 9.95764 9.27523 9.82428V8.51065H10.6041C10.7613 8.87472 11.0811 9.14311 11.4669 9.23483V10.703Z" />
<path d="M8.33529 15.4821C8.33529 15.4429 8.3062 15.4107 8.27064 15.4107H7.78579C7.75024 15.4107 7.72115 15.4429 7.72115 15.4821C7.72115 16.7348 6.80236 17.75 5.66862 17.75C4.53488 17.75 3.61609 16.7348 3.61609 15.4821C3.61609 15.4429 3.587 15.4107 3.55145 15.4107H3.0666C3.03104 15.4107 3.00195 15.4429 3.00195 15.4821C3.00195 16.9884 4.02498 18.2312 5.34539 18.4071V19.3214H4.17125C4.06054 19.3214 3.97165 19.4491 3.97165 19.6071V19.9286C3.97165 19.9679 3.99428 20 4.02175 20H7.31549C7.34296 20 7.36559 19.9679 7.36559 19.9286V19.6071C7.36559 19.4491 7.2767 19.3214 7.16599 19.3214H5.95953V18.4116C7.29529 18.2509 8.33529 17.0009 8.33529 15.4821ZM5.66862 17C6.42741 17 7.04236 16.3286 7.04236 15.5V13.5C7.04236 12.6714 6.42741 12 5.66862 12C4.90983 12 4.29488 12.6714 4.29488 13.5V15.5C4.29488 16.3286 4.90983 17 5.66862 17ZM4.90902 13.5C4.90902 13.0482 5.24761 12.6786 5.66862 12.6786C6.08963 12.6786 6.42822 13.0482 6.42822 13.5V15.5C6.42822 15.9518 6.08963 16.3214 5.66862 16.3214C5.24761 16.3214 4.90902 15.9518 4.90902 15.5V13.5Z" />
</g>
<defs>
<clipPath id="clip0_2024_27211">
<rect width="20" height="20" />
</clipPath>
</defs>
</svg>
