<svg width="30" height="30" viewBox="0 0 25 26" fill="none" xmlns="http://www.w3.org/2000/svg">
<g clip-path="url(#clip0_2024_26980)">
<path d="M22.6036 2.86352L20.7549 2.8735C20.4696 2.87504 20.2396 3.10755 20.2411 3.39285L20.2428 3.69771L19.8189 3.7C19.4662 3.08408 18.8058 2.69323 18.076 2.69717L17.5371 2.70008C17.4906 2.56318 17.4147 2.43835 17.3183 2.33266C17.1223 2.11234 16.8352 1.97364 16.5164 1.97536L5.78734 2.03326C5.19555 2.03646 4.7155 2.52173 4.7187 3.11497L4.74957 8.83457C4.75277 9.428 5.23803 9.90642 5.82982 9.90323L12.9913 9.86458C12.9657 9.76876 12.9518 9.6685 12.9512 9.56523C12.9498 9.30833 12.9913 9.06166 13.0697 8.83108L5.82438 8.87018C5.80223 8.8703 5.78291 8.85264 5.78278 8.82902L5.75191 3.10942C5.75178 3.0858 5.7709 3.06647 5.79306 3.06635L16.5221 3.00844C16.5443 3.00832 16.5636 3.02745 16.5637 3.05107L16.5806 6.17866C16.8624 5.86421 17.2137 5.61438 17.61 5.45422L17.6003 3.73286L18.0815 3.73026C18.4968 3.72802 18.8659 3.9908 18.9993 4.38433C19.071 4.59488 19.2688 4.73609 19.4912 4.73489L20.2483 4.73081L20.2667 8.14016L19.397 8.14486C19.1866 8.14599 18.9978 8.27464 18.9199 8.47025C18.7116 8.99268 18.2137 9.33231 17.6514 9.33535L14.3775 9.35302C14.4674 8.97771 14.8048 8.69684 15.2077 8.69467L16.7569 8.6863C17.0422 8.68476 17.2722 8.45226 17.2707 8.16696L17.2701 8.05454C17.2659 7.28514 17.8885 6.65571 18.658 6.65156C18.9433 6.65002 19.1733 6.41751 19.1718 6.13221C19.1702 5.84694 18.9377 5.61691 18.6524 5.61845C18.2315 5.62072 17.8371 5.73234 17.4926 5.92336C17.478 5.93149 17.463 5.9389 17.4486 5.94722C17.4145 5.96699 17.3815 5.98841 17.3484 6.00983C17.3269 6.02386 17.3054 6.03771 17.2842 6.05229C17.2543 6.07314 17.2249 6.09491 17.1959 6.11686C17.173 6.13419 17.1505 6.15207 17.1283 6.17032C17.1015 6.19226 17.0751 6.21437 17.0492 6.2374C17.0259 6.25822 17.0035 6.27994 16.981 6.30149C16.9575 6.32414 16.9339 6.34624 16.9115 6.36998C16.8856 6.39704 16.8612 6.42537 16.8367 6.4537C16.8065 6.48847 16.7772 6.52378 16.7488 6.56037C16.7235 6.59292 16.6984 6.6251 16.6748 6.65873C16.6565 6.68502 16.6398 6.71221 16.6223 6.73922C16.6096 6.75924 16.5958 6.77836 16.5835 6.79875L16.5835 6.80132C16.4285 7.05942 16.3183 7.34749 16.2682 7.65592L15.202 7.66167C15.0531 7.66248 14.9093 7.6823 14.7705 7.71564C14.7581 7.71846 14.746 7.72218 14.7338 7.72536C14.6837 7.73845 14.6343 7.75318 14.5859 7.77029C14.5672 7.7768 14.549 7.78385 14.5305 7.79091C14.4872 7.80763 14.4446 7.82598 14.403 7.84599C14.3856 7.85432 14.3683 7.86247 14.3509 7.87135C14.3042 7.89541 14.2587 7.92166 14.2142 7.94936C14.2082 7.95324 14.2016 7.9562 14.1956 7.96008C14.1956 7.95972 14.1956 7.96045 14.1956 7.96008C13.8717 8.16764 13.6142 8.47026 13.4649 8.82905L13.4638 8.82906C13.3706 9.05533 13.3188 9.30371 13.3202 9.56334C13.3202 9.56792 13.3214 9.57213 13.3216 9.5767C13.3225 9.61973 13.327 9.662 13.3343 9.70334C13.3355 9.71048 13.3362 9.71743 13.3377 9.72457C13.3462 9.76609 13.3583 9.8063 13.373 9.84541C13.3751 9.85107 13.3758 9.85711 13.378 9.86259L13.3795 9.86259C13.5017 10.171 13.803 10.3895 14.1542 10.3876L17.6573 10.3687C18.5212 10.364 19.2982 9.90626 19.7225 9.1765L20.2725 9.17353L20.275 9.63532C20.2765 9.92059 20.5091 10.1506 20.7944 10.1491L22.6431 10.1391C22.9284 10.1376 23.1584 9.90506 23.1569 9.61976L23.1234 3.37704C23.1217 3.09177 22.8889 2.86198 22.6036 2.86352ZM22.1206 9.10857L21.3051 9.11297L21.277 3.90382L22.0925 3.89942L22.1206 9.10857Z" />
<path d="M15.672 16.8582L15.5095 16.7787C15.2101 16.6324 14.8883 16.5602 14.5675 16.5575L14.5675 16.5566C14.5635 16.5566 14.5595 16.5572 14.5556 16.5572C14.4738 16.5571 14.3919 16.5616 14.3105 16.5704C14.3039 16.5712 14.2973 16.572 14.2909 16.5727C14.2071 16.5827 14.1241 16.5972 14.0419 16.6171C14.039 16.6178 14.0363 16.6186 14.0332 16.6193C13.7629 16.6853 13.5032 16.8026 13.2697 16.9717L11.505 18.2493C11.4295 18.3039 11.3418 18.3359 11.2481 18.3446C11.2493 18.1928 11.2193 18.0406 11.1581 17.8987C11.0352 17.6139 10.796 17.3933 10.5023 17.293L7.90983 16.4103L7.88521 11.849L9.18944 11.842L9.19881 13.5778C9.19991 13.7816 9.36595 13.9459 9.56975 13.9448L11.823 13.9326C12.0268 13.9315 12.1911 13.7655 12.19 13.5617L12.1806 11.8259L13.5086 11.8187L13.5334 16.4001C13.8604 16.2566 14.2126 16.1853 14.5655 16.1894L14.5391 11.2967C14.5376 11.0103 14.3045 10.7814 14.0198 10.7829L7.36313 10.8189C7.07823 10.8204 6.84782 11.052 6.84937 11.3382L6.87485 16.0594C5.8366 15.7129 4.72174 16.2038 4.2778 17.2061L3.39769 19.1932L2.6109 18.7519C2.36184 18.6121 2.04704 18.7011 1.90775 18.9498L1.06061 20.4608C0.993691 20.5804 0.976874 20.7215 1.01384 20.8535C1.05099 20.9855 1.13893 21.0971 1.2585 21.1642L6.25228 23.9641C6.33291 24.0094 6.42073 24.0305 6.50734 24.0301C6.68733 24.0291 6.86132 23.934 6.95563 23.7662L7.80277 22.2552C7.86969 22.1356 7.88651 21.9943 7.84954 21.8625C7.81239 21.7305 7.72445 21.6189 7.60488 21.5518L7.39477 21.4339L10.8872 21.7654C11.3743 21.812 11.8538 21.6697 12.2371 21.3657L15.8501 18.4999C16.1143 18.2903 16.2502 17.9653 16.2142 17.63C16.1774 17.2949 15.9749 17.0065 15.672 16.8584L15.672 16.8582ZM11.4499 13.1967L9.93474 13.2049L9.92737 11.838L11.4425 11.8298L11.4499 13.1967ZM6.30703 22.8105L2.21426 20.5159L2.55613 19.9061L6.25475 21.9798L6.25493 21.98C6.25677 21.9811 6.25842 21.9818 6.26026 21.9829L6.64889 22.2009L6.30703 22.8105ZM11.5946 20.5563C11.4214 20.6937 11.2042 20.7577 10.9846 20.7371L7.02686 20.3614C6.83596 20.3436 6.65095 20.4323 6.5458 20.5927L6.37055 20.8603L4.3027 19.701L5.22221 17.6247C5.44979 17.1109 6.02228 16.8603 6.55427 17.0413L10.1691 18.272C10.1878 18.2783 10.2016 18.2909 10.2094 18.3093C10.2173 18.3278 10.2171 18.3463 10.2088 18.3645C10.1242 18.55 9.93794 18.6708 9.73397 18.6719L8.98857 18.6759C8.56341 18.6782 8.13513 18.6445 7.71559 18.5753L6.92663 18.4455C6.64604 18.4 6.37938 18.5898 6.3329 18.8715C6.28663 19.153 6.47722 19.4188 6.7589 19.4653L7.54805 19.595C8.02455 19.6734 8.51109 19.7118 8.99413 19.7092L9.73952 19.7052C10.09 19.7033 10.4206 19.5797 10.6875 19.3715L11.1624 19.3825C11.4973 19.3913 11.8366 19.2857 12.1104 19.0874L13.8751 17.8096C14.2203 17.5596 14.6724 17.5206 15.0556 17.7079L15.1365 17.7473L11.5946 20.5563Z" />
<path d="M11.849 4.84657L10.1823 4.85557M11.8535 5.67989L10.1868 5.68889M11.0291 7.35103L10.1913 6.52221L10.608 6.51996C10.829 6.51877 11.0405 6.42983 11.1959 6.27271C11.3513 6.11558 11.438 5.90315 11.4368 5.68214C11.4356 5.46113 11.3467 5.24965 11.1896 5.09421C11.0324 4.93878 10.82 4.85213 10.599 4.85332M13.5212 5.87923C13.523 6.20753 13.4601 6.53296 13.3361 6.83695C13.2121 7.14094 13.0294 7.41752 12.7986 7.65092C12.5677 7.88432 12.2931 8.06995 11.9904 8.19722C11.6878 8.32449 11.3631 8.39091 11.0348 8.39268C10.7065 8.39446 10.381 8.33155 10.077 8.20755C9.77305 8.08355 9.49646 7.90089 9.26307 7.67C9.02967 7.43911 8.84404 7.16451 8.71677 6.86188C8.5895 6.55925 8.52308 6.23451 8.52131 5.90621C8.51773 5.24318 8.77768 4.60589 9.24399 4.13452C9.71029 3.66316 10.3447 3.39634 11.0078 3.39276C11.6708 3.38918 12.3081 3.64913 12.7795 4.11544C13.2508 4.58174 13.5177 5.2162 13.5212 5.87923Z" stroke="#212121" stroke-width="0.4" stroke-linecap="round" stroke-linejoin="round"/>
</g>
<defs>
<clipPath id="clip0_2024_26980">
<rect width="24" height="24" fill="white" transform="translate(0 1.06641) rotate(-0.309239)"/>
</clipPath>
</defs>
</svg>
