<svg width="30" height="30" viewBox="0 0 25 26" fill="none" xmlns="http://www.w3.org/2000/svg">
<g clip-path="url(#clip0_2024_26910)">
<mask id="mask0_2024_26910" style="mask-type:luminance" maskUnits="userSpaceOnUse" x="0" y="1" width="24" height="24">
<path d="M0.193359 1.25586L23.8091 1.1284L23.9366 24.7442L0.32082 24.8716L0.193359 1.25586Z" fill="white"/>
</mask>
<g mask="url(#mask0_2024_26910)">
<path d="M23.7718 10.4919C23.6749 10.1859 23.487 9.91697 23.2331 9.72095L21.0913 8.09495L21.0687 3.90045C21.067 3.58734 20.941 3.28772 20.7183 3.06739C20.4957 2.84721 20.1948 2.72433 19.8815 2.72602L14.5177 2.75497L12.9366 1.52003L12.9365 1.52021C12.6698 1.30851 12.339 1.19421 11.9986 1.19605C11.6581 1.19789 11.3285 1.31576 11.0642 1.53032L9.50118 2.78204L4.13782 2.81099C3.82472 2.81268 3.52491 2.93881 3.30477 3.16137C3.08459 3.38412 2.9617 3.68509 2.96339 3.99817L2.98603 8.19267L0.863906 9.83999C0.61156 10.0389 0.42607 10.3102 0.332125 10.6174C0.324345 10.6346 0.317849 10.6524 0.313004 10.6708C0.270376 10.8131 0.247917 10.9608 0.246521 11.1095L0.312226 23.2832C0.315621 23.7426 0.517739 24.1779 0.866552 24.4768C0.887727 24.4987 0.911086 24.518 0.936629 24.5347C1.21007 24.7491 1.54761 24.8654 1.89514 24.8648L22.3623 24.7543C22.7046 24.751 23.0361 24.6346 23.3052 24.4233C23.3477 24.3993 23.3855 24.3674 23.4164 24.3295C23.7442 24.0274 23.9297 23.6014 23.9281 23.1558L23.8624 10.982C23.8594 10.8334 23.8353 10.6859 23.7912 10.5441C23.7861 10.5261 23.7796 10.5086 23.772 10.4918L23.7718 10.4919ZM23.1407 23.1601C23.1408 23.298 23.1057 23.4339 23.0384 23.5542L14.3062 17.7761L23.0771 11.3522L23.1407 23.1601ZM1.09941 23.2791L1.03568 11.471L9.87497 17.7998L1.20559 23.6704C1.13738 23.551 1.10058 23.4163 1.0991 23.279L1.09941 23.2791ZM11.872 17.3981C12.0021 17.3111 12.1713 17.3102 12.3023 17.3957L22.2398 23.968L2.00888 24.0772L11.872 17.3981ZM22.7584 10.3492C22.8146 10.3928 22.8647 10.444 22.9072 10.5011L21.1112 11.816L21.0965 9.08779L22.7584 10.3492ZM11.5586 2.14125C11.6838 2.03731 11.8412 1.98006 12.004 1.97918C12.1667 1.9783 12.3249 2.03385 12.4512 2.13644L13.248 2.76186L10.7685 2.77525L11.5586 2.14125ZM4.14183 3.59834L19.8855 3.51336C19.9899 3.5128 20.0903 3.55364 20.1644 3.62703C20.2386 3.70042 20.2807 3.80035 20.2813 3.90472L20.3271 12.3908L13.6059 17.3125L12.7338 16.7355L12.7336 16.7355C12.5399 16.6102 12.3136 16.5442 12.0829 16.5458C11.852 16.5474 11.6268 16.6164 11.4349 16.7445L10.5721 17.3289L3.7958 12.4801L3.75 3.99395C3.74883 3.77661 3.9242 3.59951 4.14154 3.59834L4.14183 3.59834ZM1.34491 10.462L2.99114 9.18542L3.00587 11.9138L1.19619 10.6202C1.23835 10.5609 1.28821 10.5077 1.34491 10.462Z" />
</g>
<path d="M7.40046 10.593C7.24168 10.8252 7.1716 11.1066 7.20296 11.3861C7.23413 11.6657 7.36462 11.9246 7.57073 12.1159C7.77685 12.3073 8.04478 12.4184 8.3259 12.4288C8.33864 12.7201 8.46043 12.9959 8.66735 13.2012C8.87428 13.4066 9.15085 13.5265 9.44224 13.5372C9.45846 13.8283 9.58098 14.1034 9.78645 14.3103C9.99483 14.5155 10.2725 14.635 10.5648 14.6457C10.578 14.9271 10.6923 15.194 10.8867 15.3978C11.0812 15.6015 11.3424 15.7281 11.6229 15.7544C11.9032 15.7807 12.1835 15.7051 12.4126 15.541L12.6742 15.7974L12.674 15.7974C12.8948 16.0209 13.1963 16.1458 13.5105 16.1438C13.7831 16.1401 14.0464 16.0433 14.2564 15.8689C14.4663 15.6948 14.6102 15.4539 14.664 15.1865C14.7089 15.1934 14.7544 15.1975 14.7999 15.1987C15.1015 15.1978 15.3913 15.0811 15.6092 14.8726C15.8272 14.6642 15.9568 14.3798 15.9711 14.0786C16.2607 14.0616 16.5339 13.9384 16.7383 13.7322C16.9424 13.526 17.0633 13.2516 17.0775 12.9619C17.3826 12.9435 17.6688 12.8078 17.8758 12.5829C18.0827 12.358 18.1947 12.0617 18.1877 11.7561C18.1808 11.4506 18.0554 11.1595 17.8384 10.9445L17.2787 10.3909L17.8817 9.77948C18.1749 9.48272 18.3383 9.08175 18.336 8.66448C18.3338 8.24737 18.1661 7.84817 17.8697 7.55445L15.0719 4.78668L15.0719 4.78686C14.7751 4.49366 14.3742 4.33029 13.9569 4.33255C13.5398 4.3348 13.1406 4.50248 12.8471 4.79887L12.2359 5.41338L11.5851 4.80404C11.2884 4.51084 10.8872 4.34729 10.47 4.34954C10.0527 4.3518 9.65345 4.51967 9.35974 4.81605L6.59197 7.61386L6.59215 7.61386C6.29841 7.91208 6.13524 8.31487 6.13878 8.73345C6.14213 9.15201 6.31184 9.55209 6.61042 9.84546L7.40046 10.593ZM7.98307 11.2589C7.98268 11.1533 8.02461 11.052 8.09965 10.9776L8.65549 10.4196C8.72721 10.3401 8.8284 10.2934 8.9355 10.2905C9.0426 10.2875 9.14628 10.3287 9.22213 10.4043C9.29816 10.4797 9.33974 10.5831 9.33739 10.6902C9.33503 10.7973 9.28871 10.8987 9.20963 10.9709L8.65896 11.532L8.65878 11.532C8.54677 11.6444 8.37832 11.679 8.23096 11.6198C8.08361 11.5605 7.98598 11.4188 7.98311 11.26L7.98307 11.2589ZM9.10692 12.3629C9.10581 12.2598 9.14574 12.1604 9.21785 12.0867L9.2652 12.0385L10.0481 11.2471L10.0483 11.2471C10.1596 11.1326 10.3291 11.0967 10.4774 11.1563C10.6255 11.216 10.7229 11.3592 10.724 11.5188C10.7233 11.6243 10.6815 11.7252 10.6074 11.8002L9.77748 12.6391C9.70409 12.7134 9.60397 12.7557 9.49942 12.7563C9.39487 12.7569 9.2943 12.7157 9.22011 12.6421C9.14629 12.5676 9.10546 12.4666 9.1069 12.3616L9.10692 12.3629ZM10.2229 13.4707C10.2235 13.3669 10.2654 13.2674 10.3393 13.1945L11.4468 12.0751L11.447 12.0751C11.5194 12.0016 11.6185 11.9601 11.7217 11.9599C11.8278 11.9591 11.9294 12.0012 12.0038 12.0764C12.0783 12.1475 12.1201 12.2461 12.1192 12.349C12.1212 12.4556 12.0791 12.5583 12.0026 12.6326L10.901 13.75L10.901 13.7502C10.7883 13.8632 10.6185 13.8974 10.4708 13.8369C10.3229 13.7763 10.2262 13.6328 10.2251 13.4731L10.2229 13.4707ZM11.461 14.8524C11.3088 14.6997 11.3075 14.4531 11.4581 14.2988L12.2944 13.454C12.3674 13.3813 12.4662 13.3403 12.5693 13.3399C12.776 13.3386 12.9477 13.4994 12.9597 13.7059C12.9599 13.7212 12.9613 13.7366 12.9636 13.752C12.9588 13.8491 12.9181 13.9408 12.8492 14.0095L12.1446 14.7187L12.1446 14.7207L12.0159 14.8501L12.0157 14.8501C11.9429 14.9245 11.8431 14.9667 11.7389 14.9671C11.6347 14.9675 11.5347 14.9261 11.461 14.8524ZM13.7818 15.2335L13.782 15.2333C13.7099 15.3084 13.6103 15.3507 13.5065 15.3507C13.4025 15.3509 13.303 15.3086 13.2308 15.2336L12.9831 14.9908L13.4091 14.5663C13.4518 14.5217 13.491 14.4741 13.5264 14.4236L13.7845 14.6803C13.86 14.7534 13.9026 14.8538 13.9025 14.9589C13.9023 15.0641 13.8596 15.1644 13.7838 15.2374L13.7818 15.2335ZM13.4053 5.34807L13.4054 5.34806C13.5522 5.19987 13.7517 5.11603 13.9603 5.1149C14.1688 5.11378 14.3692 5.19546 14.5176 5.34206L17.3154 8.10983L17.3154 8.10965C17.4636 8.25643 17.5474 8.45612 17.5486 8.66466C17.5497 8.87322 17.468 9.07361 17.3214 9.22197L16.7213 9.83094L14.2021 7.3433C14.3554 7.18866 14.3543 6.93927 14.1998 6.7861C14.0452 6.63294 13.7958 6.63392 13.6426 6.78856L11.8419 8.60885C11.7321 8.72297 11.5812 8.78824 11.4228 8.79001C11.2644 8.79178 11.1121 8.72979 10.9998 8.61816C10.8875 8.50652 10.8248 8.35433 10.8258 8.19612C10.8267 8.03772 10.8913 7.88649 11.0048 7.7762L13.4053 5.34807ZM7.15038 8.16469L9.91815 5.36689C10.0668 5.21814 10.2685 5.13483 10.4787 5.13516C10.6887 5.13531 10.8902 5.21918 11.0384 5.36817L11.682 5.97042L10.4458 7.22188C10.1095 7.57324 9.98344 8.07601 10.1141 8.54462C10.2449 9.01324 10.6132 9.37819 11.0829 9.50457C11.5527 9.63112 12.0542 9.50042 12.4027 9.16089L13.6487 7.90282L17.2865 11.5016C17.4395 11.6549 17.4399 11.9028 17.2875 12.0566C17.1343 12.2074 16.889 12.2087 16.7342 12.0596L16.7294 12.0565L15.3336 10.6762L15.3338 10.6761C15.1784 10.5278 14.9329 10.5314 14.782 10.684C14.631 10.8366 14.6301 11.0821 14.7802 11.2357L16.1782 12.6183L16.1783 12.6183C16.2575 12.6908 16.3036 12.7921 16.3064 12.8992C16.309 13.0065 16.2678 13.1102 16.1922 13.1862C16.1168 13.2623 16.0134 13.3044 15.9063 13.3026C15.7991 13.3008 15.6973 13.2554 15.6243 13.1767L14.3283 11.8946L14.3283 11.8948C14.1732 11.7464 13.9277 11.7499 13.7767 11.9025C13.6257 12.0551 13.6248 12.3007 13.7749 12.4542L15.0709 13.7363L15.0707 13.7363C15.2255 13.8893 15.2269 14.1389 15.0737 14.2937C14.9207 14.4483 14.6712 14.4497 14.5165 14.2967L14.3352 14.1173L13.7238 13.5094C13.6791 13.2762 13.5661 13.0617 13.3989 12.8932C13.2531 12.752 13.0731 12.6514 12.8766 12.6012C12.8954 12.5159 12.905 12.4289 12.905 12.3416C12.9054 12.0283 12.7783 11.7283 12.553 11.5103C12.2664 11.227 11.8545 11.1104 11.4619 11.2013C11.3817 10.9089 11.191 10.6591 10.9302 10.5047C10.6693 10.3503 10.3585 10.3034 10.0635 10.374C9.99033 10.108 9.82557 9.87633 9.5984 9.71972C9.37123 9.56311 9.09602 9.49172 8.82128 9.51774C8.54657 9.54394 8.28995 9.666 8.09638 9.8626L7.93976 10.0209L7.15608 9.28006C7.00789 9.13327 6.92404 8.93359 6.92291 8.72485C6.92179 8.5163 7.00365 8.31572 7.15044 8.16735L7.15038 8.16469Z" />
</g>
<defs>
<clipPath id="clip0_2024_26910">
<rect width="24" height="24" fill="white" transform="translate(0 1.06641) rotate(-0.309239)"/>
</clipPath>
</defs>
</svg>
