<svg width="30" height="30" viewBox="0 0 20 12" fill="none" xmlns="http://www.w3.org/2000/svg">
<path d="M17.4133 0.0607702L2.65352 0.140433C1.63621 0.145924 0.813061 0.978004 0.818551 1.99532L0.862365 10.113C0.867856 11.1303 1.69994 11.9535 2.71725 11.948L17.477 11.8683C18.4943 11.8628 19.3175 11.0307 19.312 10.0134L19.2682 1.89574C19.2627 0.878426 18.4304 0.0552805 17.4131 0.0607713L17.4133 0.0607702ZM18.5303 1.89972L18.5363 3.00675L16.6913 3.01671L16.6794 0.802836L17.4173 0.798853C18.0277 0.795375 18.527 1.28947 18.5303 1.89972ZM14.4653 0.814599L15.9413 0.806633L15.9623 4.71276L15.4826 4.23816C15.3375 4.09465 15.1043 4.09591 14.9607 4.24098L14.4863 4.72092L14.4653 0.814599ZM2.65764 0.878328L13.7275 0.818581L13.7394 3.03246L1.56242 3.09836L1.55645 1.99133C1.55315 1.38103 2.04725 0.881618 2.6575 0.878324L2.65764 0.878328ZM17.4732 11.1307L2.71341 11.2104C2.1031 11.2137 1.6037 10.7196 1.6004 10.1093L1.56655 3.83659L13.7436 3.77087L13.7535 5.61579C13.7543 5.76484 13.8451 5.89912 13.983 5.9555C14.1213 6.01151 14.2797 5.97898 14.3848 5.87331L15.2264 5.02262L16.0771 5.86418C16.1479 5.93429 16.2426 5.9715 16.3386 5.97099C16.3862 5.97073 16.4341 5.96132 16.4798 5.94221C16.617 5.88415 16.7063 5.74909 16.7055 5.59986L16.6956 3.75494L18.5405 3.74498L18.5743 10.0177C18.5776 10.628 18.0837 11.1274 17.4733 11.1307L17.4732 11.1307Z" fill="black"/>
<path d="M7.84356 4.54044L2.67755 4.56832C2.47393 4.56942 2.30949 4.73565 2.31059 4.93926L2.33847 10.1053C2.33957 10.3089 2.5058 10.4733 2.70941 10.4722L7.87543 10.4444C8.07904 10.4433 8.24349 10.277 8.24239 10.0734L8.21433 4.9074C8.21323 4.7036 8.04718 4.53934 7.84338 4.54044L7.84356 4.54044ZM4.18155 9.72637L4.17756 8.98848C4.17427 8.37817 4.66836 7.87876 5.27862 7.87547C5.88892 7.87218 6.38833 8.36627 6.39163 8.97653L6.39561 9.71442L4.18155 9.72637ZM4.90351 6.77039C4.90241 6.56714 5.06723 6.40054 5.27047 6.39944C5.47371 6.39834 5.64032 6.56316 5.64141 6.7664C5.64251 6.96965 5.4777 7.13625 5.27445 7.13735C5.07121 7.13844 4.90461 6.97363 4.90351 6.77039ZM7.50245 9.70845L7.1335 9.71044L7.12952 8.97254C7.12583 8.28996 6.74545 7.7011 6.19112 7.38529C6.31101 7.20703 6.38072 6.99278 6.37947 6.76242C6.37618 6.15212 5.87673 5.65807 5.26647 5.66136C4.65617 5.66466 4.16212 6.16411 4.16541 6.77437C4.16666 7.00471 4.23867 7.2182 4.36066 7.39517C3.80978 7.71693 3.43577 8.30964 3.43946 8.99246L3.44344 9.73036L3.07449 9.73235L3.05059 5.30437L7.47857 5.28047L7.50245 9.70845Z" fill="black"/>
<path d="M16.7278 9.65943L10.0857 9.69527C9.88214 9.69637 9.71769 9.86261 9.71879 10.0662C9.71989 10.2698 9.88612 10.4343 10.0897 10.4332L16.7318 10.3973C16.9354 10.3962 17.0999 10.23 17.0988 10.0264C17.0977 9.82277 16.9315 9.65833 16.7278 9.65943Z" fill="black"/>
<path d="M16.72 8.18286L10.0779 8.21871C9.87432 8.21981 9.70988 8.38604 9.71098 8.58966C9.71207 8.79327 9.87831 8.95772 10.0819 8.95662L16.724 8.92077C16.9276 8.91967 17.0921 8.75344 17.091 8.54982C17.0899 8.34621 16.9236 8.18176 16.72 8.18286Z" fill="black"/>
<path d="M16.7122 6.7063L10.0701 6.74215C9.86651 6.74325 9.70206 6.90948 9.70316 7.11309C9.70426 7.31671 9.87049 7.48115 10.0741 7.48006L16.7162 7.44421C16.9198 7.44311 17.0843 7.27687 17.0832 7.07326C17.0821 6.86965 16.9158 6.7052 16.7122 6.7063Z" fill="black"/>
</svg>
