<svg width="30" height="30" viewBox="0 0 20 21" fill="none" xmlns="http://www.w3.org/2000/svg">
<path d="M11.409 4.37109C10.871 4.37109 10.4346 4.80445 10.4346 5.34262C10.4346 5.88078 10.8708 6.31703 11.409 6.31703C11.9471 6.31703 12.3834 5.88078 12.3834 5.34262C12.3834 4.80445 11.9471 4.37109 11.409 4.37109ZM11.3072 6.06102C10.9669 6.06102 10.6906 5.78758 10.6906 5.4473C10.6906 5.10993 10.9669 4.83359 11.3072 4.83359C11.6446 4.83359 11.9209 5.10993 11.9209 5.4473C11.9209 5.78757 11.6446 6.06102 11.3072 6.06102Z" fill="black"/>
<path d="M11.7002 5.4473C11.7002 5.6655 11.5228 5.84281 11.3076 5.84281C11.0894 5.84281 10.9121 5.66535 10.9121 5.4473C10.9121 5.232 11.0896 5.05469 11.3076 5.05469C11.3746 5.05469 11.4414 5.07208 11.4967 5.10702C11.421 5.11572 11.3658 5.18271 11.3658 5.25824C11.3658 5.34262 11.4326 5.41235 11.5199 5.41235C11.5896 5.41235 11.6508 5.36291 11.6682 5.29898C11.6885 5.34537 11.7002 5.39481 11.7002 5.4473Z" fill="black"/>
<path d="M8.61699 4.37109C8.07898 4.37109 7.64258 4.80445 7.64258 5.34262C7.64258 5.88078 8.07883 6.31703 8.61699 6.31703C9.155 6.31703 9.59141 5.88078 9.59141 5.34262C9.59141 4.80445 9.15516 4.37109 8.61699 4.37109ZM8.71892 6.06102C8.37865 6.06102 8.10521 5.78758 8.10521 5.4473C8.10521 5.10993 8.37865 4.83359 8.71892 4.83359C9.05919 4.83359 9.33263 5.10993 9.33263 5.4473C9.33263 5.78757 9.0592 6.06102 8.71892 6.06102Z" fill="black"/>
<path d="M9.11445 5.4473C9.11445 5.6655 8.93699 5.8428 8.71879 5.8428C8.50059 5.8428 8.32617 5.66534 8.32617 5.4473C8.32617 5.39496 8.33777 5.34552 8.35821 5.29898C8.37561 5.36291 8.4368 5.41235 8.50653 5.41235C8.59091 5.41235 8.66064 5.34246 8.66064 5.25824C8.66064 5.17966 8.60251 5.11572 8.52682 5.10702C8.58206 5.07208 8.64889 5.05469 8.71878 5.05469C8.93698 5.05454 9.11445 5.23199 9.11445 5.4473Z" fill="black"/>
<path d="M10.0006 11.4219C9.61855 11.4219 9.30957 11.7309 9.30957 12.1129C9.30957 12.4938 9.61856 12.8028 10.0006 12.8028C10.3813 12.8028 10.6905 12.4936 10.6905 12.1129C10.6905 11.7309 10.3815 11.4219 10.0006 11.4219Z" />
<path d="M12.1133 11.9871C12.1686 11.9871 12.2122 11.9434 12.2122 11.8911V11.8708H12.4304C12.5119 11.8708 12.5787 11.804 12.5787 11.7225C12.5787 11.641 12.5119 11.5742 12.4304 11.5742H12.2122V11.5508C12.2122 11.4985 12.1686 11.4549 12.1133 11.4549H12.0552V11.2019H12.1133C12.1686 11.2019 12.2122 11.1582 12.2122 11.1059V11.0827H12.4304C12.5119 11.0827 12.5787 11.0188 12.5787 10.9373C12.5787 10.8529 12.5119 10.789 12.4304 10.789H12.2122V10.7656C12.2122 10.7133 12.1686 10.6696 12.1133 10.6696H12.0552V10.5679C12.0552 10.2857 11.8283 10.0588 11.5462 10.0588L11.4444 10.0587V10.0005C11.4444 9.94531 11.4007 9.90167 11.3484 9.90167H11.3252V9.68347C11.3252 9.60199 11.2611 9.53516 11.1798 9.53516C11.0954 9.53516 11.0315 9.60199 11.0315 9.68347V9.90167H11.0083C10.956 9.90167 10.9123 9.94531 10.9123 10.0005V10.0587H10.6593V10.0005C10.6593 9.94531 10.6157 9.90167 10.5633 9.90167H10.54V9.68347C10.54 9.60199 10.4732 9.53516 10.3917 9.53516C10.3102 9.53516 10.2463 9.60199 10.2463 9.68347V9.90167H10.2231C10.1707 9.90167 10.1271 9.94531 10.1271 10.0005V10.0587H9.87395V10.0005C9.87395 9.94531 9.83031 9.90167 9.77798 9.90167H9.75463V9.68347C9.75463 9.60199 9.6878 9.53516 9.60631 9.53516C9.52483 9.53516 9.458 9.60199 9.458 9.68347V9.90167H9.43755C9.38521 9.90167 9.34157 9.94531 9.34157 10.0005V10.0587H9.08843V10.0005C9.08843 9.94531 9.04479 9.90167 8.98955 9.90167H8.96926V9.68347C8.96926 9.60199 8.90243 9.53516 8.82094 9.53516C8.73946 9.53516 8.67263 9.60199 8.67263 9.68347V9.90167H8.65218C8.59694 9.90167 8.5562 9.94531 8.5562 10.0005V10.0587H8.45443C8.17229 10.0587 7.9454 10.2856 7.9454 10.5677V10.6782H7.88727C7.83203 10.6782 7.78839 10.7189 7.78839 10.7742V10.7945H7.57019C7.48871 10.7945 7.42188 10.8613 7.42188 10.9428C7.42188 11.0242 7.48871 11.0911 7.57019 11.0911H7.78839V11.1114C7.78839 11.1666 7.83203 11.2103 7.88727 11.2103H7.9454V11.4632H7.88727C7.83203 11.4632 7.78839 11.5069 7.78839 11.5592V11.5795H7.57019C7.48871 11.5795 7.42188 11.6465 7.42188 11.7278C7.42188 11.8093 7.48871 11.8761 7.57019 11.8761H7.78839V11.8995C7.78839 11.9518 7.83203 11.9955 7.88727 11.9955H7.9454V12.2486H7.88727C7.83203 12.2486 7.78839 12.2923 7.78839 12.3446V12.3679H7.57019C7.48871 12.3679 7.42188 12.4319 7.42188 12.5134C7.42188 12.5948 7.48871 12.6617 7.57019 12.6617H7.78839V12.685C7.78839 12.7374 7.83203 12.781 7.88727 12.781H7.9454V13.034H7.88727C7.83203 13.034 7.78839 13.0776 7.78839 13.13V13.1533H7.57019C7.48871 13.1533 7.42188 13.2172 7.42188 13.3016C7.42188 13.3831 7.48871 13.447 7.57019 13.447H7.78839V13.4702C7.78839 13.5226 7.83203 13.5662 7.88727 13.5662H7.9454V13.6593C7.9454 13.9385 8.1723 14.1654 8.45443 14.1654H8.5562V14.2265C8.5562 14.2788 8.59694 14.3224 8.65218 14.3224H8.67263V14.5435C8.67263 14.625 8.73946 14.6919 8.82094 14.6919C8.90242 14.6919 8.96926 14.625 8.96926 14.5435V14.3224H8.98955C9.04479 14.3224 9.08843 14.2788 9.08843 14.2265V14.1654H9.34157V14.2265C9.34157 14.2788 9.38521 14.3224 9.43755 14.3224H9.458V14.5435C9.458 14.625 9.52483 14.6919 9.60631 14.6919C9.68779 14.6919 9.75463 14.625 9.75463 14.5435V14.3224H9.77798C9.83031 14.3224 9.87395 14.2788 9.87395 14.2265V14.1654H10.1271V14.2265C10.1271 14.2788 10.1707 14.3224 10.2231 14.3224H10.2463V14.5435C10.2463 14.625 10.3102 14.6919 10.3917 14.6919C10.4732 14.6919 10.54 14.625 10.54 14.5435V14.3224H10.5633C10.6157 14.3224 10.6593 14.2788 10.6593 14.2265V14.1654H10.9123V14.2265C10.9123 14.2788 10.956 14.3224 11.0083 14.3224H11.0315V14.5435C11.0315 14.625 11.0954 14.6919 11.1798 14.6919C11.2613 14.6919 11.3252 14.625 11.3252 14.5435V14.3224H11.3484C11.4007 14.3224 11.4444 14.2788 11.4444 14.2265V14.1654H11.5462C11.8283 14.1654 12.0552 13.9385 12.0552 13.6593V13.5604H12.1133C12.1686 13.5604 12.2122 13.5168 12.2122 13.4615V13.4412H12.4304C12.5119 13.4412 12.5787 13.3744 12.5787 13.2929C12.5787 13.2115 12.5119 13.1446 12.4304 13.1446H12.2122V13.1243C12.2122 13.0691 12.1686 13.0254 12.1133 13.0254H12.0552V12.7725H12.1133C12.1686 12.7725 12.2122 12.7288 12.2122 12.6765V12.6562H12.4304C12.5119 12.6562 12.5787 12.5894 12.5787 12.5079C12.5787 12.4264 12.5119 12.3596 12.4304 12.3596H12.2122V12.3393C12.2122 12.284 12.1686 12.2404 12.1133 12.2404H12.0552V11.9874L12.1133 11.9871ZM11.3804 12.2916L11.1221 12.3534C11.1146 12.3917 11.1049 12.4288 11.0925 12.4659L11.2842 12.6489L11.1061 12.9569L10.8526 12.8828C10.8255 12.9112 10.7983 12.9385 10.7698 12.9656L10.8439 13.2191L10.5362 13.3971L10.3532 13.2055C10.3161 13.2179 10.2791 13.2278 10.2408 13.2351L10.179 13.4934H9.8216L9.7598 13.2351C9.7215 13.2276 9.68442 13.2179 9.64734 13.2055L9.46424 13.397L9.15647 13.2189L9.23062 12.9655C9.20224 12.9383 9.17493 12.9112 9.14777 12.8826L8.89432 12.9568L8.71625 12.649L8.9079 12.4661C8.89554 12.429 8.88562 12.3919 8.8783 12.3536L8.61981 12.2918V11.9344L8.8783 11.8726C8.88562 11.8343 8.89554 11.7973 8.9079 11.7602L8.71625 11.5772L8.89432 11.2695L9.14777 11.3436C9.17493 11.3152 9.20209 11.2879 9.23062 11.2608L9.15647 11.0073L9.46424 10.8292L9.64719 11.0209C9.68427 11.0085 9.72135 10.9986 9.75965 10.9911L9.82144 10.7328H10.1788L10.2406 10.9911C10.2789 10.9986 10.316 11.0084 10.3531 11.0209L10.536 10.8292L10.8438 11.0073L10.7696 11.2608C10.798 11.2879 10.8252 11.3151 10.8525 11.3436L11.1059 11.2695L11.284 11.5772L11.0924 11.7602C11.1047 11.7973 11.1146 11.8343 11.122 11.8726L11.3803 11.9344L11.3804 12.2916Z" />
<path d="M13.1257 14.7054C13.1257 15.0341 12.858 15.3017 12.5294 15.3017H7.47115C7.14247 15.3017 6.87482 15.0341 6.87482 14.7054V9.79953C6.9148 9.80426 6.95401 9.81174 6.99536 9.81174C7.51341 9.81174 7.93486 9.42233 7.99786 8.92322H12.0026C12.0656 9.42232 12.487 9.81174 13.0051 9.81174C13.0464 9.81174 13.0856 9.80441 13.1256 9.79953L13.1257 14.7054ZM15.7842 12.905V9.845C15.7842 9.03644 15.1269 8.37605 14.3182 8.37605H13.9285C13.7686 8.02418 13.4166 7.77972 13.0064 7.77972C12.6719 7.77972 12.3782 7.94254 12.195 8.18988H10.6039C10.6941 8.18698 10.7698 8.1113 10.7698 8.02112C10.7698 7.92514 10.6912 7.84946 10.5981 7.84946C10.6912 7.84946 10.7698 7.77377 10.7698 7.6778C10.7698 7.58472 10.6912 7.50904 10.5981 7.50904H11.241C12.0932 7.50904 12.8262 7.0145 13.1811 6.30193H13.4894C13.6435 6.30193 13.7686 6.17681 13.7686 6.02269V5.91222C14.0245 5.88887 14.234 5.69982 14.2805 5.45261H14.5772C14.615 5.53119 14.6963 5.58643 14.7925 5.58643C14.9263 5.58643 15.0368 5.47886 15.0368 5.34214C15.0368 5.20832 14.9263 5.09784 14.7925 5.09784C14.6965 5.09784 14.615 5.15308 14.5772 5.23456H14.2805C14.234 4.98737 14.0245 4.79831 13.7686 4.77495V4.66173C13.7686 4.50762 13.6435 4.3825 13.4894 4.3825H13.1811C12.8262 3.66992 12.0933 3.17828 11.241 3.17828H10.9444C10.9328 3.04736 10.8949 2.92529 10.8339 2.81756C10.77 2.69824 10.639 2.63431 10.5052 2.63431H10.159V1.87516C10.3073 1.81703 10.412 1.67161 10.412 1.50285C10.412 1.28175 10.2345 1.10156 10.0134 1.10156C9.79248 1.10156 9.61214 1.28177 9.61214 1.50285C9.61214 1.67161 9.71971 1.81703 9.86818 1.87516V2.63431H9.52196C9.38814 2.63431 9.25722 2.69824 9.19038 2.81756C9.13225 2.92514 9.09151 3.04736 9.07976 3.17828H8.78313C7.93383 3.17828 7.20078 3.66992 6.84602 4.3825H6.53764C6.38063 4.3825 6.2555 4.50762 6.2555 4.66173V4.77511C6.00251 4.7983 5.793 4.98751 5.74648 5.23471H5.44984C5.4091 5.15323 5.33067 5.098 5.23454 5.098C5.10072 5.098 4.99025 5.20847 4.99025 5.34229C4.99025 5.47901 5.10072 5.58658 5.23454 5.58658C5.33052 5.58658 5.40911 5.53134 5.44984 5.45276H5.74648C5.79302 5.69995 6.00237 5.88901 6.2555 5.91237V6.02284C6.2555 6.17696 6.38062 6.30208 6.53764 6.30208H6.84602C7.20093 7.01466 7.93383 7.50919 8.78313 7.50919H9.42887C9.33579 7.50919 9.25721 7.58487 9.25721 7.67795C9.25721 7.77393 9.33579 7.84961 9.42887 7.84961C9.33579 7.84961 9.25721 7.92529 9.25721 8.02127C9.25721 8.11145 9.33289 8.18713 9.42292 8.19003H7.80565C7.62239 7.94284 7.32866 7.77988 6.99421 7.77988C6.58405 7.77988 6.23218 8.02417 6.07214 8.3762L5.68258 8.37605C4.87402 8.37605 4.21652 9.03628 4.21652 9.845V12.905C3.95484 13.0738 3.78027 13.3675 3.78027 13.702C3.78027 14.1121 4.04501 14.464 4.41441 14.5891L4.41426 13.702H5.03375V14.5891C5.40317 14.464 5.66774 14.1121 5.66774 13.702C5.66774 13.3441 5.46709 13.0359 5.17625 12.8759L5.17641 9.845C5.17641 9.56576 5.40331 9.33597 5.68254 9.33597H6.13922C6.14502 9.34757 6.15082 9.35627 6.15661 9.36802V15.1649C6.15661 15.6448 6.54052 16.0288 7.0204 16.0317C7.0204 16.0317 7.38982 16.0317 8.08501 16.0346V16.2499C8.08501 16.4187 8.22173 16.5554 8.39049 16.5554H9.58006V18.2482H7.95409V17.7247C7.95409 17.588 7.84636 17.4775 7.70979 17.4775H6.48819C6.35147 17.4775 6.241 17.588 6.241 17.7247V19.6531C6.241 19.7898 6.35163 19.9003 6.48819 19.9003H7.70979C7.84651 19.9003 7.95409 19.7898 7.95409 19.6531V19.1993H12.0467V19.6531C12.0467 19.7898 12.1571 19.9003 12.2939 19.9003H13.5155C13.6522 19.9003 13.7598 19.7898 13.7598 19.6531V17.7247C13.7598 17.588 13.6522 17.4775 13.5155 17.4775H12.2939C12.1571 17.4775 12.0467 17.588 12.0467 17.7247V18.2482H10.4207V16.5554H11.6103C11.779 16.5554 11.9185 16.4187 11.9185 16.2499V16.0346C12.2327 16.0346 12.5874 16.0317 12.9773 16.0317C13.4572 16.0317 13.8441 15.6449 13.8441 15.1649L13.8443 9.36802C13.8501 9.35642 13.8559 9.34772 13.8617 9.33597H14.3183C14.5976 9.33597 14.8245 9.56577 14.8245 9.845V12.8759C14.5336 13.0358 14.333 13.3441 14.333 13.702C14.333 14.1121 14.5977 14.464 14.967 14.5891V13.702H15.5866V14.5891C15.956 14.464 16.2206 14.1121 16.2206 13.702C16.2206 13.3675 16.0461 13.0736 15.7842 12.905ZM8.61158 6.59601C7.91349 6.59311 7.35213 6.02882 7.35502 5.33656C7.35792 4.64425 7.92509 4.08578 8.62029 4.08871C9.31838 4.09161 9.88263 4.65589 9.87974 5.34816C9.87669 6.04046 9.30951 6.59894 8.61158 6.59601ZM10.1472 5.34832C10.1443 4.65601 10.7086 4.09175 11.4038 4.08886C12.1019 4.08596 12.669 4.64445 12.6719 5.33671C12.6748 6.02902 12.1106 6.59328 11.4154 6.59617C10.7174 6.59892 10.1501 6.04043 10.1472 5.34832Z" />
</svg>
