<svg width="30" height="30" viewBox="0 0 25 26" fill="none" xmlns="http://www.w3.org/2000/svg">
<path d="M17.1295 14.2C16.8237 14.2016 16.5772 14.4509 16.5789 14.7565L16.5965 18.0112C16.5981 18.3168 16.3515 18.566 16.0459 18.5677L12.0781 18.5891L12.0219 8.1788C12.0196 7.86038 11.9264 7.5494 11.7528 7.28267C11.5793 7.01591 11.333 6.80446 11.043 6.67328L5.9126 4.36379L15.969 4.30951C16.2746 4.30787 16.5239 4.55427 16.5255 4.86007L16.5431 8.11455C16.5448 8.42015 16.7938 8.66675 17.0996 8.6651C17.4052 8.66345 17.6517 8.41419 17.65 8.10858L17.6324 4.85409C17.6297 4.41373 17.4522 3.99265 17.1392 3.68303C16.8263 3.37344 16.4032 3.20067 15.9631 3.20248L4.46904 3.26452C4.04422 3.2637 3.6353 3.42723 3.32835 3.72112C3.0214 4.01484 2.84009 4.41611 2.82223 4.84062C2.81873 4.87159 2.81707 4.90272 2.8176 4.93403L2.88858 18.0851C2.88875 18.1164 2.88892 18.1483 2.89312 18.1796C2.89512 18.2451 2.90335 18.3104 2.91743 18.3746C2.9237 18.4176 2.93254 18.4604 2.94394 18.5025C2.94618 18.5101 2.95133 18.5158 2.95394 18.5231C3.11884 19.2561 3.61765 19.8696 4.3016 20.1805L9.74961 22.6329L9.74979 22.6329C10.265 22.8651 10.863 22.819 11.3369 22.511C11.8106 22.2028 12.0952 21.675 12.0921 21.11L12.0845 19.6959L16.0523 19.6745C16.4925 19.6717 16.9136 19.4942 17.2232 19.1812C17.5328 18.8683 17.7057 18.4453 17.7037 18.0051L17.6861 14.7504C17.6845 14.4448 17.4354 14.1982 17.1298 14.1999L17.1295 14.2ZM10.9848 21.1159C10.9858 21.3043 10.891 21.4802 10.733 21.5829C10.575 21.6856 10.3757 21.7007 10.2038 21.6233L4.75444 19.1712C4.52903 19.0691 4.33752 18.9045 4.20273 18.697C4.06776 18.4893 3.99522 18.2475 3.99352 17.9999L3.92319 4.96931C3.92175 4.90632 3.95348 4.84719 4.00695 4.81358C4.0595 4.77905 4.12612 4.77393 4.18357 4.79962L10.5873 7.6827L10.5873 7.68288C10.785 7.7719 10.9126 7.96806 10.9136 8.18485L10.9848 21.1159ZM21.2186 11.6194C21.1911 11.6871 21.1506 11.7487 21.0992 11.8008L19.4892 13.4295C19.2731 13.6405 18.928 13.6392 18.7133 13.4269C18.4987 13.2145 18.4937 12.8694 18.7024 12.6511L19.3725 11.9736L13.6956 12.0043C13.39 12.0059 13.1407 11.7595 13.1391 11.4537C13.1374 11.1481 13.384 10.8989 13.6896 10.8972L19.3666 10.8666L18.6891 10.196C18.4781 9.97999 18.4793 9.63482 18.6917 9.42016C18.904 9.20551 19.2492 9.20072 19.4675 9.4092L21.0943 11.0193C21.1462 11.0708 21.1874 11.1319 21.2156 11.1993L21.2182 11.2081L21.2182 11.2083C21.2711 11.3373 21.2719 11.4819 21.2204 11.6115L21.2186 11.6194Z" />
</svg>
