<svg width="30" height="30" viewBox="0 0 32 33" fill="none" xmlns="http://www.w3.org/2000/svg">
<g clip-path="url(#clip0_2024_26987)" filter="url(#filter0_d_2024_26987)">
<path d="M9.75785 6.76267L11.2338 6.75471C11.4374 6.75361 11.6019 6.58774 11.6008 6.38376L11.5928 4.90779C11.5917 4.70381 11.4255 4.53972 11.2219 4.54082L9.74591 4.54879C9.54229 4.54989 9.37784 4.71576 9.37894 4.91973L9.38691 6.39571C9.38783 6.59969 9.55406 6.76377 9.75785 6.76267ZM10.1188 5.2847L10.8567 5.28072L10.8607 6.01862L10.1228 6.0226L10.1188 5.2847Z" />
<path d="M11.6061 7.1227L9.39219 7.13465C8.78188 7.13794 8.28784 7.6374 8.29113 8.24766L8.30109 10.0926C8.30219 10.2966 8.46842 10.4606 8.67203 10.4595L12.3619 10.4396C12.5655 10.4385 12.73 10.2727 12.7289 10.0687L12.7189 8.22376C12.7156 7.61331 12.2164 7.11941 11.6061 7.1227L11.6061 7.1227ZM11.989 9.70358L9.03695 9.71951L9.02898 8.24353C9.02789 8.03992 9.1927 7.87369 9.39595 7.87259L11.6098 7.86064C11.8131 7.85954 11.9797 8.02399 11.9808 8.2276L11.989 9.70358Z" />
<path d="M10.4768 3.0679C8.03513 3.08108 6.05955 5.0781 6.07273 7.51978C6.08591 9.96146 8.08293 11.937 10.5246 11.9239C12.9663 11.9107 14.9419 9.91366 14.9287 7.47198C14.9155 5.0303 12.9185 3.05472 10.4768 3.0679ZM10.5206 11.1856C8.486 11.1966 6.82179 9.55028 6.81081 7.51561C6.79983 5.48093 8.44612 3.81678 10.4808 3.80579C12.5155 3.79481 14.1796 5.4411 14.1906 7.47578C14.2016 9.51045 12.5553 11.1746 10.5206 11.1856Z" />
<path d="M15.6621 6.73047L20.8281 6.70259L20.8321 7.44048L15.6661 7.46836L15.6621 6.73047Z" />
<path d="M15.6699 8.20703L20.8359 8.17915L20.8399 8.91704L15.6739 8.94493L15.6699 8.20703Z" />
<path d="M15.6777 9.68359L20.8438 9.65571L20.8477 10.3936L15.6817 10.4215L15.6777 9.68359Z" />
<path d="M15.6855 11.1582L20.8516 11.1303L20.8555 11.8682L15.6895 11.8961L15.6855 11.1582Z" />
<path d="M6.09961 12.6855L13.1106 12.6477L13.1146 13.3856L6.10359 13.4234L6.09961 12.6855Z" />
<path d="M6.10742 14.1621L13.1184 14.1243L13.1224 14.8622L6.1114 14.9L6.10742 14.1621Z" />
<path d="M6.11523 15.6387L13.1262 15.6008L13.1302 16.3387L6.11922 16.3766L6.11523 15.6387Z" />
<path d="M6.12305 17.1152L13.134 17.0774L13.138 17.8153L6.12703 17.8531L6.12305 17.1152Z" />
<path d="M27.5219 16.2614L27.5179 15.5235L23.4589 15.5452C23.2552 15.5463 23.0908 15.7122 23.0919 15.9161L23.0939 16.2851L22.356 16.2891L22.2942 4.85034C22.2937 4.74817 22.2518 4.65611 22.1844 4.58964L19.2173 1.65431C19.1501 1.58766 19.0576 1.54678 18.9554 1.54733L4.93341 1.62301C4.72979 1.62411 4.56534 1.78997 4.56644 1.99395L4.68594 24.1336C4.68704 24.3376 4.85327 24.5017 5.05688 24.5006L22.0305 24.409C22.2342 24.4079 22.3986 24.242 22.3975 24.038L22.3875 22.1931L23.1254 22.1891L23.1274 22.5581C23.1285 22.7621 23.2948 22.9261 23.4984 22.925L27.5574 22.9031L27.5534 22.1652L23.8637 22.1853L23.8319 16.2815L27.5219 16.2614ZM19.3313 2.80491L21.0327 4.48804L19.3404 4.49717L19.3313 2.80491ZM21.6579 23.6731L5.42203 23.7608L5.30651 2.35888L18.5902 2.28719L18.6042 4.8702C18.6053 5.07418 18.7715 5.23826 18.9751 5.23716L21.5581 5.22322L21.6179 16.2931L21.0327 16.2962L19.766 15.0433L19.7548 12.9821C19.7537 12.7781 19.5875 12.614 19.3839 12.6151L19.0149 12.6171C18.2009 12.6215 17.5425 13.287 17.5469 14.101L17.5589 16.3149L14.2379 16.3328C14.0343 16.3339 13.8699 16.4998 13.871 16.7038L13.8988 21.8698C13.9021 22.4801 14.4016 22.9741 15.0118 22.9709L19.4398 22.947C19.497 22.9466 19.5538 22.933 19.6046 22.9072L20.9986 22.2006L21.6496 22.1971L21.6579 23.6731ZM20.908 21.4631C20.8509 21.4634 20.794 21.477 20.7433 21.5028L19.3489 22.2096L15.0081 22.233C14.8048 22.2341 14.6382 22.0697 14.6371 21.866L14.6351 21.4971L17.5872 21.4812L17.5832 20.7433L14.6312 20.7592L14.6272 20.0213L17.5792 20.0054L17.5752 19.2675L14.6232 19.2834L14.6192 18.5455L17.5712 18.5296L17.5672 17.7917L14.6152 17.8076L14.6113 17.0697L17.9322 17.0518C18.1358 17.0507 18.3003 16.8848 18.2992 16.6809L18.2852 14.0978C18.283 13.6908 18.6123 13.3582 19.0191 13.356L19.0291 15.2009C19.0296 15.299 19.0689 15.3926 19.1385 15.4612L20.6225 16.9292C20.6921 16.9975 20.7864 17.0357 20.8842 17.0351L23.098 17.0232L23.1219 21.4512L20.908 21.4631Z" />
</g>
<defs>
<filter id="filter0_d_2024_26987" x="0" y="0.9375" width="32.1289" height="32.1289" filterUnits="userSpaceOnUse" color-interpolation-filters="sRGB">
<feFlood flood-opacity="0" result="BackgroundImageFix"/>
<feColorMatrix in="SourceAlpha" type="matrix" values="0 0 0 0 0 0 0 0 0 0 0 0 0 0 0 0 0 0 127 0" result="hardAlpha"/>
<feOffset dy="4"/>
<feGaussianBlur stdDeviation="2"/>
<feComposite in2="hardAlpha" operator="out"/>
<feColorMatrix type="matrix" values="0 0 0 0 0 0 0 0 0 0 0 0 0 0 0 0 0 0 0.25 0"/>
<feBlend mode="normal" in2="BackgroundImageFix" result="effect1_dropShadow_2024_26987"/>
<feBlend mode="normal" in="SourceGraphic" in2="effect1_dropShadow_2024_26987" result="shape"/>
</filter>
<clipPath id="clip0_2024_26987">
<rect width="24" height="24" fill="white" transform="translate(4 1.06641) rotate(-0.309239)"/>
</clipPath>
</defs>
</svg>
