<svg width="30" height="30" viewBox="0 0 25 26" fill="none" xmlns="http://www.w3.org/2000/svg">
<g clip-path="url(#clip0_2024_26940)">
<path d="M8.50717 21.2041C8.42496 21.2046 8.34405 21.1746 8.28108 21.1109C8.15553 20.9867 8.15444 20.784 8.27864 20.6584L9.20598 19.721C9.51358 19.4101 9.87336 19.1674 10.2762 18.9976C10.679 18.8279 11.1052 18.7418 11.541 18.7394L16.3859 18.7133C17.1325 18.7092 17.903 18.3517 18.4513 17.7543L22.8032 12.6861C22.9788 12.481 23.075 12.2199 23.0735 11.9502C23.0718 11.6241 22.9299 11.3155 22.6819 11.1036C22.2119 10.7009 21.5022 10.7549 21.0994 11.2249L17.9212 14.9277C17.8062 15.0623 17.6036 15.0772 17.4704 14.9622C17.3372 14.8472 17.3209 14.6445 17.4359 14.5114L20.6143 10.8086C21.2471 10.0707 22.362 9.98709 23.0984 10.6185C23.4856 10.9517 23.7093 11.435 23.712 11.9469C23.7143 12.3704 23.5642 12.7812 23.2871 13.1026L18.9338 18.1751C18.9323 18.1782 18.9292 18.1797 18.9278 18.1828C18.6067 18.5335 18.2105 18.8266 17.7849 19.027C17.3336 19.2397 16.8649 19.349 16.3896 19.3515L11.5446 19.3777C10.8316 19.3815 10.1628 19.6624 9.66108 20.1696L8.73374 21.107C8.67165 21.171 8.58942 21.2035 8.50721 21.2039L8.50717 21.2041Z" fill="black"/>
<path d="M5.99688 23.741C5.91156 23.7414 5.83063 23.7084 5.77079 23.6477L0.53212 18.4653C0.406569 18.3411 0.405475 18.1384 0.529678 18.0128L3.04233 15.4729C3.10152 15.4131 3.18354 15.3777 3.26741 15.3772C3.35273 15.3768 3.43366 15.4098 3.4935 15.4705L8.73217 20.6529C8.85772 20.7771 8.85882 20.9798 8.73461 21.1054L6.22214 23.6451C6.16279 23.7066 6.08075 23.7405 5.99688 23.741ZM1.20883 18.2374L5.99272 22.9685L8.0537 20.8851L3.26981 16.1526L1.20883 18.2374Z" fill="black"/>
<path d="M16.3011 16.5655L11.1604 16.5932C10.9837 16.5942 10.8397 16.4518 10.8388 16.2751C10.8378 16.0984 10.9802 15.9544 11.1569 15.9535L16.299 15.9255C16.8918 15.9223 17.3705 15.4383 17.3673 14.8456C17.3671 14.8121 17.3655 14.7801 17.3622 14.7497L17.3622 14.7466C17.338 14.4984 17.227 14.2643 17.0494 14.0886C16.8456 13.887 16.5753 13.7773 16.2889 13.7788L6.66746 13.8308C5.95446 13.8346 5.28561 14.1154 4.78391 14.6226L3.49437 15.926C3.37016 16.0515 3.16747 16.0526 3.04192 15.9284C2.91637 15.8042 2.91528 15.6015 3.03948 15.476L4.32903 14.1724C4.63662 13.8615 4.99641 13.6188 5.39923 13.449C5.80205 13.2793 6.22825 13.1932 6.66404 13.1908L16.2841 13.1389C16.7411 13.1364 17.1732 13.3124 17.498 13.6337C17.783 13.9156 17.9602 14.2894 17.9988 14.6853C18.0036 14.7356 18.007 14.7889 18.0073 14.8422C18.0109 15.7868 17.2455 16.5603 16.3009 16.5654L16.3011 16.5655Z" fill="black"/>
<path d="M13.6882 4.91385L10.3549 4.93184M13.6972 6.58049L10.3639 6.59848M12.0485 9.92277L10.3729 8.26512L11.2062 8.26062C11.6482 8.25824 12.0712 8.08036 12.3821 7.76612C12.6929 7.45187 12.8662 7.02701 12.8638 6.58499C12.8615 6.14297 12.6836 5.72 12.3693 5.40913C12.0551 5.09826 11.6302 4.92495 11.1882 4.92734M17.0327 6.97916C17.0362 7.63576 16.9104 8.28663 16.6624 8.8946C16.4144 9.50258 16.0491 10.0558 15.5873 10.5225C15.1256 10.9893 14.5764 11.3606 13.9711 11.6151C13.3658 11.8697 12.7164 12.0025 12.0598 12.0061C11.4032 12.0096 10.7523 11.8838 10.1443 11.6358C9.53634 11.3878 8.98316 11.0225 8.51637 10.5607C8.04958 10.0989 7.67831 9.54973 7.42377 8.94447C7.16923 8.3392 7.03639 7.68973 7.03285 7.03313C7.02569 5.70707 7.5456 4.43247 8.47821 3.48974C9.41082 2.54701 10.6797 2.01337 12.0058 2.00622C13.3319 1.99906 14.6064 2.51897 15.5492 3.45158C16.4919 4.38419 17.0255 5.6531 17.0327 6.97916Z" stroke="#212121" stroke-width="0.8" stroke-linecap="round" stroke-linejoin="round"/>
</g>
<defs>
<clipPath id="clip0_2024_26940">
<rect width="24" height="24" fill="white" transform="translate(0 1.07031) rotate(-0.309239)"/>
</clipPath>
</defs>
</svg>
