<svg width="30" height="30" viewBox="0 0 25 26" fill="none" xmlns="http://www.w3.org/2000/svg">
<path d="M2.04901 3.36919C1.80579 3.39339 1.62123 3.59928 1.62365 3.84371L1.71343 20.478C1.72013 21.7198 2.74035 22.7307 3.98383 22.724L15.9912 22.6592C17.2344 22.6525 18.2512 21.6306 18.2445 20.3888L18.2401 19.5771C18.2387 19.3162 18.0261 19.1058 17.7654 19.1072L16.3483 19.1149L16.3391 17.3954L22.0066 17.3648C22.2676 17.3634 22.4779 17.1507 22.4765 16.89C22.4632 14.4202 20.6156 12.3839 18.1838 11.8872C19.3077 11.4131 20.1013 10.2962 20.0944 9.00609C20.0851 7.29663 18.6809 5.90657 16.9707 5.9158C15.2604 5.92503 13.8639 7.33021 13.8731 9.03967C13.8801 10.3322 14.6901 11.4395 15.8222 11.8999C13.3943 12.4228 11.5631 14.4789 11.5764 16.9488C11.5778 17.2096 11.7905 17.4199 12.0512 17.4185L15.3943 17.4005L15.4035 19.12L5.72119 19.1723C5.46045 19.1737 5.25012 19.3863 5.25153 19.6472L5.25591 20.4589C5.25577 20.4664 5.25581 20.4737 5.25603 20.481C5.28926 21.1759 4.75224 21.7296 4.05266 21.7717C4.03784 21.7736 4.02302 21.7761 4.00839 21.7793L3.97891 21.7794C3.24083 21.7834 2.66222 21.2061 2.65826 20.4729L2.57103 4.31115L15.3232 4.24232L15.3254 4.64826C15.3242 4.77461 15.374 4.89629 15.4633 4.98571C15.5524 5.07532 15.6738 5.12539 15.8004 5.1247C15.9267 5.12402 16.0476 5.07265 16.136 4.98208C16.2241 4.8917 16.2725 4.76949 16.27 4.64316L16.2653 3.76483C16.2639 3.50409 16.0512 3.29376 15.7905 3.29517L2.09336 3.36909C2.07853 3.36844 2.06388 3.36852 2.04905 3.36933L2.04901 3.36919ZM16.9758 6.868C18.1753 6.86153 19.1359 7.81237 19.1424 9.01133C19.1488 10.2101 18.1986 11.1787 16.9991 11.1852C15.7994 11.1917 14.8316 10.2334 14.8251 9.03463C14.8187 7.83568 15.7761 6.87448 16.9758 6.868ZM4.19723 7.60842C4.07202 7.61495 3.95441 7.67107 3.87049 7.76418C3.78658 7.85747 3.74312 7.9802 3.74965 8.10541C3.75619 8.23062 3.8123 8.34806 3.90541 8.43215C3.9987 8.51606 4.12144 8.55953 4.24664 8.55281L11.8037 8.51202C11.9301 8.51317 12.0518 8.46363 12.1414 8.37434C12.2308 8.28505 12.2809 8.16356 12.2802 8.03722C12.2795 7.91069 12.2281 7.78994 12.1377 7.70161C12.0472 7.6133 11.925 7.56507 11.7986 7.5674L4.24155 7.60819C4.22671 7.60772 4.21206 7.60779 4.19723 7.60842ZM4.20934 9.85197C4.08413 9.8585 3.96651 9.91444 3.8826 10.0077C3.79869 10.1008 3.75523 10.2236 3.76176 10.3488C3.7683 10.4742 3.82441 10.5916 3.91752 10.6755C4.01081 10.7594 4.13355 10.8029 4.25875 10.7964L11.8158 10.7556C11.9422 10.7567 12.0639 10.707 12.1535 10.6177C12.2429 10.5286 12.293 10.4071 12.2923 10.2806C12.2916 10.1542 12.2402 10.0333 12.1498 9.94498C12.0593 9.85684 11.9371 9.80843 11.8107 9.81094L4.25365 9.85173C4.23882 9.85108 4.22417 9.85115 4.20934 9.85197ZM4.22145 12.0955C4.09624 12.102 3.97862 12.158 3.89471 12.2511C3.8108 12.3444 3.76733 12.4671 3.77387 12.5923C3.78041 12.7175 3.83652 12.8351 3.92963 12.9191C4.02292 13.003 4.14565 13.0464 4.27086 13.0399L9.56203 13.0113C9.68857 13.0123 9.81007 12.9628 9.89968 12.8735C9.98929 12.7842 10.0394 12.6629 10.0387 12.5363C10.038 12.41 9.98661 12.2891 9.89605 12.2007C9.80548 12.1124 9.68345 12.0642 9.55694 12.0667L4.26576 12.0953C4.25093 12.0946 4.23628 12.0947 4.22145 12.0955ZM17.0073 12.7128C19.3393 12.7002 21.2125 14.3346 21.4776 16.423L12.5701 16.4711C12.8122 14.3798 14.6752 12.7254 17.0074 12.7128L17.0073 12.7128ZM4.23356 14.3389C4.10835 14.3455 3.99073 14.4016 3.90682 14.4947C3.82291 14.588 3.77944 14.7105 3.78598 14.8359C3.79251 14.9611 3.84863 15.0786 3.94174 15.1625C4.03503 15.2466 4.15776 15.2898 4.28297 15.2833L9.95054 15.2527C10.0769 15.2539 10.1986 15.2043 10.2882 15.115C10.3776 15.0257 10.4277 14.9043 10.427 14.7779C10.4263 14.6514 10.3749 14.5306 10.2846 14.4423C10.194 14.354 10.0718 14.3056 9.94545 14.3081L4.27787 14.3387C4.26304 14.338 4.24839 14.3381 4.23356 14.3389ZM4.24567 16.5825C4.12046 16.589 4.00284 16.6449 3.91893 16.7382C3.83502 16.8313 3.79155 16.9541 3.79809 17.0793C3.80462 17.2047 3.86074 17.3221 3.95385 17.406C4.04714 17.4899 4.16987 17.5334 4.29508 17.5269L9.96265 17.4963C10.089 17.4974 10.2107 17.4477 10.3003 17.3584C10.3897 17.2693 10.4398 17.1478 10.4391 17.0213C10.4384 16.8949 10.387 16.774 10.2967 16.6857C10.2061 16.5975 10.0839 16.5491 9.95755 16.5516L4.28998 16.5822C4.27515 16.5816 4.2605 16.5816 4.24567 16.5825ZM6.19836 20.1143L17.2977 20.0544L17.2996 20.3939C17.3035 21.127 16.7238 21.7106 15.9857 21.7146L5.76478 21.7697C6.03595 21.3945 6.21906 20.9532 6.20044 20.4538C6.20021 20.4463 6.20072 20.4393 6.20032 20.4316L6.19836 20.1143Z" />
</svg>
