<svg width="30" height="30" viewBox="0 0 25 26" fill="none" xmlns="http://www.w3.org/2000/svg">
<path d="M3.11277 22.0466L3.10198 20.0466C3.09625 18.9858 3.51218 17.9661 4.25827 17.2119C5.00436 16.4578 6.01948 16.0308 7.08033 16.0251L11.0803 16.0035C12.1411 15.9978 13.1608 16.4137 13.915 17.1598C14.6692 17.9059 15.0961 18.921 15.1018 19.9819L15.1126 21.9818M16.0161 4.10671C16.8777 4.32236 17.643 4.81864 18.1914 5.5173C18.7398 6.21596 19.0401 7.07726 19.0449 7.96542C19.0496 8.85358 18.7587 9.71807 18.2179 10.4226C17.6771 11.1271 16.9172 11.6317 16.058 11.8566M21.1125 21.9495L21.1017 19.9495C21.0919 19.0667 20.7903 18.2119 20.2439 17.5185C19.6975 16.825 18.937 16.3318 18.081 16.1157M5.03718 8.03602C5.04291 9.09687 5.46982 10.112 6.22401 10.8581C6.97819 11.6042 7.99786 12.0201 9.05872 12.0144C10.1196 12.0086 11.1347 11.5817 11.8808 10.8276C12.6269 10.0734 13.0428 9.0537 13.0371 7.99284C13.0313 6.93199 12.6044 5.91687 11.8502 5.17078C11.0961 4.4247 10.0764 4.00877 9.01554 4.01449C7.95469 4.02022 6.93956 4.44713 6.19347 5.20131C5.44739 5.9555 5.03146 6.97517 5.03718 8.03602Z" stroke="#212121" stroke-width="1.5" stroke-linecap="round" stroke-linejoin="round"/>
</svg>
