<svg width="30" height="30" viewBox="0 0 25 26" fill="none" xmlns="http://www.w3.org/2000/svg">
<g clip-path="url(#clip0_2024_26946)">
<path d="M22.0042 8.5209L19.4212 8.53484L19.3953 3.73772C19.3927 3.24831 19.1959 2.78005 18.848 2.43603C18.5 2.09184 18.0299 1.89992 17.5404 1.90257L2.78066 1.98223C2.29125 1.98487 1.82299 2.18186 1.47897 2.52978C1.13478 2.87753 0.942864 3.34789 0.945505 3.8373L1.04508 22.287C1.04772 22.7763 1.24471 23.2445 1.59263 23.5887C1.94038 23.9327 2.41074 24.1246 2.90016 24.122L22.0877 24.0184C22.381 24.0159 22.6615 23.8974 22.8678 23.689C23.074 23.4805 23.1894 23.1988 23.1888 22.9054L23.1171 9.6217C23.1146 9.32855 22.9961 9.04812 22.7877 8.84178C22.5791 8.63544 22.2974 8.52014 22.004 8.52081L22.0042 8.5209ZM17.5444 2.64098C17.8377 2.64031 18.1194 2.75561 18.328 2.96195C18.5366 3.16828 18.6549 3.44872 18.6574 3.74206L18.6833 8.53917L17.9452 8.54316L17.9313 5.96015C17.9317 5.86859 17.8968 5.78015 17.834 5.71348L15.0537 2.65466L17.5444 2.64098ZM14.5956 3.2509L16.7301 5.59746L14.9775 5.60692C14.7737 5.60802 14.6074 5.44376 14.6063 5.23996L14.5956 3.2509ZM12.1873 23.3342L2.89636 23.3843C2.60303 23.3852 2.32133 23.2697 2.11274 23.0634C1.90417 22.857 1.78583 22.5768 1.78333 22.2834L1.68376 3.83371C1.68309 3.54038 1.79839 3.25868 2.00473 3.0501C2.21106 2.84151 2.4915 2.72318 2.78483 2.72069L13.8547 2.66094L13.8686 5.24395C13.8711 5.53727 13.9894 5.81771 14.198 6.02387C14.4066 6.23021 14.6883 6.34569 14.9816 6.34484L17.1955 6.33289L17.2075 8.54676L13.1484 8.56885C12.8551 8.57135 12.5747 8.68969 12.3685 8.89826C12.1622 9.10684 12.0467 9.38854 12.0475 9.6817L12.1192 22.9654C12.1208 23.0914 12.144 23.216 12.1875 23.334L12.1873 23.3342ZM22.4508 22.9098C22.4513 23.0078 22.413 23.1018 22.3442 23.1713C22.2753 23.2409 22.1818 23.2802 22.0838 23.2808L13.2279 23.3286C13.0241 23.3297 12.858 23.1654 12.8569 22.9616L12.7852 9.6779C12.7841 9.47411 12.9484 9.30806 13.1522 9.30696L22.0082 9.25916C22.1061 9.25863 22.2001 9.29713 22.2697 9.36578C22.3393 9.43462 22.3786 9.52835 22.3791 9.62612L22.4508 22.9098Z" />
<path d="M20.9054 10.0031L14.2633 10.039C14.0676 10.04 13.8803 10.1187 13.7426 10.2579C13.6049 10.397 13.5283 10.5851 13.5294 10.7809L13.5413 12.9949C13.5424 13.1907 13.621 13.3779 13.7602 13.5156C13.8994 13.6531 14.0875 13.7299 14.2832 13.7289L20.9253 13.693C21.121 13.692 21.3083 13.6131 21.446 13.4741C21.5837 13.335 21.6605 13.1469 21.6594 12.9511L21.6475 10.7371C21.6464 10.5413 21.5676 10.3541 21.4284 10.2164C21.2892 10.0787 21.1011 10.0021 20.9054 10.0031ZM14.2792 12.991L14.2673 10.7769L20.9094 10.7411L20.9213 12.955L14.2792 12.991Z" />
<path d="M18.6992 11.4902L19.4371 11.4863L19.4411 12.2241L18.7032 12.2281L18.6992 11.4902Z" />
<path d="M17.2227 11.498L17.9606 11.4941L17.9645 12.232L17.2266 12.2359L17.2227 11.498Z" />
<path d="M15.748 11.5059L16.4859 11.5019L16.4899 12.2398L15.752 12.2438L15.748 11.5059Z" />
<path d="M15.4113 17.4119L13.9354 17.4199C13.7316 17.421 13.5673 17.5872 13.5684 17.791L13.5764 19.267C13.5769 19.3648 13.6162 19.4585 13.6858 19.5273C13.7554 19.5962 13.8494 19.6345 13.9473 19.6339L15.4233 19.626C15.5211 19.6255 15.6148 19.5861 15.6836 19.5165C15.7525 19.447 15.7908 19.3528 15.7902 19.255L15.7823 17.7791C15.7818 17.6811 15.7424 17.5876 15.6728 17.5187C15.6033 17.4499 15.5091 17.4114 15.4113 17.4119ZM15.0504 18.8899L14.3123 18.8939L14.3083 18.156L15.0462 18.152L15.0504 18.8899Z" />
<path d="M15.3938 14.4607L13.9178 14.4687C13.714 14.4698 13.5497 14.6359 13.5508 14.8397L13.5588 16.3156C13.5593 16.4134 13.5986 16.5071 13.6682 16.576C13.7378 16.6448 13.8318 16.6831 13.9297 16.6826L15.4057 16.6746C15.5035 16.6741 15.5972 16.6348 15.666 16.5652C15.7349 16.4956 15.7732 16.4015 15.7727 16.3037L15.7647 14.8277C15.7642 14.7297 15.7249 14.6362 15.6553 14.5674C15.5857 14.4985 15.4915 14.4602 15.3938 14.4607ZM15.0328 15.9387L14.2947 15.9427L14.2907 15.2046L15.0286 15.2006L15.0328 15.9387Z" />
<path d="M18.3471 14.4451L16.8711 14.4531C16.6673 14.4542 16.5028 14.6202 16.5039 14.824L16.5119 16.3C16.5124 16.3978 16.5519 16.4915 16.6215 16.5603C16.6911 16.6292 16.7851 16.6675 16.883 16.667L18.359 16.659C18.4568 16.6585 18.5505 16.6192 18.6194 16.5496C18.6882 16.48 18.7265 16.3858 18.726 16.2881L18.718 14.8121C18.7175 14.7141 18.6782 14.6206 18.6086 14.5517C18.539 14.4829 18.4448 14.4446 18.3471 14.4451ZM17.9861 15.9231L17.248 15.9271L17.244 15.189L17.9819 15.185L17.9861 15.9231Z" />
<path d="M21.2982 14.4295L19.8223 14.4375C19.6185 14.4386 19.454 14.6046 19.4551 14.8084L19.4631 16.2844C19.4636 16.3822 19.5031 16.4759 19.5727 16.5447C19.6423 16.6136 19.7363 16.6519 19.8342 16.6513L21.3102 16.6434C21.408 16.6429 21.5017 16.6035 21.5705 16.5339C21.6392 16.4644 21.6777 16.3702 21.6771 16.2724L21.6692 14.7965C21.6687 14.6985 21.6291 14.605 21.5597 14.5361C21.4902 14.4673 21.396 14.429 21.2982 14.4295ZM20.9373 15.9075L20.1992 15.9114L20.1952 15.1734L20.9331 15.1694L20.9373 15.9075Z" />
<path d="M18.3627 17.3963L16.8867 17.4043C16.6829 17.4054 16.5185 17.5716 16.5196 17.7754L16.5275 19.2514C16.5281 19.3491 16.5676 19.4429 16.6372 19.5117C16.7067 19.5805 16.8007 19.6189 16.8987 19.6183L18.3746 19.6104C18.4724 19.6098 18.5661 19.5705 18.635 19.5009C18.7038 19.4313 18.7421 19.3372 18.7416 19.2394L18.7336 17.7634C18.7331 17.6655 18.6938 17.5719 18.6242 17.5031C18.5546 17.4343 18.4605 17.3958 18.3627 17.3963ZM18.0017 18.8743L17.2636 18.8782L17.2596 18.1403L17.9975 18.1364L18.0017 18.8743Z" />
<path d="M21.3139 17.3807L19.8379 17.3886C19.6341 17.3897 19.4696 17.556 19.4707 17.7598L19.4787 19.2357C19.4792 19.3335 19.5187 19.4272 19.5883 19.4961C19.6579 19.5649 19.7519 19.6032 19.8498 19.6027L21.3258 19.5947C21.4236 19.5942 21.5173 19.5549 21.5862 19.4853C21.6548 19.4157 21.6933 19.3216 21.6928 19.2238L21.6848 17.7478C21.6843 17.6499 21.6448 17.5563 21.5754 17.4875C21.5058 17.4186 21.4116 17.3801 21.3139 17.3807ZM20.9529 18.8586L20.2148 18.8626L20.2108 18.1247L20.9487 18.1207L20.9529 18.8586Z" />
<path d="M15.427 20.365L13.951 20.373C13.7472 20.3741 13.5829 20.5403 13.584 20.7441L13.592 22.2201C13.5925 22.3179 13.6318 22.4116 13.7014 22.4805C13.771 22.5491 13.865 22.5876 13.9629 22.5871L15.4389 22.5791C15.5367 22.5786 15.6304 22.5391 15.6993 22.4697C15.7681 22.4001 15.8064 22.3059 15.8059 22.2082L15.7979 20.7322C15.7974 20.6342 15.7581 20.5407 15.6885 20.4718C15.6189 20.403 15.5247 20.3645 15.427 20.365ZM15.066 21.843L14.3279 21.847L14.3239 21.1091L15.0618 21.1051L15.066 21.843Z" />
<path d="M18.3783 20.3494L16.9023 20.3574C16.6985 20.3585 16.5341 20.5247 16.5352 20.7285L16.5432 22.2045C16.5437 22.3023 16.5832 22.396 16.6528 22.4648C16.7224 22.5335 16.8163 22.572 16.9143 22.5714L18.3903 22.5635C18.488 22.563 18.5818 22.5234 18.6506 22.454C18.7194 22.3845 18.7578 22.2903 18.7572 22.1925L18.7493 20.7166C18.7487 20.6186 18.7094 20.5251 18.6398 20.4562C18.5702 20.3874 18.4761 20.3489 18.3783 20.3494ZM18.0173 21.8274L17.2792 21.8314L17.2753 21.0935L18.0132 21.0895L18.0173 21.8274Z" />
<path d="M21.3295 20.3318L19.8535 20.3398C19.6497 20.3409 19.4853 20.5071 19.4864 20.7109L19.4943 22.1869C19.4949 22.2847 19.5344 22.3784 19.604 22.4472C19.6735 22.5159 19.7675 22.5544 19.8655 22.5539L21.3414 22.5459C21.4392 22.5454 21.5329 22.5059 21.6018 22.4365C21.6704 22.3669 21.7089 22.2727 21.7084 22.175L21.7004 20.699C21.6999 20.601 21.6604 20.5075 21.591 20.4386C21.5214 20.3698 21.4273 20.3313 21.3295 20.3318ZM20.9685 21.8098L20.2304 21.8138L20.2264 21.0759L20.9643 21.0719L20.9685 21.8098Z" />
<path d="M3.29538 8.72876L7.69947 4.27688L8.22413 4.79592L3.82005 9.2478L3.29538 8.72876Z" />
<path d="M4.28109 6.40126C4.5746 6.39968 4.85561 6.28152 5.06209 6.07294C5.26843 5.86419 5.38355 5.58192 5.38196 5.28844C5.38038 4.99475 5.26222 4.71378 5.05365 4.50744C4.84489 4.30092 4.56262 4.1858 4.26914 4.18738C3.97544 4.18897 3.69448 4.30713 3.48814 4.51589C3.28162 4.72446 3.1665 5.00672 3.16808 5.30039C3.16967 5.5939 3.28783 5.87491 3.49659 6.08139C3.70516 6.28773 3.98742 6.40285 4.28109 6.40126ZM4.27312 4.92528C4.42235 4.92448 4.55742 5.01366 4.61511 5.15123C4.67298 5.28879 4.64234 5.44771 4.53744 5.55393C4.43236 5.65997 4.27378 5.69232 4.1356 5.63594C3.99742 5.57974 3.90679 5.44564 3.90598 5.29641C3.90488 5.09262 4.06933 4.92638 4.27312 4.92528Z" />
<path d="M7.23594 7.12488C6.94224 7.12647 6.66128 7.24463 6.45493 7.45339C6.24841 7.66196 6.1333 7.94422 6.13488 8.23789C6.13647 8.5314 6.25462 8.81241 6.46338 9.01871C6.67196 9.22523 6.95422 9.34034 7.24789 9.33876C7.5414 9.33717 7.8224 9.21902 8.0287 9.01026C8.23522 8.80168 8.35034 8.51942 8.34876 8.22594C8.34717 7.93225 8.22901 7.65128 8.02025 7.44494C7.81168 7.23842 7.52942 7.1233 7.23594 7.12488ZM7.2439 8.60086C7.09449 8.60167 6.95961 8.51249 6.90174 8.37492C6.84386 8.23735 6.8745 8.07844 6.97958 7.9724C7.08448 7.86618 7.24306 7.83383 7.38124 7.89021C7.51943 7.9466 7.61006 8.08051 7.61086 8.22992C7.61139 8.32769 7.5729 8.42184 7.50424 8.49142C7.4354 8.56083 7.34168 8.60034 7.2439 8.60086Z" />
<path d="M9.43359 4.16016L13.1235 4.14024L13.1275 4.87814L9.43758 4.89805L9.43359 4.16016Z" />
<path d="M9.44336 5.63672L13.1333 5.6168L13.1372 6.3547L9.44734 6.37461L9.44336 5.63672Z" />
<path d="M9.45117 7.11328L13.1411 7.09337L13.1451 7.83126L9.45515 7.85118L9.45117 7.11328Z" />
<path d="M3.19727 10.8359L4.67324 10.828L4.67723 11.5659L3.20125 11.5738L3.19727 10.8359Z" />
<path d="M5.41211 10.8242L10.5781 10.7963L10.5821 11.5342L5.41609 11.5621L5.41211 10.8242Z" />
<path d="M3.20508 12.3125L4.68106 12.3045L4.68504 13.0424L3.20906 13.0504L3.20508 12.3125Z" />
<path d="M5.41992 12.3008L10.5859 12.2729L10.5899 13.0108L5.4239 13.0387L5.41992 12.3008Z" />
<path d="M3.21289 13.7871L4.68887 13.7791L4.69285 14.517L3.21687 14.525L3.21289 13.7871Z" />
<path d="M5.42773 13.7754L10.5938 13.7475L10.5977 14.4854L5.43172 14.5133L5.42773 13.7754Z" />
<path d="M3.2207 15.2637L4.69668 15.2557L4.70066 15.9936L3.22469 16.0016L3.2207 15.2637Z" />
<path d="M5.43555 15.252L10.6016 15.2241L10.6055 15.962L5.43953 15.9898L5.43555 15.252Z" />
<path d="M3.22852 16.7402L4.70449 16.7323L4.70848 17.4702L3.2325 17.4781L3.22852 16.7402Z" />
<path d="M5.44336 16.7285L10.6094 16.7006L10.6134 17.4385L5.44734 17.4664L5.44336 16.7285Z" />
<path d="M3.23828 18.2168L4.71426 18.2088L4.71824 18.9467L3.24226 18.9547L3.23828 18.2168Z" />
<path d="M5.45117 18.2051L10.6172 18.1772L10.6212 18.9151L5.45515 18.943L5.45117 18.2051Z" />
</g>
<defs>
<clipPath id="clip0_2024_26946">
<rect width="24" height="24" fill="white" transform="translate(0 1.06641) rotate(-0.309239)"/>
</clipPath>
</defs>
</svg>
