<svg width="30" height="30" viewBox="0 0 20 21" fill="none" xmlns="http://www.w3.org/2000/svg">
<path d="M17.3208 1.91797H9.6653C9.50783 1.91797 9.38973 2.03607 9.38973 2.19354V4.27956H7.04781C6.41809 4.27956 5.90629 4.7912 5.90629 5.42108V16.1664H3.54484C2.91512 16.1664 2.40332 16.678 2.40332 17.3079V18.7839C2.40332 18.9414 2.52142 19.0595 2.67889 19.0595H10.3148C10.4723 19.0595 10.5904 18.9414 10.5904 18.7839V18.4493L12.952 18.4494C13.5817 18.4494 14.0935 17.9378 14.0935 17.3079L14.0934 11.3845V11.3648C14.7231 10.4201 15.2546 9.41638 15.6481 8.37345L16.1991 6.93685C16.2384 6.81875 16.2384 6.68096 16.1991 6.58254H16.4747C17.1044 6.58254 17.6162 6.0709 17.6162 5.44102V2.19379C17.5965 2.03632 17.4784 1.91821 17.3209 1.91821L17.3208 1.91797ZM10.0591 18.5281H2.97429V17.3277C2.97429 16.9931 3.24986 16.7374 3.56464 16.7374H10.2166C10.1182 16.9145 10.0394 17.1114 10.0394 17.3277V18.5281H10.0591ZM10.61 17.3276C10.61 16.993 10.8856 16.7372 11.2004 16.7372C11.535 16.7372 11.7907 17.0128 11.7907 17.3276C11.7907 17.5441 11.8498 17.7605 11.9679 17.9179H10.61L10.61 17.3276ZM13.5423 17.3276C13.5423 17.6622 13.2667 17.9179 12.9519 17.9179C12.6173 17.9179 12.3616 17.6424 12.3616 17.3276C12.3616 16.6979 11.8499 16.1861 11.2201 16.1861H6.45757V5.42121C6.45757 5.08659 6.73314 4.83086 7.04792 4.83086H13.6999C13.6015 5.00802 13.5227 5.20485 13.5227 5.42121V8.92434C13.5227 8.9637 13.5227 8.98339 13.5424 9.02275C13.1292 9.65248 12.7552 10.3413 12.4403 11.0301C12.4009 10.9907 12.3418 10.971 12.2631 10.971H7.50059C7.34313 10.971 7.22502 11.0891 7.22502 11.2466C7.22502 11.4041 7.34312 11.5222 7.50059 11.5222H12.2631C12.204 11.6599 12.1647 11.778 12.1056 11.9158L12.0072 12.1914C11.9678 12.152 11.9088 12.1324 11.8497 12.1324L7.50052 12.1322C7.34305 12.1322 7.22495 12.2503 7.22495 12.4078C7.22495 12.5652 7.34305 12.6833 7.50052 12.6833H11.8107L11.5942 13.2934C11.5745 13.3524 11.5548 13.4312 11.5548 13.4902L10.6495 14.3168C10.6101 14.3562 10.5707 14.4152 10.5707 14.4743L10.3739 15.6943C10.3542 15.8124 10.4133 15.9109 10.5117 15.9699C10.5511 16.0091 10.5904 16.0091 10.6298 16.0091C10.6888 16.0091 10.7479 15.9894 10.8069 15.9501L11.7713 15.1629C11.8107 15.1235 11.8501 15.0645 11.8697 15.0054L12.1256 13.805C12.1847 13.7853 12.2437 13.7263 12.2831 13.6869L13.2081 12.5454C13.3262 12.4076 13.4246 12.2698 13.5427 12.1322L13.5423 17.3276ZM15.2939 5.42133C15.2939 5.63785 15.3529 5.85422 15.471 6.01168H14.0934V5.42133C14.0934 5.0867 14.369 4.83098 14.6838 4.83098C15.0183 4.83098 15.2939 5.08671 15.2939 5.42133ZM11.4366 14.3366L11.3382 14.7891L11.0232 15.045L11.0823 14.6318L11.4366 14.3366ZM15.1167 8.1768C14.5657 9.63309 13.7588 11.0107 12.7748 12.2112L12.4008 12.6441L12.5976 12.1127C13.129 10.6564 13.9358 9.25918 14.9199 8.07836L15.3135 7.58641L15.1167 8.1768ZM14.5264 7.72406C14.3886 7.90122 14.2311 8.07837 14.0935 8.27504V6.58254H15.4514L14.5264 7.72406ZM16.4549 6.03156C16.1203 6.03156 15.8646 5.75599 15.8646 5.44121C15.8646 4.81148 15.3529 4.29969 14.723 4.29969H9.941V2.46953H17.0258V5.42148C17.0455 5.75611 16.7699 6.03152 16.4549 6.03152L16.4549 6.03156ZM7.22483 6.6416C7.22483 6.48413 7.34293 6.36603 7.50041 6.36603H9.90138C10.0589 6.36603 10.177 6.48413 10.177 6.6416C10.177 6.79908 10.0589 6.91718 9.90138 6.91718H7.50041C7.34294 6.91718 7.22483 6.79908 7.22483 6.6416ZM7.22483 7.78313C7.22483 7.62566 7.34293 7.50755 7.50041 7.50755H12.3024C12.4598 7.50755 12.5779 7.62565 12.5779 7.78313C12.5779 7.9406 12.4598 8.0587 12.3024 8.0587H7.50041C7.34294 8.0587 7.22483 7.9406 7.22483 7.78313ZM7.22483 8.94434C7.22483 8.78687 7.34293 8.66876 7.50041 8.66876H12.3024C12.4598 8.66876 12.5779 8.78686 12.5779 8.94434C12.5779 9.10181 12.4598 9.21991 12.3024 9.21991L7.50041 9.21976C7.34294 9.21976 7.22483 9.08197 7.22483 8.94434ZM7.22483 10.1054C7.22483 9.94792 7.34293 9.82982 7.50041 9.82982H12.3024C12.4598 9.82982 12.5779 9.94792 12.5779 10.1054C12.5779 10.2629 12.4598 10.381 12.3024 10.381H7.50041C7.34294 10.381 7.22483 10.2432 7.22483 10.1054ZM10.0981 15.1238C10.0981 15.2812 9.97997 15.3993 9.8225 15.3993C9.66503 15.3993 9.54693 15.2812 9.54693 15.1238V15.0844C9.38946 15.0844 9.0156 15.2615 8.77943 15.36C8.40543 15.5371 8.05126 15.6946 7.77572 15.6946C7.65761 15.6946 7.55919 15.6749 7.46077 15.6158C7.36236 15.5568 7.22457 15.3993 7.22457 15.1239C7.22457 14.9664 7.34267 14.8483 7.50014 14.8483C7.65761 14.8483 7.77572 14.9664 7.77572 15.1239V15.1633C7.93318 15.1633 8.30704 14.9861 8.54321 14.8877C9.07454 14.6515 9.52724 14.4351 9.86173 14.6318C9.96045 14.6907 10.0981 14.8285 10.0981 15.1238Z" />
</svg>
