<svg width="30" height="30" viewBox="0 0 25 26" fill="none" xmlns="http://www.w3.org/2000/svg">
<path d="M19.8829 17.9162L4.29677 18.0003C2.7382 18.0087 1.46977 19.2909 1.47819 20.8495C1.4866 22.4081 2.76879 23.6765 4.32736 23.6681L19.914 23.584C21.4726 23.5756 22.741 22.2934 22.7326 20.7348C22.724 19.1762 21.442 17.9078 19.8832 17.9162L19.8829 17.9162ZM19.9084 22.6393L4.32226 22.7234C3.28315 22.729 2.4284 21.8834 2.4228 20.8443C2.41719 19.8052 3.26276 18.9505 4.30187 18.9448L19.8885 18.8607C20.9276 18.8551 21.7824 19.7007 21.788 20.7398C21.7934 21.7789 20.9478 22.6337 19.9087 22.6393L19.9084 22.6393Z" />
<path d="M10.4504 20.3276L4.31029 20.3607C4.05047 20.3621 3.83904 20.5759 3.84044 20.8357C3.84184 21.0955 4.05557 21.3069 4.31539 21.3055L10.4555 21.2724C10.7153 21.271 10.9267 21.0573 10.9253 20.7974C10.9237 20.5376 10.71 20.3262 10.4502 20.3276L10.4504 20.3276Z" />
<path d="M5.47378 8.59164L6.32687 9.13014C6.30453 9.36647 6.30593 9.6261 6.33082 9.86217L5.4836 10.4098C5.03634 10.6957 4.85073 11.2871 5.06582 11.782L5.52034 12.8423C5.73561 13.337 6.25659 13.6176 6.79922 13.4965L7.76631 13.2787C7.93267 13.4668 8.09891 13.6313 8.28858 13.7954L8.08122 14.7648C7.96592 15.2849 8.25229 15.8266 8.74914 16.0129L9.83792 16.4558C9.97989 16.5023 10.1219 16.5488 10.2636 16.548C10.6415 16.546 10.9946 16.3551 11.2054 16.0234L11.7439 15.1703C11.9802 15.1927 12.2399 15.1913 12.4759 15.1664L13.0236 16.0136C13.3095 16.4609 13.9008 16.6465 14.3957 16.4314L15.456 15.9769C15.9507 15.7616 16.2314 15.2406 16.1103 14.698L15.8925 13.7309C16.0806 13.5645 16.245 13.3983 16.4091 13.2086L17.3785 13.416C17.8986 13.5313 18.4404 13.2449 18.6503 12.748L19.0932 11.6592C19.3031 11.1622 19.1111 10.5963 18.6606 10.2917L17.8075 9.75316C17.8299 9.51683 17.8285 9.2572 17.8036 9.02113L18.6508 8.47345C19.0981 8.18759 19.2837 7.59623 19.0686 7.10135L18.6141 6.04104C18.3988 5.54635 17.8778 5.2657 17.3352 5.38676L16.3681 5.60457C16.2017 5.4165 16.0355 5.25205 15.8458 5.08791L16.0532 4.11853C16.1685 3.59843 15.8821 3.05669 15.3852 2.84679L14.2964 2.40387C13.7994 2.19396 13.2335 2.38598 12.9289 2.83642L12.3904 3.68951C12.154 3.66717 11.8944 3.66857 11.6583 3.69347L11.1107 2.84624C10.8248 2.39898 10.2334 2.21337 9.73855 2.42847L8.67824 2.88299C8.18355 3.09825 7.9029 3.61923 8.02396 4.16186L8.24177 5.12895C8.0537 5.29531 7.88925 5.46155 7.72511 5.65122L6.75573 5.44386C6.23563 5.32856 5.69389 5.61493 5.48399 6.1119L5.04107 7.20068C4.83141 7.74492 5.02347 8.3108 5.47378 8.59164ZM5.89341 7.59749L6.33633 6.5087C6.35957 6.43772 6.45379 6.38997 6.52478 6.41321L7.77787 6.66627C7.96708 6.71249 8.15566 6.64061 8.24937 6.49838C8.48405 6.21366 8.74215 5.929 9.02445 5.71489C9.16554 5.59603 9.23538 5.40668 9.18724 5.2416L8.89704 3.99145C8.87304 3.92071 8.91977 3.82598 8.9905 3.80198L10.0508 3.34746C10.1215 3.32345 10.2162 3.34656 10.2638 3.41717L10.9543 4.47621C11.0497 4.64104 11.239 4.71088 11.428 4.70986C11.8056 4.66058 12.1598 4.65867 12.538 4.70387C12.7271 4.72647 12.8919 4.6311 12.9856 4.48886L13.6645 3.39881C13.7345 3.30431 13.8289 3.28018 13.8999 3.30342L14.9886 3.74634C15.0596 3.76958 15.1074 3.86381 15.0841 3.93479L14.8074 5.18782C14.7612 5.37703 14.8331 5.56562 14.9755 5.68276C15.2602 5.91744 15.5448 6.17554 15.7589 6.45784C15.8778 6.59893 16.0672 6.66877 16.2322 6.62063L17.4824 6.33043C17.5531 6.30643 17.6479 6.35316 17.6719 6.42389L18.1264 7.48421C18.1504 7.55494 18.1273 7.64955 18.0567 7.69717L16.974 8.38782C16.8092 8.4832 16.7393 8.67254 16.7638 8.83775C16.8131 9.21542 16.815 9.56954 16.7698 9.94774C16.7472 10.1368 16.8426 10.3017 16.9848 10.3954L18.0749 11.0743C18.146 11.1212 18.17 11.1919 18.1468 11.2629L17.7039 12.3517C17.7279 12.4694 17.6336 12.4936 17.5627 12.494L16.3095 12.2173C16.1203 12.1711 15.9317 12.2429 15.838 12.3852C15.6033 12.6699 15.3452 12.9545 15.0629 13.1687C14.9218 13.2875 14.852 13.4769 14.9001 13.6419L15.1903 14.8921C15.2143 14.9628 15.1676 15.0576 15.0969 15.0816L14.0366 15.5361C13.9658 15.5601 13.8712 15.537 13.8236 15.4664L13.1331 14.4073C13.0377 14.2425 12.8483 14.1727 12.6595 14.1973C12.2819 14.2466 11.9277 14.2485 11.5495 14.2033C11.3605 14.1807 11.1956 14.2761 11.102 14.4419L10.4231 15.532C10.3528 15.603 10.2586 15.6272 10.1877 15.6039L9.09887 15.161C9.02788 15.1378 9.00375 15.0434 9.00337 14.9727L9.25644 13.7197C9.30266 13.5304 9.23078 13.3419 9.08855 13.2481C8.80383 13.0135 8.51916 12.7554 8.30506 12.4731C8.18619 12.332 7.99685 12.2621 7.83177 12.3103L6.58161 12.6005C6.51088 12.6245 6.41615 12.5777 6.39214 12.507L5.93762 11.4467C5.91362 11.376 5.93673 11.2814 6.00734 11.2337L7.06637 10.5432C7.2312 10.4478 7.32467 10.2584 7.30003 10.0695C7.25075 9.69187 7.24884 9.33776 7.29404 8.95955C7.31664 8.77047 7.22127 8.60563 7.07903 8.51192L5.98898 7.83299C5.8943 7.76283 5.87017 7.66848 5.89341 7.59749Z" />
<path d="M11.3536 12.6938C11.5901 12.7397 11.8264 12.7621 12.0624 12.7608C13.5738 12.7526 14.9378 11.6825 15.2838 10.1456C15.6758 8.37233 14.5327 6.6073 12.7357 6.21542C10.9624 5.82343 9.19739 6.96657 8.8055 8.76351C8.43714 10.5367 9.58028 12.3017 11.3536 12.6937L11.3536 12.6938ZM9.72768 8.97113C9.9579 7.85987 10.9457 7.09886 12.032 7.09299C12.1974 7.0921 12.3628 7.11483 12.5281 7.13756C13.805 7.41412 14.6146 8.66129 14.3381 9.93813C14.0615 11.215 12.8143 12.0246 11.5375 11.7481C10.2844 11.495 9.45099 10.2243 9.72768 8.97113Z" />
</svg>
