<svg width="30" height="30" viewBox="0 0 25 26" fill="none" xmlns="http://www.w3.org/2000/svg">
<g clip-path="url(#clip0_2024_27001)">
<path d="M21.5242 1.24231L2.47826 1.34511C2.21752 1.34651 2.007 1.55932 2.00841 1.82006L2.12969 24.2911C2.1311 24.5519 2.34391 24.7624 2.60464 24.761L21.6506 24.6582C21.9114 24.6568 22.1219 24.444 22.1205 24.1832L22.0788 16.4926L21.999 1.71216C21.9976 1.45124 21.7851 1.24109 21.5242 1.2425L21.5242 1.24231ZM21.1459 18.6685L19.0563 18.6798L19.0471 16.9812L21.1367 16.9699L21.1459 18.6685ZM19.0618 19.6244L21.1513 19.6131L21.1592 21.0717L19.0697 21.083L19.0618 19.6244ZM21.1316 16.0252L18.57 16.039C18.3093 16.0405 18.0988 16.2533 18.1002 16.514L18.1391 23.7317L5.14463 23.8017L5.02844 2.27556L21.0571 2.18905L21.1316 16.0252ZM2.95594 2.28703L4.08402 2.28094L4.2002 23.807L3.07213 23.8131L2.95594 2.28703ZM19.0839 23.7267L19.0748 22.0275L21.1643 22.0162L21.1735 23.7154L19.0839 23.7267Z" />
<path d="M7.21383 4.96764L18.1491 4.90862C18.4099 4.90721 18.6204 4.6944 18.619 4.43367C18.6176 4.17294 18.4048 3.96241 18.144 3.96382L7.20873 4.02302C6.94799 4.02443 6.73747 4.23724 6.73888 4.49797C6.74029 4.75871 6.95309 4.96905 7.21383 4.96764Z" />
<path d="M7.22555 7.1317L15.6976 7.08598C15.9583 7.08457 16.1689 6.87176 16.1675 6.61103C16.1661 6.35029 15.9532 6.13977 15.6925 6.14118L7.22045 6.18709C6.95971 6.18849 6.74919 6.4013 6.7506 6.66204C6.752 6.92259 6.96481 7.13311 7.22555 7.1317Z" />
<path d="M13.1205 8.31723L7.23217 8.34901C6.97143 8.35042 6.76091 8.56323 6.76232 8.82396C6.76372 9.0847 6.97653 9.29522 7.23726 9.29381L13.1256 9.26185C13.3864 9.26044 13.5969 9.04763 13.5955 8.7869C13.5939 8.52616 13.3814 8.31582 13.1205 8.31723Z" />
</g>
<defs>
<clipPath id="clip0_2024_27001">
<rect width="24" height="24" fill="white" transform="translate(0 1.06641) rotate(-0.309239)"/>
</clipPath>
</defs>
</svg>
