<svg width="30" height="30" viewBox="0 0 30 30" fill="none" xmlns="http://www.w3.org/2000/svg">
<path d="M15.0525 14.0781C14.9556 14.0781 14.877 14.1562 14.877 14.2532C14.877 14.3501 14.9556 14.4287 15.0525 14.4287C15.1495 14.4287 15.2281 14.3501 15.2281 14.2532C15.2281 14.1562 15.1495 14.0781 15.0525 14.0781ZM15.0342 14.3826C14.9729 14.3826 14.9231 14.3333 14.9231 14.272C14.9231 14.2112 14.9729 14.1615 15.0342 14.1615C15.095 14.1615 15.1448 14.2112 15.1448 14.272C15.1448 14.3333 15.095 14.3826 15.0342 14.3826Z" />
<path d="M15.1068 14.27C15.1068 14.3093 15.0749 14.3412 15.0361 14.3412C14.9968 14.3412 14.9648 14.3092 14.9648 14.27C14.9648 14.2312 14.9968 14.1992 15.0361 14.1992C15.0482 14.1992 15.0602 14.2024 15.0702 14.2086C15.0565 14.2102 15.0466 14.2223 15.0466 14.2359C15.0466 14.2511 15.0586 14.2637 15.0743 14.2637C15.0869 14.2637 15.0979 14.2548 15.1011 14.2432C15.1047 14.2516 15.1068 14.2605 15.1068 14.27Z" />
<path d="M14.5515 14.0781C14.4546 14.0781 14.376 14.1562 14.376 14.2532C14.376 14.3501 14.4546 14.4287 14.5515 14.4287C14.6485 14.4287 14.7271 14.3501 14.7271 14.2532C14.7271 14.1562 14.6485 14.0781 14.5515 14.0781ZM14.5699 14.3826C14.5086 14.3826 14.4593 14.3333 14.4593 14.272C14.4593 14.2112 14.5086 14.1615 14.5699 14.1615C14.6312 14.1615 14.6805 14.2112 14.6805 14.272C14.6805 14.3333 14.6312 14.3826 14.5699 14.3826Z" />
<path d="M14.6411 14.27C14.6411 14.3093 14.6091 14.3412 14.5698 14.3412C14.5304 14.3412 14.499 14.3092 14.499 14.27C14.499 14.2605 14.5011 14.2516 14.5048 14.2432C14.5079 14.2548 14.519 14.2637 14.5315 14.2637C14.5467 14.2637 14.5593 14.2511 14.5593 14.2359C14.5593 14.2217 14.5488 14.2102 14.5352 14.2086C14.5451 14.2024 14.5572 14.1992 14.5698 14.1992C14.6091 14.1992 14.6411 14.2312 14.6411 14.27Z" />
<path d="M14.7993 15.3438C14.7305 15.3438 14.6748 15.3994 14.6748 15.4683C14.6748 15.5369 14.7305 15.5926 14.7993 15.5926C14.8679 15.5926 14.9236 15.5369 14.9236 15.4683C14.9236 15.3994 14.8679 15.3438 14.7993 15.3438Z" />
<path d="M15.1803 15.4418C15.1902 15.4418 15.1981 15.4339 15.1981 15.4245V15.4208H15.2374C15.2521 15.4208 15.2641 15.4088 15.2641 15.3941C15.2641 15.3794 15.2521 15.3674 15.2374 15.3674H15.1981V15.3632C15.1981 15.3537 15.1902 15.3459 15.1803 15.3459H15.1698V15.3003H15.1803C15.1902 15.3003 15.1981 15.2924 15.1981 15.283V15.2788H15.2374C15.2521 15.2788 15.2641 15.2673 15.2641 15.2526C15.2641 15.2374 15.2521 15.2259 15.2374 15.2259H15.1981V15.2217C15.1981 15.2123 15.1902 15.2044 15.1803 15.2044H15.1698V15.1861C15.1698 15.1352 15.1289 15.0944 15.0781 15.0944L15.0597 15.0943V15.0839C15.0597 15.0739 15.0519 15.066 15.0424 15.066H15.0383V15.0267C15.0383 15.012 15.0267 15 15.0121 15C14.9968 15 14.9853 15.012 14.9853 15.0267V15.066H14.9812C14.9717 15.066 14.9639 15.0739 14.9639 15.0839V15.0943H14.9183V15.0839C14.9183 15.0739 14.9104 15.066 14.901 15.066H14.8968V15.0267C14.8968 15.012 14.8847 15 14.8701 15C14.8554 15 14.8439 15.012 14.8439 15.0267V15.066H14.8397C14.8302 15.066 14.8224 15.0739 14.8224 15.0839V15.0943H14.7768V15.0839C14.7768 15.0739 14.7689 15.066 14.7595 15.066H14.7553V15.0267C14.7553 15.012 14.7432 15 14.7285 15C14.7139 15 14.7018 15.012 14.7018 15.0267V15.066H14.6981C14.6887 15.066 14.6808 15.0739 14.6808 15.0839V15.0943H14.6352V15.0839C14.6352 15.0739 14.6274 15.066 14.6174 15.066H14.6138V15.0267C14.6138 15.012 14.6017 15 14.587 15C14.5724 15 14.5603 15.012 14.5603 15.0267V15.066H14.5566C14.5467 15.066 14.5393 15.0739 14.5393 15.0839V15.0943H14.521C14.4702 15.0943 14.4293 15.1352 14.4293 15.186V15.2059H14.4188C14.4089 15.2059 14.401 15.2133 14.401 15.2232V15.2269H14.3617C14.347 15.2269 14.335 15.2389 14.335 15.2536C14.335 15.2683 14.347 15.2803 14.3617 15.2803H14.401V15.284C14.401 15.294 14.4089 15.3018 14.4188 15.3018H14.4293V15.3474H14.4188C14.4089 15.3474 14.401 15.3553 14.401 15.3647V15.3683H14.3617C14.347 15.3683 14.335 15.3804 14.335 15.3951C14.335 15.4098 14.347 15.4218 14.3617 15.4218H14.401V15.426C14.401 15.4354 14.4089 15.4433 14.4188 15.4433H14.4293V15.4889H14.4188C14.4089 15.4889 14.401 15.4968 14.401 15.5062V15.5104H14.3617C14.347 15.5104 14.335 15.5219 14.335 15.5366C14.335 15.5513 14.347 15.5633 14.3617 15.5633H14.401V15.5675C14.401 15.577 14.4089 15.5848 14.4188 15.5848H14.4293V15.6304H14.4188C14.4089 15.6304 14.401 15.6383 14.401 15.6477V15.6519H14.3617C14.347 15.6519 14.335 15.6634 14.335 15.6786C14.335 15.6933 14.347 15.7048 14.3617 15.7048H14.401V15.709C14.401 15.7184 14.4089 15.7263 14.4188 15.7263H14.4293V15.7431C14.4293 15.7934 14.4702 15.8343 14.521 15.8343H14.5393V15.8453C14.5393 15.8547 14.5467 15.8626 14.5566 15.8626H14.5603V15.9024C14.5603 15.9171 14.5724 15.9291 14.587 15.9291C14.6017 15.9291 14.6138 15.9171 14.6138 15.9024V15.8626H14.6174C14.6274 15.8626 14.6352 15.8547 14.6352 15.8453V15.8343H14.6808V15.8453C14.6808 15.8547 14.6887 15.8626 14.6981 15.8626H14.7018V15.9024C14.7018 15.9171 14.7139 15.9291 14.7285 15.9291C14.7432 15.9291 14.7553 15.9171 14.7553 15.9024V15.8626H14.7595C14.7689 15.8626 14.7768 15.8547 14.7768 15.8453V15.8343H14.8224V15.8453C14.8224 15.8547 14.8302 15.8626 14.8397 15.8626H14.8439V15.9024C14.8439 15.9171 14.8554 15.9291 14.8701 15.9291C14.8847 15.9291 14.8968 15.9171 14.8968 15.9024V15.8626H14.901C14.9104 15.8626 14.9183 15.8547 14.9183 15.8453V15.8343H14.9639V15.8453C14.9639 15.8547 14.9717 15.8626 14.9812 15.8626H14.9853V15.9024C14.9853 15.9171 14.9968 15.9291 15.0121 15.9291C15.0267 15.9291 15.0383 15.9171 15.0383 15.9024V15.8626H15.0424C15.0519 15.8626 15.0597 15.8547 15.0597 15.8453V15.8343H15.0781C15.1289 15.8343 15.1698 15.7934 15.1698 15.7431V15.7253H15.1803C15.1902 15.7253 15.1981 15.7174 15.1981 15.7074V15.7038H15.2374C15.2521 15.7038 15.2641 15.6917 15.2641 15.6771C15.2641 15.6624 15.2521 15.6503 15.2374 15.6503H15.1981V15.6467C15.1981 15.6367 15.1902 15.6289 15.1803 15.6289H15.1698V15.5833H15.1803C15.1902 15.5833 15.1981 15.5754 15.1981 15.566V15.5623H15.2374C15.2521 15.5623 15.2641 15.5503 15.2641 15.5356C15.2641 15.5209 15.2521 15.5089 15.2374 15.5089H15.1981V15.5052C15.1981 15.4953 15.1902 15.4874 15.1803 15.4874H15.1698V15.4418L15.1803 15.4418ZM15.0482 15.4967L15.0017 15.5078C15.0003 15.5147 14.9985 15.5214 14.9963 15.5281L15.0309 15.561L14.9988 15.6165L14.9531 15.6032C14.9482 15.6083 14.9433 15.6132 14.9382 15.6181L14.9515 15.6638L14.8961 15.6958L14.8631 15.6613C14.8564 15.6635 14.8498 15.6653 14.8429 15.6666L14.8317 15.7132H14.7673L14.7562 15.6666C14.7493 15.6653 14.7426 15.6635 14.7359 15.6613L14.7029 15.6958L14.6475 15.6637L14.6609 15.6181C14.6557 15.6132 14.6508 15.6083 14.6459 15.6031L14.6003 15.6165L14.5682 15.561L14.6027 15.5281C14.6005 15.5214 14.5987 15.5147 14.5974 15.5078L14.5508 15.4967V15.4323L14.5974 15.4212C14.5987 15.4143 14.6005 15.4076 14.6027 15.4009L14.5682 15.3679L14.6003 15.3125L14.6459 15.3258C14.6508 15.3207 14.6557 15.3158 14.6609 15.3109L14.6475 15.2652L14.7029 15.2332L14.7359 15.2677C14.7426 15.2655 14.7493 15.2637 14.7562 15.2623L14.7673 15.2158H14.8317L14.8428 15.2623C14.8497 15.2637 14.8564 15.2654 14.8631 15.2677L14.8961 15.2332L14.9515 15.2652L14.9381 15.3109C14.9433 15.3158 14.9482 15.3207 14.9531 15.3258L14.9987 15.3125L15.0308 15.3679L14.9963 15.4009C14.9985 15.4076 15.0003 15.4143 15.0016 15.4212L15.0482 15.4323L15.0482 15.4967Z" />
<path d="M15.3625 15.9355C15.3625 15.9947 15.3143 16.0429 15.2551 16.0429H14.3437C14.2845 16.0429 14.2363 15.9947 14.2363 15.9355V15.0515C14.2435 15.0524 14.2505 15.0537 14.258 15.0537C14.3513 15.0537 14.4273 14.9836 14.4386 14.8937H15.1602C15.1715 14.9836 15.2475 15.0537 15.3408 15.0537C15.3483 15.0537 15.3553 15.0524 15.3625 15.0515L15.3625 15.9355ZM15.8415 15.6111V15.0597C15.8415 14.9141 15.7231 14.7951 15.5774 14.7951H15.5072C15.4784 14.7317 15.4149 14.6876 15.341 14.6876C15.2808 14.6876 15.2279 14.717 15.1948 14.7615H14.9082C14.9244 14.761 14.9381 14.7474 14.9381 14.7311C14.9381 14.7138 14.9239 14.7002 14.9071 14.7002C14.9239 14.7002 14.9381 14.6866 14.9381 14.6693C14.9381 14.6525 14.9239 14.6389 14.9071 14.6389H15.023C15.1765 14.6389 15.3086 14.5498 15.3725 14.4214H15.4281C15.4558 14.4214 15.4784 14.3988 15.4784 14.371V14.3511C15.5245 14.3469 15.5622 14.3129 15.5706 14.2683H15.6241C15.6309 14.2825 15.6455 14.2924 15.6629 14.2924C15.687 14.2924 15.7069 14.2731 15.7069 14.2484C15.7069 14.2243 15.687 14.2044 15.6629 14.2044C15.6456 14.2044 15.6309 14.2144 15.6241 14.229H15.5706C15.5622 14.1845 15.5245 14.1504 15.4784 14.1462V14.1258C15.4784 14.0981 15.4558 14.0755 15.4281 14.0755H15.3725C15.3086 13.9471 15.1765 13.8586 15.023 13.8586H14.9695C14.9674 13.835 14.9606 13.813 14.9496 13.7936C14.9381 13.7721 14.9145 13.7605 14.8904 13.7605H14.828V13.6238C14.8547 13.6133 14.8736 13.5871 14.8736 13.5567C14.8736 13.5168 14.8416 13.4844 14.8018 13.4844C14.762 13.4844 14.7295 13.5168 14.7295 13.5567C14.7295 13.5871 14.7489 13.6133 14.7756 13.6238V13.7605H14.7132C14.6891 13.7605 14.6655 13.7721 14.6535 13.7936C14.643 13.8129 14.6357 13.835 14.6336 13.8586H14.5801C14.4271 13.8586 14.295 13.9471 14.2311 14.0755H14.1755C14.1472 14.0755 14.1247 14.0981 14.1247 14.1258V14.1463C14.0791 14.1504 14.0414 14.1845 14.033 14.2291H13.9795C13.9722 14.2144 13.9581 14.2044 13.9407 14.2044C13.9166 14.2044 13.8967 14.2243 13.8967 14.2485C13.8967 14.2731 13.9166 14.2925 13.9407 14.2925C13.958 14.2925 13.9722 14.2825 13.9795 14.2684H14.033C14.0414 14.3129 14.0791 14.347 14.1247 14.3512V14.3711C14.1247 14.3988 14.1472 14.4214 14.1755 14.4214H14.2311C14.295 14.5498 14.4271 14.6389 14.5801 14.6389H14.6965C14.6797 14.6389 14.6655 14.6525 14.6655 14.6693C14.6655 14.6866 14.6797 14.7002 14.6965 14.7002C14.6797 14.7002 14.6655 14.7139 14.6655 14.7311C14.6655 14.7474 14.6792 14.761 14.6954 14.7616H14.404C14.371 14.717 14.318 14.6877 14.2578 14.6877C14.1839 14.6877 14.1205 14.7317 14.0917 14.7951L14.0215 14.7951C13.8758 14.7951 13.7573 14.914 13.7573 15.0597V15.6111C13.7102 15.6415 13.6787 15.6944 13.6787 15.7547C13.6787 15.8286 13.7264 15.892 13.793 15.9145L13.7929 15.7547H13.9046V15.9145C13.9711 15.892 14.0188 15.8286 14.0188 15.7547C14.0188 15.6902 13.9826 15.6347 13.9302 15.6058L13.9303 15.0597C13.9303 15.0094 13.9711 14.968 14.0215 14.968H14.1037C14.1048 14.9701 14.1058 14.9717 14.1069 14.9738V16.0183C14.1069 16.1047 14.176 16.1739 14.2625 16.1744C14.2625 16.1744 14.3291 16.1744 14.4543 16.175V16.2138C14.4543 16.2442 14.479 16.2688 14.5094 16.2688H14.7237V16.5738H14.4307V16.4795C14.4307 16.4548 14.4113 16.4349 14.3867 16.4349H14.1666C14.142 16.4349 14.1221 16.4548 14.1221 16.4795V16.8269C14.1221 16.8516 14.142 16.8715 14.1666 16.8715H14.3867C14.4114 16.8715 14.4307 16.8516 14.4307 16.8269V16.7452H15.1681V16.8269C15.1681 16.8516 15.188 16.8715 15.2127 16.8715H15.4328C15.4574 16.8715 15.4768 16.8516 15.4768 16.8269V16.4795C15.4768 16.4548 15.4574 16.4349 15.4328 16.4349H15.2127C15.188 16.4349 15.1681 16.4548 15.1681 16.4795V16.5738H14.8752V16.2688H15.0895C15.1199 16.2688 15.145 16.2442 15.145 16.2138V16.175C15.2016 16.175 15.2656 16.1744 15.3358 16.1744C15.4223 16.1744 15.492 16.1048 15.492 16.0183L15.492 14.9738C15.4931 14.9717 15.4941 14.9701 15.4951 14.968H15.5774C15.6277 14.968 15.6686 15.0094 15.6686 15.0597V15.6058C15.6162 15.6346 15.5801 15.6902 15.5801 15.7547C15.5801 15.8286 15.6278 15.892 15.6943 15.9145V15.7547H15.8059V15.9145C15.8725 15.892 15.9202 15.8286 15.9202 15.7547C15.9202 15.6944 15.8887 15.6415 15.8415 15.6111ZM14.5492 14.4743C14.4234 14.4738 14.3223 14.3722 14.3228 14.2474C14.3233 14.1227 14.4255 14.0221 14.5508 14.0226C14.6765 14.0231 14.7782 14.1248 14.7777 14.2495C14.7771 14.3743 14.675 14.4749 14.5492 14.4743ZM14.8259 14.2495C14.8254 14.1248 14.927 14.0231 15.0523 14.0226C15.1781 14.0221 15.2803 14.1227 15.2808 14.2475C15.2813 14.3722 15.1796 14.4739 15.0544 14.4744C14.9286 14.4749 14.8264 14.3742 14.8259 14.2495Z" />
<path d="M6.18539 13.7234C6.30075 13.608 6.48752 13.608 6.60287 13.7234C6.71823 13.8387 6.71823 14.0255 6.60287 14.1409L5.91739 14.8264H10.9697V13.3503H10.0842C9.92103 13.3503 9.78896 13.2183 9.78896 13.0551C9.78896 12.8919 9.92103 12.7598 10.0842 12.7598H10.9697C10.9697 11.9459 11.6319 11.2838 12.4458 11.2838V10.3982C12.4458 10.235 12.5778 10.103 12.741 10.103C12.9042 10.103 13.0363 10.235 13.0363 10.3982V11.2838H14.5123V10.3982C14.5123 10.235 14.6444 10.103 14.8076 10.103C14.9708 10.103 15.1029 10.235 15.1029 10.3982V11.2838H16.5789V10.3982C16.5789 10.235 16.711 10.103 16.8742 10.103C17.0373 10.103 17.1694 10.235 17.1694 10.3982V11.2838C17.7695 11.2838 18.2852 11.6452 18.5157 12.1606L20.4161 12.1611C20.9046 12.1611 21.3017 11.7637 21.3017 11.2756V5.67528C21.3017 5.67528 21.3033 5.66979 21.3035 5.66658C21.3083 4.85682 21.9677 4.19922 22.7787 4.19922C22.9419 4.19922 23.0739 4.33128 23.0739 4.49448C23.0739 4.65767 22.9419 4.78974 22.7787 4.78974C22.2902 4.78974 21.8931 5.18707 21.8931 5.67527L21.8922 5.67961V6.85606H22.7787C22.9419 6.85606 23.0739 6.98812 23.0739 7.15132C23.0739 7.31451 22.9419 7.44658 22.7787 7.44658L21.8922 7.44635V9.51272H22.7787C22.9419 9.51272 23.0739 9.64478 23.0739 9.80798C23.0739 9.97117 22.9419 10.1032 22.7787 10.1032H21.8922V11.284L21.8904 11.2927C21.8865 11.6193 21.7734 11.918 21.5894 12.1611H22.7787C22.9419 12.1611 23.0739 12.2931 23.0739 12.4563C23.0739 12.6195 22.9419 12.7516 22.7787 12.7516L20.4162 12.7514H18.6442L18.6451 12.7601V14.8264H22.7787C22.9419 14.8264 23.074 14.9585 23.074 15.1217C23.074 15.2849 22.9419 15.417 22.7787 15.417H18.6451V17.4833H22.779C22.9422 17.4833 23.0742 17.6154 23.0742 17.7786C23.0742 17.9418 22.9422 18.0738 22.779 18.0738H21.5897C21.7769 18.3213 21.8923 18.6257 21.8923 18.9594V20.1401H22.7787C22.9419 20.1401 23.074 20.2722 23.074 20.4354C23.074 20.5986 22.9419 20.7307 22.7787 20.7307L21.8923 20.7304V22.7968H22.7787C22.9419 22.7968 23.074 22.9289 23.074 23.0921C23.074 23.2553 22.9419 23.3873 22.7787 23.3873H21.8923V24.5681C21.8923 25.0565 22.2896 25.4536 22.7778 25.4536C22.941 25.4536 23.0731 25.5857 23.0731 25.7489C23.0731 25.9121 22.941 26.0441 22.7778 26.0441C21.9639 26.0441 21.3018 25.382 21.3018 24.5681V18.9593C21.3018 18.4709 20.9044 18.0738 20.4162 18.0738H18.52C18.2915 18.5941 17.7727 18.9593 17.1691 18.9593V19.8449C17.1691 20.0081 17.037 20.1401 16.8738 20.1401C16.7106 20.1401 16.5786 20.0081 16.5786 19.8449V18.9593H15.1025V19.8449C15.1025 20.0081 14.9705 20.1401 14.8073 20.1401C14.6441 20.1401 14.512 20.0081 14.512 19.8449V18.9593H13.036V19.8449C13.036 20.0081 12.9039 20.1401 12.7407 20.1401C12.5775 20.1401 12.4455 20.0081 12.4455 19.8449V18.9593C11.6315 18.9593 10.9694 18.2972 10.9694 17.4833H10.0839C9.9207 17.4833 9.78863 17.3512 9.78863 17.1881C9.78863 17.0249 9.9207 16.8928 10.0839 16.8928H10.9694V15.4168H5.93423L6.60255 16.0851C6.71791 16.2004 6.71791 16.3872 6.60255 16.5026C6.54487 16.5602 6.46934 16.5891 6.39381 16.5891C6.31827 16.5891 6.24274 16.5602 6.18507 16.5026L5.00428 15.3218C4.88892 15.2064 4.88892 15.0197 5.00428 14.9043L6.18539 13.7234ZM11.5602 17.4832C11.5602 17.9717 11.9575 18.3688 12.4457 18.3688H17.1689C17.6573 18.3688 18.0544 17.9714 18.0544 17.4832V12.76C18.0544 12.2716 17.6571 11.8745 17.1689 11.8745H12.4457C11.9573 11.8745 11.5602 12.2719 11.5602 12.76V17.4832Z" />
<path d="M2.70457 15.1171C2.70457 15.5245 3.03507 15.855 3.4425 15.855C3.85014 15.855 4.18066 15.5245 4.18066 15.1171C4.18066 14.7094 3.85016 14.3789 3.4425 14.3789C3.03509 14.3789 2.70457 14.7094 2.70457 15.1171Z" />
<path d="M26.0249 15.1171C26.0249 15.5245 26.3554 15.855 26.763 15.855C27.1707 15.855 27.501 15.5245 27.501 15.1171C27.501 14.7094 27.1707 14.3789 26.763 14.3789C26.3554 14.3789 26.0249 14.7094 26.0249 15.1171Z" />
<path d="M26.0249 17.7692C26.0249 18.1768 26.3554 18.5073 26.763 18.5073C27.1707 18.5073 27.501 18.1768 27.501 17.7692C27.501 17.3618 27.1707 17.0312 26.763 17.0312C26.3554 17.0312 26.0249 17.3618 26.0249 17.7692Z" />
<path d="M26.0249 12.4567C26.0249 12.8643 26.3554 13.1946 26.763 13.1946C27.1707 13.1946 27.501 12.8643 27.501 12.4567C27.501 12.049 27.1707 11.7188 26.763 11.7188C26.3554 11.7188 26.0249 12.049 26.0249 12.4567Z" />
<path d="M26.0249 9.80043C26.0249 10.2081 26.3554 10.5386 26.763 10.5386C27.1707 10.5386 27.501 10.2081 27.501 9.80043C27.501 9.39279 27.1707 9.0625 26.763 9.0625C26.3554 9.0625 26.0249 9.39278 26.0249 9.80043Z" />
<path d="M26.0249 7.14418C26.0249 7.55182 26.3554 7.88234 26.763 7.88234C27.1707 7.88234 27.501 7.55184 27.501 7.14418C27.501 6.73677 27.1707 6.40625 26.763 6.40625C26.3554 6.40625 26.0249 6.73675 26.0249 7.14418Z" />
<path d="M26.0249 4.48816C26.0249 4.89557 26.3554 5.22609 26.763 5.22609C27.1707 5.22609 27.501 4.89559 27.501 4.48816C27.501 4.08053 27.1707 3.75 26.763 3.75C26.3554 3.75 26.0249 4.0805 26.0249 4.48816Z" />
<path d="M26.0249 20.4332C26.0249 20.8409 26.3554 21.1714 26.763 21.1714C27.1707 21.1714 27.501 20.8409 27.501 20.4332C27.501 20.0256 27.1707 19.6953 26.763 19.6953C26.3554 19.6953 26.0249 20.0256 26.0249 20.4332Z" />
<path d="M26.0249 23.0856C26.0249 23.4932 26.3554 23.8235 26.763 23.8235C27.1707 23.8235 27.501 23.4932 27.501 23.0856C27.501 22.6779 27.1707 22.3477 26.763 22.3477C26.3554 22.3477 26.0249 22.6779 26.0249 23.0856Z" />
<path d="M26.0249 25.7382C26.0249 26.1458 26.3554 26.4761 26.763 26.4761C27.1707 26.4761 27.501 26.1458 27.501 25.7382C27.501 25.3305 27.1707 25 26.763 25C26.3554 25 26.0249 25.3305 26.0249 25.7382Z" />
<path d="M23.9595 14.8281H25.1403C25.3035 14.8281 25.4355 14.9602 25.4355 15.1234C25.4355 15.2866 25.3035 15.4186 25.1403 15.4186H23.9595C23.7963 15.4186 23.6642 15.2866 23.6642 15.1234C23.6642 14.9602 23.7963 14.8281 23.9595 14.8281Z" />
<path d="M23.9595 12.1719H25.1403C25.3035 12.1719 25.4355 12.3039 25.4355 12.4671C25.4355 12.6303 25.3035 12.7624 25.1403 12.7624H23.9595C23.7963 12.7624 23.6642 12.6303 23.6642 12.4671C23.6642 12.3039 23.7963 12.1719 23.9595 12.1719Z" />
<path d="M23.9595 17.4844H25.1403C25.3035 17.4844 25.4355 17.6164 25.4355 17.7796C25.4355 17.9428 25.3035 18.0749 25.1403 18.0749H23.9595C23.7963 18.0749 23.6642 17.9428 23.6642 17.7796C23.6642 17.6164 23.7963 17.4844 23.9595 17.4844Z" />
<path d="M23.9595 9.51562H25.1403C25.3035 9.51562 25.4355 9.64769 25.4355 9.81089C25.4355 9.97408 25.3035 10.1061 25.1403 10.1061H23.9595C23.7963 10.1061 23.6642 9.97408 23.6642 9.81089C23.6642 9.64746 23.7963 9.51562 23.9595 9.51562Z" />
<path d="M23.9595 6.85547H25.1403C25.3035 6.85547 25.4355 6.98753 25.4355 7.15073C25.4355 7.31392 25.3035 7.44599 25.1403 7.44599H23.9595C23.7963 7.44599 23.6642 7.31392 23.6642 7.15073C23.6642 6.98753 23.7963 6.85547 23.9595 6.85547Z" />
<path d="M23.9595 4.20312H25.1403C25.3035 4.20312 25.4355 4.33519 25.4355 4.49838C25.4355 4.66158 25.3035 4.79364 25.1403 4.79364H23.9595C23.7963 4.79364 23.6642 4.66158 23.6642 4.49838C23.6642 4.33519 23.7963 4.20312 23.9595 4.20312Z" />
<path d="M23.9595 20.1445H25.1403C25.3035 20.1445 25.4355 20.2766 25.4355 20.4398C25.4355 20.603 25.3035 20.7351 25.1403 20.7351H23.9595C23.7963 20.7351 23.6642 20.603 23.6642 20.4398C23.6642 20.2766 23.7963 20.1445 23.9595 20.1445Z" />
<path d="M23.9595 22.7969H25.1403C25.3035 22.7969 25.4355 22.9289 25.4355 23.0921C25.4355 23.2553 25.3035 23.3874 25.1403 23.3874H23.9595C23.7963 23.3874 23.6642 23.2553 23.6642 23.0921C23.6642 22.9289 23.7963 22.7969 23.9595 22.7969Z" />
<path d="M23.9595 25.4531H25.1403C25.3035 25.4531 25.4355 25.5852 25.4355 25.7484C25.4355 25.9116 25.3035 26.0436 25.1403 26.0436H23.9595C23.7963 26.0436 23.6642 25.9116 23.6642 25.7484C23.6642 25.5852 23.7963 25.4531 23.9595 25.4531Z" />
</svg>
