<svg width="30" height="30" viewBox="0 0 30 30" fill="none" xmlns="http://www.w3.org/2000/svg">
<path fill-rule="evenodd" clip-rule="evenodd" d="M15.288 20.3633V17.9736C17.0233 17.8271 18.3882 16.3703 18.3882 14.5971C18.3882 14.438 18.2591 14.3087 18.1 14.3087C17.9407 14.3087 17.8116 14.438 17.8116 14.5971C17.8116 16.1491 16.5516 17.4089 14.9998 17.4089C13.4478 17.4089 12.1878 16.1491 12.1878 14.5971C12.1878 14.438 12.0587 14.3087 11.8996 14.3087C11.7405 14.3087 11.6112 14.438 11.6112 14.5971C11.6112 16.3703 12.976 17.8271 14.7114 17.9736V20.3633H13.6995C13.5404 20.3633 13.4113 20.4924 13.4113 20.6515C13.4113 20.8108 13.5404 20.9399 13.6995 20.9399H16.2998C16.4589 20.9399 16.588 20.8108 16.588 20.6515C16.588 20.4924 16.4589 20.3633 16.2998 20.3633H15.288ZM20.5928 14.9154C20.5884 14.9015 20.5829 14.8877 20.5765 14.8747C20.5552 14.831 20.5236 14.7946 20.4861 14.7673C20.4483 14.7401 20.4039 14.7218 20.3556 14.7154C20.3412 14.7136 20.3266 14.7126 20.3117 14.7129H19.2032C19.0441 14.7129 18.9148 14.842 18.9148 15.0013C18.9148 15.1603 19.0441 15.2894 19.2032 15.2894H20.1096L20.9741 17.8857C21.0153 18.0088 21.1336 18.0894 21.2632 18.0825C21.3927 18.0756 21.5019 17.9827 21.5294 17.8559L22.1345 15.075L22.8237 19.3901C22.8464 19.5323 22.9704 19.6359 23.1141 19.633C23.2581 19.63 23.3778 19.5213 23.3945 19.3784L24.0329 13.9562L24.6459 19.3771C24.6619 19.5204 24.7816 19.6296 24.9255 19.633C25.0697 19.6362 25.194 19.5325 25.2169 19.3901L25.9061 15.075L26.511 17.8559C26.5387 17.9827 26.6477 18.0757 26.7774 18.0825C26.907 18.0894 27.0253 18.0088 27.0663 17.8857L27.931 15.2894H28.8374C28.9965 15.2894 29.1256 15.1604 29.1256 15.0013C29.1256 14.842 28.9965 14.7129 28.8374 14.7129H27.7289C27.714 14.7127 27.6994 14.7136 27.685 14.7154C27.6367 14.7218 27.5923 14.7401 27.5545 14.7674C27.5167 14.7946 27.4854 14.8308 27.4641 14.8747C27.4577 14.8878 27.4522 14.9015 27.4479 14.9155L26.8511 16.7069L26.1441 13.4579C26.1148 13.3227 25.9931 13.2272 25.8544 13.2311C25.7159 13.235 25.5996 13.3369 25.5779 13.4737L24.9812 17.2107L24.3252 11.4087C24.3087 11.2634 24.1858 11.1533 24.0393 11.1528C23.8929 11.1526 23.7695 11.262 23.7523 11.4076L23.0652 17.2459L22.4628 13.4737C22.4408 13.3368 22.3248 13.235 22.1861 13.2311C22.0476 13.2272 21.9258 13.3226 21.8963 13.4579L21.1895 16.7069L20.5928 14.9154ZM2.55174 14.9154C2.54739 14.9015 2.54213 14.8877 2.53549 14.8747C2.5142 14.831 2.48285 14.7946 2.44508 14.7673C2.40754 14.7401 2.36291 14.7218 2.31484 14.7154C2.30042 14.7136 2.28555 14.7126 2.2709 14.7129H1.16219C1.00312 14.7129 0.874023 14.842 0.874023 15.0013C0.874023 15.1603 1.00311 15.2894 1.16219 15.2894H2.06881L2.9333 17.8857C2.97427 18.0088 3.09261 18.0894 3.22238 18.0825C3.35192 18.0756 3.46087 17.9827 3.48857 17.8559L4.09373 15.075L4.78267 19.3901C4.80556 19.5325 4.92984 19.6362 5.07404 19.633C5.21823 19.6295 5.33771 19.5204 5.35396 19.3771L5.96668 13.9562L6.60505 19.3784C6.62176 19.5212 6.74147 19.63 6.88544 19.6329C7.02941 19.6359 7.15323 19.5322 7.17589 19.3901L7.86507 15.075L8.47022 17.8559C8.49792 17.9827 8.60686 18.0756 8.73641 18.0825C8.86619 18.0893 8.9843 18.0088 9.02549 17.8856L9.88998 15.2894H10.7966C10.9557 15.2894 11.0848 15.1603 11.0848 15.0012C11.0848 14.8419 10.9557 14.7128 10.7966 14.7128H9.68789C9.67325 14.7126 9.65837 14.7135 9.64395 14.7154C9.59588 14.7218 9.55125 14.7401 9.51371 14.7673C9.47595 14.7946 9.44459 14.8307 9.42307 14.8747C9.41667 14.8877 9.41117 14.9014 9.40682 14.9154L8.81034 16.7069L8.10335 13.4579C8.07382 13.3226 7.95229 13.2272 7.81358 13.2311C7.67511 13.235 7.55883 13.3368 7.53709 13.4737L6.93469 17.2459L6.24738 11.4075C6.23022 11.262 6.10685 11.1526 5.96037 11.1528C5.81411 11.1533 5.6912 11.2633 5.67472 11.4087L5.01877 17.2106L4.42181 13.4737C4.40007 13.3368 4.2838 13.235 4.14532 13.2311C4.00662 13.2272 3.88508 13.3226 3.85556 13.4579L3.14857 16.7069L2.55174 14.9154ZM17.4381 11.501C17.4381 10.1552 16.3456 9.0625 14.9998 9.0625C13.654 9.0625 12.5613 10.1552 12.5613 11.501V14.6511C12.5613 15.997 13.654 17.0896 14.9998 17.0896C16.3456 17.0896 17.4381 15.997 17.4381 14.6511V11.501ZM16.8615 11.501V14.6511C16.8615 15.6788 16.0273 16.513 14.9998 16.513C13.9721 16.513 13.1379 15.6788 13.1379 14.6511V11.501C13.1379 10.4736 13.9721 9.63906 14.9998 9.63906C16.0273 9.63906 16.8615 10.4736 16.8615 11.501Z" />
</svg>
