<svg width="30" height="30" viewBox="0 0 30 30" fill="none" xmlns="http://www.w3.org/2000/svg">
<path d="M5.9541 11.1919H11.6677V7.38281H5.9541V11.1919ZM6.90625 8.33496H10.7153V10.2395H6.90625V8.33496Z" />
<path d="M5.47777 16.4292C5.47777 16.6922 5.26445 16.9055 5.00146 16.9055C4.73871 16.9055 4.52539 16.6922 4.52539 16.4292C4.52539 16.1662 4.73871 15.9531 5.00146 15.9531C5.26445 15.9531 5.47777 16.1662 5.47777 16.4292Z" />
<mask id="mask0_1551_14778" style="mask-type:luminance" maskUnits="userSpaceOnUse" x="0" y="5" width="30" height="20">
<path d="M0.239258 5.44922H29.7594V24.5508H0.239258V5.44922Z" fill="white"/>
</mask>
<g mask="url(#mask0_1551_14778)">
<path d="M20.7133 6.42866H20.2372V14.047H10.2382V13.0949H12.1428C12.9303 13.0949 13.5712 12.454 13.5712 11.6664V11.324L16.4279 12.0381V12.1425C16.4279 12.6678 16.855 13.0947 17.38 13.0947H18.3322C18.8575 13.0947 19.2843 12.6676 19.2843 12.1425L19.2848 6.42892C19.2848 5.90364 18.8577 5.47677 18.3326 5.47677H17.3805C16.8552 5.47677 16.4283 5.90387 16.4283 6.42892V6.53329L13.5717 7.24743L13.5712 6.90502C13.5712 6.11746 12.9303 5.47656 12.1428 5.47656L3.57225 5.47679C2.78469 5.47679 2.14379 6.11769 2.14379 6.90501V11.6662C2.14379 12.4538 2.78469 13.0947 3.57225 13.0947H4.52439V14.0468L0.239258 14.0471V16.9037H2.66791C2.88924 17.9889 3.85057 18.8083 5.00047 18.8083C5.1632 18.8083 5.32273 18.7916 5.47654 18.7602L5.47677 24.5221H9.28583V16.9037H20.237V24.5221H20.7131C25.7016 24.5221 29.7594 20.464 29.7594 15.4758C29.7591 10.4873 25.701 6.4295 20.7131 6.4295L20.7133 6.42866ZM28.6557 13.9158C27.4859 12.773 25.209 11.307 21.1891 11.198V7.3947C24.9057 7.61145 27.9567 10.3477 28.6557 13.9156V13.9158ZM28.7296 15.4751C28.2412 16.2231 26.2579 18.6438 21.1892 18.7918V12.1584C26.258 12.3065 28.241 14.7272 28.7296 15.4751ZM18.3322 6.42884L18.3326 12.1424H17.38V6.42884H18.3322ZM16.4276 7.51488V11.0563L13.571 10.3422V8.22919L16.4276 7.51488ZM3.0958 8.33337H4.04795V10.2379H3.0958V8.33337ZM3.0958 11.6664V11.1903H5.00033V7.38122H3.0958V6.90492C3.0958 6.64216 3.30958 6.42885 3.57188 6.42885H12.1424C12.4047 6.42885 12.6185 6.64216 12.6185 6.90492V11.0863L12.6187 11.6663C12.6187 11.9291 12.4049 12.1424 12.1426 12.1424H3.57211C3.30981 12.1424 3.0958 11.9291 3.0958 11.6664ZM9.28565 13.0948V14.047H5.47658V13.0948H9.28565ZM1.19151 14.9993H3.1084C2.89806 15.2774 2.74036 15.5979 2.66849 15.9515H1.19152L1.19151 14.9993ZM3.57235 16.4276C3.57235 15.64 4.21324 14.9991 5.0008 14.9991C5.78836 14.9991 6.42926 15.64 6.42926 16.4276C6.42926 17.2151 5.78836 17.856 5.0008 17.856C4.21324 17.856 3.57235 17.2151 3.57235 16.4276ZM6.42903 23.5696V18.3197C7.00375 17.8846 7.38117 17.2018 7.38117 16.4275C7.38117 15.8894 7.19509 15.3983 6.89274 14.9991L8.33356 14.9993V23.5698L6.42903 23.5696ZM9.28594 15.9512V14.9991H20.2365V15.9512H9.28594ZM21.1893 23.5555V19.7522C25.2093 19.6437 27.4857 18.1772 28.6559 17.0344C27.9568 20.6025 24.9059 23.3385 21.1893 23.5553V23.5555Z" />
</g>
</svg>
