<svg width="30" height="30" viewBox="0 0 30 30" fill="none" xmlns="http://www.w3.org/2000/svg">
<path d="M18.4891 20.8366H19.5625V24.6608C19.5625 25.8416 18.5964 26.8077 17.4156 26.8077H3.46088C2.2801 26.8077 1.31395 25.8416 1.31395 24.6608V5.33834C1.31395 4.15756 2.28004 3.19141 3.46088 3.19141H17.4156C18.5963 3.19141 19.5625 4.1575 19.5625 5.33834V9.16252H18.4891V5.33834C18.4891 4.74531 18.0086 4.2649 17.4156 4.2649H3.46094C2.86791 4.2649 2.3875 4.74532 2.3875 5.33834V24.6608C2.3875 25.2538 2.86792 25.7342 3.46094 25.7342H17.4156C18.0087 25.7342 18.4891 25.2538 18.4891 24.6608V20.8366Z" />
<path d="M17.4154 7.48362H3.46073C3.16547 7.48362 2.924 7.24215 2.924 6.94689C2.924 6.65163 3.16547 6.41016 3.46073 6.41016H17.4154C17.7107 6.41016 17.9521 6.65163 17.9521 6.94689C17.9521 7.24192 17.7107 7.48362 17.4154 7.48362Z" />
<path d="M2.92343 9.63048C2.92343 9.33522 3.16489 9.09375 3.46015 9.09375H11.7793V10.1672H3.46015C3.16512 10.1672 2.92343 9.92551 2.92343 9.63048Z" />
<path d="M2.92343 12.3141C2.92343 12.0188 3.1649 11.7773 3.46016 11.7773H10.4375V12.8508H3.46016C3.16512 12.8508 2.92343 12.6091 2.92343 12.3141Z" />
<path d="M2.92362 14.9977C2.92362 14.7024 3.16509 14.4609 3.46035 14.4609H9.36426V15.5344H3.46035C3.16532 15.5344 2.92362 15.2927 2.92362 14.9977Z" />
<path d="M2.92343 17.6813C2.92343 17.386 3.1649 17.1445 3.46016 17.1445H10.4375V18.218H3.46016C3.16512 18.218 2.92343 17.9763 2.92343 17.6813Z" />
<path d="M2.92343 20.3649C2.92343 20.0696 3.16489 19.8281 3.46015 19.8281H11.7793V20.9016H3.46015C3.16512 20.9016 2.92343 20.6599 2.92343 20.3649Z" />
<path d="M2.924 23.0485C2.924 22.7532 3.16547 22.5117 3.46073 22.5117H17.4154C17.7107 22.5117 17.9521 22.7532 17.9521 23.0485C17.9521 23.3437 17.7107 23.5852 17.4154 23.5852H3.46073C3.1657 23.5852 2.924 23.3435 2.924 23.0485Z" />
<path d="M13.3896 11.2422H12.3162V18.7562H13.3896V11.2422Z" />
<path d="M11.7793 13.6562H10.7059V16.3399H11.7793V13.6562Z" />
<path d="M15 9.09375H13.9266V20.9016H15V9.09375Z" />
<path d="M16.6104 10.168H15.5369V19.8289H16.6104V10.168Z" />
<path d="M18.2207 11.5117H17.1473V18.4891H18.2207V11.5117Z" />
<path d="M19.8301 12.8516H18.7566V17.4138H19.8301V12.8516Z" />
<path d="M21.4404 11.7773H20.367V18.218H21.4404V11.7773Z" />
<path d="M23.0508 8.02344H21.9773V21.9781H23.0508V8.02344Z" />
<path d="M24.6611 9.36328H23.5877V20.6344H24.6611V9.36328Z" />
<path d="M26.2715 10.9727H25.198V19.0234H26.2715V10.9727Z" />
<path d="M27.8818 11.6445H26.8084V18.3535H27.8818V11.6445Z" />
</svg>
