<svg width="30" height="30" viewBox="0 0 30 30" fill="none" xmlns="http://www.w3.org/2000/svg">
<path d="M17.6239 15.7872C18.9031 14.9344 19.756 13.4584 19.756 11.8184C19.756 9.19455 17.6239 7.0625 15 7.0625C12.3761 7.0625 10.2441 9.19455 10.2441 11.8184C10.2441 13.4913 11.0969 14.9345 12.3761 15.7872C9.45699 16.8696 7.39062 19.6576 7.39062 22.938H8.66984C8.66984 19.4284 11.5235 16.5747 15.0331 16.5747C18.5428 16.5747 21.3964 19.4284 21.3964 22.938H22.6756C22.6427 19.6579 20.5433 16.87 17.6242 15.7872H17.6239ZM15 15.3281C13.0648 15.3281 11.4904 13.7536 11.4904 11.8184C11.4904 9.88327 13.0648 8.34172 15 8.34172C16.9352 8.34172 18.5097 9.9162 18.5097 11.8514C18.5094 13.7863 16.9352 15.3281 15 15.3281Z" />
</svg>
