<svg width="30" height="30" viewBox="0 0 20 21" fill="none" xmlns="http://www.w3.org/2000/svg">
<path d="M3.12534 19.25H4.37534V17.375H6.87534C7.70383 17.374 8.49811 17.0444 9.08395 16.4586C9.66979 15.8728 9.99934 15.0785 10.0003 14.25V13.45L11.4478 12.9681C11.5366 12.9385 11.6176 12.8893 11.6848 12.8242C11.752 12.7592 11.8038 12.6798 11.8362 12.592C11.8687 12.5043 11.881 12.4103 11.8723 12.3172C11.8636 12.224 11.8341 12.134 11.786 12.0538L10.0003 9.07687V7.375C9.99868 5.88367 9.40552 4.45389 8.35099 3.39935C7.29645 2.34482 5.86667 1.75165 4.37534 1.75H1.25034V3H4.37534C5.53515 3.00165 6.64699 3.46312 7.4671 4.28323C8.28722 5.10335 8.74868 6.21519 8.75034 7.375V9.25C8.75049 9.3632 8.78138 9.47424 8.83971 9.57125L10.3128 12.0287L9.17721 12.4069C9.05282 12.4485 8.94467 12.5281 8.86806 12.6346C8.79145 12.741 8.75026 12.8688 8.75034 13V14.25C8.74984 14.7471 8.55214 15.2238 8.20061 15.5753C7.84909 15.9268 7.37246 16.1245 6.87534 16.125H3.75034C3.58458 16.125 3.4256 16.1908 3.30839 16.3081C3.19118 16.4253 3.12534 16.5842 3.12534 16.75V19.25Z" />
<path d="M7.50014 8.625C7.50014 8.27982 7.22031 8 6.87514 8H5.62514C5.27996 8 5.00014 8.27982 5.00014 8.625C5.00014 8.97018 5.27996 9.25 5.62514 9.25H6.87514C7.22031 9.25 7.50014 8.97018 7.50014 8.625ZM13.1253 15.7945C13.3554 16.0519 13.7547 16.0765 13.9766 15.812C14.2366 15.5021 14.453 15.1569 14.6189 14.7859C14.8701 14.224 15 13.6155 15 13C15 12.3845 14.8701 11.776 14.6189 11.2141C14.4529 10.8429 14.2364 10.4976 13.9764 10.1877C13.7546 9.92339 13.3555 9.94784 13.1255 10.205C12.8954 10.4622 12.9236 10.8543 13.1299 11.1308C13.2671 11.3146 13.384 11.5135 13.4781 11.724C13.6576 12.1254 13.7504 12.5601 13.7504 12.9997C13.7504 13.4393 13.6576 13.874 13.4781 14.2753C13.384 14.4859 13.2671 14.6847 13.13 14.8685C12.9236 15.1451 12.8953 15.5373 13.1253 15.7945Z" />
<path d="M15.0019 18.0004C15.209 18.2763 15.6027 18.3342 15.8587 18.1029C16.4931 17.5299 17.0165 16.8424 17.4004 16.0744C17.8776 15.1198 18.126 14.0672 18.126 13C18.126 11.9328 17.8776 10.8802 17.4004 9.92559C17.0166 9.15778 16.4933 8.4703 15.859 7.89735C15.6029 7.66596 15.2089 7.72389 15.0018 8.00004C14.7947 8.27615 14.8535 8.66551 15.105 8.90191C15.5867 9.35478 15.9861 9.89021 16.2833 10.4845C16.6739 11.2656 16.8772 12.127 16.8772 13.0003C16.8772 13.8737 16.6739 14.735 16.2833 15.5161C15.9861 16.1104 15.5867 16.6459 15.1049 17.0988C14.8535 17.3351 14.7948 17.7244 15.0019 18.0004Z" />
</svg>
