<svg width="32" height="33" viewBox="0 0 32 33" fill="none" xmlns="http://www.w3.org/2000/svg">
<rect y="0.5" width="32" height="32" rx="8" fill="#0096FF"/>
<g clip-path="url(#clip0_927_2889)">
<path fill-rule="evenodd" clip-rule="evenodd" d="M24.0823 19.7236L23.94 19.0405H22.9698L22.8225 19.7443C22.8006 19.8513 22.721 19.9314 22.6215 19.9582C22.4871 19.9958 22.3618 20.0383 22.2404 20.0859C22.1199 20.1363 22.0015 20.1947 21.8811 20.2621C21.7846 20.3185 21.6662 20.3106 21.5806 20.2492L20.9825 19.8602L20.2959 20.5432L20.6929 21.146C20.7546 21.2371 20.7516 21.3509 20.7009 21.442C20.6342 21.5598 20.5745 21.6766 20.5238 21.7964C20.475 21.9142 20.4322 22.0419 20.3954 22.1755C20.3635 22.2903 20.269 22.3675 20.1566 22.3804L19.4699 22.522V23.4871L20.1775 23.6336C20.2849 23.6554 20.3655 23.7346 20.3924 23.8336C20.4302 23.9672 20.473 24.0919 20.5208 24.2097C20.5715 24.3325 20.6302 24.4522 20.6979 24.5671C20.7546 24.6631 20.7467 24.7809 20.685 24.866L20.2939 25.461L20.9805 26.144L21.5865 25.749C21.6781 25.6876 21.7925 25.6906 21.8841 25.7411C22.0025 25.8074 22.1199 25.8668 22.2403 25.9173C22.3587 25.9658 22.4871 26.0084 22.6214 26.045C22.7369 26.0767 22.8145 26.1727 22.8274 26.2826L22.9697 26.9656H23.94L24.0872 26.2618C24.1091 26.1549 24.1887 26.0747 24.2883 26.048C24.4226 26.0103 24.548 25.9678 24.6694 25.9203C24.7898 25.8698 24.9082 25.8114 25.0286 25.7441C25.1252 25.6876 25.2436 25.6956 25.3292 25.7569L25.9272 26.146L26.6139 25.463L26.2168 24.8601C26.1551 24.769 26.1581 24.6552 26.2089 24.5641C26.2755 24.4463 26.3352 24.3295 26.386 24.2098C26.4347 24.092 26.4775 23.9643 26.5144 23.8306C26.5462 23.7158 26.6427 23.6386 26.7532 23.6257L27.4398 23.4842V22.519L26.7323 22.3725C26.6248 22.3508 26.5442 22.2716 26.5173 22.1726C26.4795 22.0389 26.4367 21.9142 26.389 21.7934C26.3382 21.6737 26.2795 21.5559 26.2118 21.4361C26.1551 21.3401 26.1631 21.2223 26.2248 21.1371L26.6159 20.5422L25.9292 19.8592L25.3232 20.2542C25.2317 20.3155 25.1172 20.3126 25.0257 20.2621C24.9073 20.1957 24.7898 20.1364 24.6694 20.0859C24.551 20.0374 24.4226 19.9948 24.2883 19.9582C24.1729 19.9265 24.0953 19.8305 24.0823 19.7206V19.7236ZM23.4544 20.6174C24.1172 20.6174 24.7172 20.8837 25.1491 21.3163C25.5839 21.7489 25.8516 22.3428 25.8516 23.002C25.8516 23.6613 25.5839 24.2582 25.1491 24.6878C24.7142 25.1204 24.1171 25.3867 23.4544 25.3867C22.7917 25.3867 22.1916 25.1204 21.7597 24.6878C21.3249 24.2552 21.0572 23.6613 21.0572 23.002C21.0572 22.3428 21.3249 21.7459 21.7597 21.3163C22.1946 20.8837 22.7917 20.6174 23.4544 20.6174ZM24.75 21.7142C25.0824 22.0448 25.2864 22.4982 25.2864 23.003C25.2864 23.5069 25.0824 23.9632 24.75 24.2919C24.4177 24.6225 23.9589 24.8254 23.4544 24.8254C22.9499 24.8254 22.4891 24.6205 22.1588 24.2919C21.8294 23.9642 21.6224 23.5079 21.6224 23.003C21.6224 22.4992 21.8264 22.0428 22.1588 21.7142C22.4911 21.3836 22.9499 21.1807 23.4544 21.1807C23.9589 21.1807 24.4197 21.3836 24.75 21.7142ZM18.041 9.51577H24.522C24.728 9.51577 24.9191 9.6009 25.0554 9.73453C25.1918 9.87015 25.2754 10.0572 25.2754 10.2651V10.468H27.2467C27.4557 10.468 27.6437 10.5532 27.7801 10.6868C27.9164 10.8204 28 11.0095 28 11.2174V16.0935C28 16.3014 27.9144 16.4885 27.7801 16.6241C27.6437 16.7597 27.4557 16.8429 27.2467 16.8429H25.2754V19.6147L25.7391 19.3108C25.8167 19.2623 25.9053 19.2415 25.9889 19.2494C26.0744 19.2574 26.158 19.295 26.2217 19.3583L27.1123 20.2443C27.177 20.3086 27.2138 20.3908 27.2218 20.4759C27.2298 20.5482 27.2168 20.6204 27.182 20.6897C27.177 20.7026 27.1691 20.7135 27.1601 20.7273L26.777 21.3084C26.8198 21.3936 26.8626 21.4846 26.9004 21.5777C26.9382 21.6707 26.973 21.7618 27.0019 21.8548L27.6855 21.9964C27.7771 22.0152 27.8517 22.0627 27.9084 22.13C27.9652 22.1964 27.997 22.2825 27.997 22.3726V23.6267C27.997 23.7178 27.9652 23.8029 27.9084 23.8693C27.8547 23.9356 27.7771 23.9841 27.6885 24.0029L27.0049 24.1444C26.975 24.2375 26.9402 24.3286 26.9034 24.4216C26.8655 24.5147 26.8228 24.6028 26.78 24.6909L27.1631 25.2719C27.2138 25.3492 27.2327 25.4373 27.2248 25.5224C27.2168 25.6075 27.179 25.6907 27.1153 25.754L26.2247 26.64C26.166 26.6984 26.0884 26.736 26.0078 26.7469H25.9918C25.9192 26.7548 25.8465 26.7419 25.7769 26.7073C25.764 26.7023 25.753 26.6944 25.7391 26.6855L25.1549 26.3044C25.0694 26.347 24.9778 26.3895 24.8843 26.4272C24.7907 26.4648 24.6992 26.4994 24.6056 26.5281L24.4633 27.2082C24.4444 27.2992 24.3966 27.3735 24.329 27.4299C24.2623 27.4863 24.1757 27.518 24.0852 27.518H22.8244C22.7328 27.518 22.6472 27.4863 22.5806 27.4299C22.5139 27.3765 22.4651 27.2992 22.4462 27.2082L22.3039 26.5281C22.2104 26.4984 22.1188 26.4638 22.0253 26.4272C21.9317 26.3895 21.8432 26.347 21.7546 26.3044L21.1705 26.6855C21.0928 26.734 21.0043 26.7548 20.9207 26.7469C20.8351 26.739 20.7515 26.7013 20.6878 26.638L19.7972 25.752C19.7385 25.6936 19.7007 25.6164 19.6877 25.5363V25.5204C19.6798 25.4482 19.6927 25.3759 19.7275 25.3066C19.7325 25.2937 19.7405 25.2828 19.7494 25.269L20.1326 24.6879C20.1216 24.6691 20.1107 24.6483 20.1027 24.6265H17.4936L17.8229 26.1737H18.5494C18.8708 26.1737 19.1634 26.3044 19.3753 26.5153C19.5873 26.7261 19.7187 27.0171 19.7187 27.3369C19.7187 27.6566 19.5873 27.9476 19.3753 28.1585C19.1634 28.3693 18.8708 28.5 18.5494 28.5H10.7298C10.4084 28.5 10.1158 28.3693 9.9039 28.1585C9.69194 27.9476 9.56057 27.6566 9.56057 27.3369C9.56057 27.0171 9.69192 26.7261 9.9039 26.5153C10.1159 26.3044 10.4084 26.1737 10.7298 26.1737H11.4563L11.7857 24.6265H4.75332C4.54733 24.6265 4.35626 24.5414 4.21992 24.4078C4.08359 24.2741 4 24.0851 4 23.8772V10.2652C4 10.0573 4.08558 9.87024 4.21992 9.73461C4.35625 9.599 4.54432 9.51585 4.75332 9.51585H5.03991L5.0409 5.10878C5.0409 4.9405 5.11056 4.78905 5.22102 4.67917C5.33347 4.56731 5.48372 4.5 5.6529 4.5H16.3524C16.5186 4.5 16.6718 4.56929 16.7843 4.67917C16.8937 4.79103 16.9644 4.94348 16.9644 5.10878V8.04581L17.9565 9.02185C18.0132 9.07827 18.0401 9.14954 18.0401 9.22181V9.5148L18.041 9.51577ZM24.7103 19.5027C24.6755 19.4898 24.6406 19.4789 24.6058 19.468L24.4635 18.788C24.4446 18.6969 24.3968 18.6227 24.3292 18.5663C24.2625 18.5098 24.1759 18.4782 24.0854 18.4782H22.8246C22.733 18.4782 22.6474 18.5098 22.5808 18.5663C22.5141 18.6197 22.4653 18.6969 22.4464 18.788L22.3041 19.468C22.2106 19.4977 22.119 19.5324 22.0255 19.569C21.9319 19.6066 21.8434 19.6492 21.7548 19.6918L21.1707 19.3107C21.1707 19.3107 21.1468 19.2948 21.1328 19.2889C21.0662 19.2542 20.9905 19.2404 20.9179 19.2493C20.8323 19.2572 20.7487 19.2948 20.685 19.3582L19.7944 20.2441C19.7297 20.3085 19.6929 20.3906 19.6849 20.4758C19.677 20.5609 19.6959 20.649 19.7466 20.7242L20.1298 21.3083C20.087 21.3934 20.0442 21.4845 20.0064 21.5775C19.9686 21.6706 19.9337 21.7616 19.9049 21.8547L19.2212 21.9962C19.1297 22.015 19.055 22.0626 18.9983 22.1299C18.9416 22.1962 18.9097 22.2823 18.9097 22.3724V23.6266C18.9097 23.7176 18.9416 23.8028 18.9983 23.8691C19.0521 23.9354 19.1297 23.9839 19.2182 24.0027H19.2292L19.5297 24.0671L4.75321 24.0661C4.70245 24.0661 4.65369 24.0443 4.61887 24.0097C4.58404 23.975 4.56214 23.9295 4.56214 23.876L4.56314 10.2651C4.56314 10.2146 4.58503 10.1661 4.61986 10.1314C4.65469 10.0968 4.70047 10.075 4.7542 10.075H5.04079V21.2993C5.04079 21.4538 5.16717 21.5795 5.32242 21.5795H6.11653V21.9606C6.11653 22.1259 6.18618 22.2783 6.29664 22.3902C6.40909 22.5021 6.56235 22.5714 6.72852 22.5714H17.428C17.5942 22.5714 17.7474 22.5021 17.8599 22.3922C17.9693 22.2803 18.04 22.1279 18.04 21.9596L18.038 10.0779H24.5191C24.5698 10.0779 24.6186 10.0997 24.6534 10.1344C24.6883 10.169 24.7102 10.2145 24.7102 10.268V10.4709H19.7685C19.5625 10.4709 19.3715 10.556 19.2351 10.6897C19.0988 10.8253 19.0152 11.0124 19.0152 11.2203V16.0964C19.0152 16.3043 19.1008 16.4914 19.2351 16.627C19.3715 16.7626 19.5595 16.8458 19.7685 16.8458H20.487V18.0198C20.487 18.0702 20.4999 18.1207 20.5298 18.1663C20.6104 18.2969 20.7845 18.3395 20.9189 18.2573L23.2066 16.8458H24.7133V19.5056L24.7103 19.5027ZM19.7687 16.2806H20.7688C20.924 16.2806 21.0504 16.4063 21.0504 16.5607V17.51L22.9541 16.334C23.0028 16.2994 23.0615 16.2776 23.1232 16.2776H27.2451C27.2958 16.2776 27.3446 16.2558 27.3794 16.2212C27.4142 16.1865 27.4361 16.141 27.4361 16.0876V11.2114C27.4361 11.1609 27.4142 11.1124 27.3794 11.0778C27.3446 11.0431 27.2988 11.0214 27.2451 11.0214H19.7638C19.7131 11.0214 19.6643 11.0431 19.6295 11.0778C19.5947 11.1124 19.5728 11.158 19.5728 11.2114V16.0876C19.5728 16.138 19.5947 16.1865 19.6295 16.2212C19.6643 16.2558 19.7101 16.2776 19.7638 16.2776L19.7687 16.2806ZM24.8856 13.9761L25.7513 14.4186V12.8952L24.8856 13.3376V13.9781V13.9761ZM24.8856 12.7061V12.4101C24.8856 12.2794 24.8318 12.1616 24.7463 12.0765C24.6607 11.9914 24.5423 11.9379 24.4109 11.9379H21.1768C21.0455 11.9379 20.9271 11.9914 20.8415 12.0765C20.7559 12.1616 20.7022 12.2794 20.7022 12.4101V14.9016C20.7022 15.0323 20.7559 15.1501 20.8415 15.2352C20.9271 15.3204 21.0455 15.3738 21.1768 15.3738H24.4109C24.5423 15.3738 24.6607 15.3204 24.7463 15.2352C24.8318 15.1501 24.8856 15.0303 24.8856 14.9016V14.6057L25.9075 15.1253C26.0469 15.1946 26.216 15.1412 26.2857 15.0026C26.3076 14.963 26.3175 14.9175 26.3175 14.8749V12.4338C26.3175 12.2794 26.1912 12.1537 26.0359 12.1537C25.9792 12.1537 25.9284 12.1695 25.8827 12.1963L24.8856 12.7061ZM24.3193 12.5012H21.2654V14.8136H24.3193V12.5012ZM8.02325 20.8341H8.71484C8.87008 20.8341 8.99647 20.7084 8.99647 20.5539C8.99647 20.3995 8.87009 20.2738 8.71484 20.2738H8.02325C7.86801 20.2738 7.74162 20.3995 7.74162 20.5539C7.74162 20.7084 7.868 20.8341 8.02325 20.8341ZM9.50895 20.8341H16.1355C16.2907 20.8341 16.4171 20.7084 16.4171 20.5539C16.4171 20.3995 16.2907 20.2738 16.1355 20.2738H9.50895C9.35371 20.2738 9.22732 20.3995 9.22732 20.5539C9.22732 20.7084 9.3537 20.8341 9.50895 20.8341ZM8.02325 18.8256H8.71484C8.87008 18.8256 8.99647 18.6999 8.99647 18.5455C8.99647 18.391 8.87009 18.2653 8.71484 18.2653H8.02325C7.86801 18.2653 7.74162 18.391 7.74162 18.5455C7.74162 18.6999 7.868 18.8256 8.02325 18.8256ZM9.50895 18.8256H16.1355C16.2907 18.8256 16.4171 18.6999 16.4171 18.5455C16.4171 18.391 16.2907 18.2653 16.1355 18.2653H9.50895C9.35371 18.2653 9.22732 18.391 9.22732 18.5455C9.22732 18.6999 9.3537 18.8256 9.50895 18.8256ZM8.02325 16.8171H8.71484C8.87008 16.8171 8.99647 16.6914 8.99647 16.537C8.99647 16.3825 8.87009 16.2568 8.71484 16.2568H8.02325C7.86801 16.2568 7.74162 16.3825 7.74162 16.537C7.74162 16.6914 7.868 16.8171 8.02325 16.8171ZM9.50895 16.8171H16.1355C16.2907 16.8171 16.4171 16.6914 16.4171 16.537C16.4171 16.3825 16.2907 16.2568 16.1355 16.2568H9.50895C9.35371 16.2568 9.22732 16.3825 9.22732 16.537C9.22732 16.6914 9.3537 16.8171 9.50895 16.8171ZM8.02325 14.8086H8.71484C8.87008 14.8086 8.99647 14.6829 8.99647 14.5285C8.99647 14.3741 8.87009 14.2483 8.71484 14.2483H8.02325C7.86801 14.2483 7.74162 14.3741 7.74162 14.5285C7.74162 14.6829 7.868 14.8086 8.02325 14.8086ZM9.50895 14.8086H16.1355C16.2907 14.8086 16.4171 14.6829 16.4171 14.5285C16.4171 14.3741 16.2907 14.2483 16.1355 14.2483H9.50895C9.35371 14.2483 9.22732 14.3741 9.22732 14.5285C9.22732 14.6829 9.3537 14.8086 9.50895 14.8086ZM17.4757 9.50576H14.2496C14.0943 9.50576 13.968 9.38004 13.968 9.22561V6.05696L6.72747 6.05498C6.71453 6.05498 6.70358 6.05993 6.69562 6.06785C6.69562 6.06785 6.68269 6.08963 6.68269 6.1025V21.9683C6.68269 21.9812 6.68766 21.9921 6.69562 22C6.69562 22 6.71453 22.0129 6.72747 22.0129H17.427C17.4399 22.0129 17.4508 22.0079 17.4588 22C17.4588 22 17.4717 21.9782 17.4717 21.9653V9.50157L17.4757 9.50576ZM14.5341 6.44912V8.94364H17.0707L14.5341 6.44912ZM6.11645 21.0243L6.11545 6.0989C6.11545 5.93062 6.18511 5.77917 6.29557 5.66929C6.40802 5.55744 6.55827 5.49012 6.72745 5.49012H14.2494C14.3271 5.49012 14.3997 5.5218 14.4505 5.57327L16.3969 7.48871V5.10902C16.3969 5.09616 16.3919 5.08527 16.384 5.07735C16.384 5.07735 16.3651 5.06448 16.3521 5.06448L5.65161 5.06349C5.63867 5.06349 5.62772 5.06844 5.61976 5.07636C5.61976 5.07636 5.60683 5.09814 5.60683 5.111V21.0255H6.11633L6.11645 21.0243ZM10.3157 8.54077C9.90774 8.54077 9.53855 8.70608 9.27285 8.97038C9.00516 9.23666 8.84097 9.60292 8.84097 10.0078C8.84097 10.4137 9.00715 10.7809 9.27285 11.0452C9.54054 11.3115 9.90873 11.4748 10.3157 11.4748C10.7238 11.4748 11.0929 11.3095 11.3586 11.0452C11.6263 10.7789 11.7905 10.4127 11.7905 10.0078C11.7905 9.60193 11.6243 9.23468 11.3586 8.97038C11.0909 8.70409 10.7228 8.54077 10.3157 8.54077ZM10.9596 9.36732C10.7964 9.20498 10.5685 9.10301 10.3157 9.10301C10.064 9.10301 9.8361 9.20398 9.67191 9.36732C9.50872 9.52966 9.40621 9.75636 9.40621 10.0078C9.40621 10.2582 9.50771 10.4849 9.67191 10.6482C9.83511 10.8106 10.063 10.9125 10.3157 10.9125C10.5675 10.9125 10.7954 10.8116 10.9596 10.6482C11.1228 10.4859 11.2253 10.2592 11.2253 10.0078C11.2253 9.75733 11.1238 9.53064 10.9596 9.36732ZM10.6401 7.83596L10.5625 7.46276H10.0689L9.98536 7.85476C9.96346 7.96167 9.88385 8.04185 9.78434 8.06858C9.69876 8.09233 9.61517 8.11906 9.54253 8.15173C9.4679 8.1834 9.39227 8.22102 9.31465 8.26358C9.21812 8.32001 9.0997 8.31209 9.01412 8.25072L8.68175 8.03492L8.33345 8.38138L8.55636 8.71794C8.61806 8.80901 8.61507 8.92285 8.56432 9.01392C8.52153 9.08817 8.48372 9.16637 8.45187 9.23764C8.42202 9.31188 8.39316 9.39206 8.36828 9.47818C8.33644 9.59301 8.23991 9.67022 8.12946 9.68309L7.75429 9.7603V10.2513L8.14836 10.3344C8.25583 10.3562 8.33643 10.4354 8.3633 10.5344C8.38719 10.6175 8.41405 10.6967 8.44689 10.7749L8.45187 10.7878C8.48172 10.8601 8.51854 10.9294 8.55934 11.0016C8.61606 11.0976 8.6081 11.2154 8.5464 11.3006L8.32947 11.6312L8.67776 11.9777L9.0161 11.7559C9.10765 11.6945 9.22208 11.6975 9.31364 11.748C9.38828 11.7906 9.46391 11.8282 9.54153 11.8599L9.55446 11.8648C9.62412 11.8945 9.70174 11.9183 9.78234 11.939C9.89778 11.9707 9.9754 12.0667 9.98833 12.1766L10.066 12.5498H10.5595L10.6431 12.1578C10.665 12.0509 10.7446 11.9707 10.8441 11.944C10.9297 11.9202 11.0103 11.8935 11.0859 11.8609C11.1606 11.8292 11.2362 11.7916 11.3138 11.749C11.4104 11.6926 11.5288 11.7005 11.6144 11.7619L11.9467 11.9777L12.295 11.6312L12.0721 11.2946C12.0104 11.2036 12.0134 11.0897 12.0642 10.9987C12.1069 10.9244 12.1448 10.8492 12.1766 10.772L12.1816 10.7591C12.2114 10.6898 12.2353 10.6126 12.2562 10.5324C12.2881 10.4176 12.3846 10.3404 12.495 10.3275L12.8702 10.2503V9.75932L12.4761 9.67617C12.3687 9.65439 12.2881 9.5752 12.2612 9.47621C12.2373 9.39108 12.2104 9.3109 12.1776 9.23567C12.1458 9.16143 12.1079 9.0862 12.0652 9.00898C12.0084 8.91296 12.0164 8.79517 12.0781 8.71004L12.295 8.37941L11.9467 8.03295L11.6084 8.25468C11.5168 8.31606 11.4024 8.31309 11.3109 8.2626C11.2362 8.22004 11.1576 8.18242 11.086 8.15074C11.0113 8.11907 10.9307 8.09234 10.8441 8.06759C10.7287 8.03592 10.6511 7.9399 10.6382 7.83002L10.6401 7.83596ZM11.08 7.18264C11.0641 7.10246 11.0183 7.03317 10.9566 6.98268C10.8949 6.9322 10.8173 6.9025 10.7337 6.9025H9.8948C9.81121 6.9025 9.73359 6.9322 9.67189 6.98268C9.6102 7.03317 9.56741 7.10246 9.5485 7.18264L9.46491 7.58255C9.41913 7.59839 9.37137 7.61719 9.32559 7.636C9.27683 7.65481 9.23205 7.6756 9.18926 7.69738L8.84295 7.47069C8.83002 7.46277 8.8131 7.45485 8.80016 7.44693C8.74145 7.42021 8.67677 7.40932 8.61507 7.41526H8.59616C8.52352 7.42615 8.45685 7.46079 8.40311 7.51425L7.81003 8.10421C7.81003 8.10421 7.78814 8.12599 7.78018 8.13886C7.74037 8.19231 7.71549 8.25368 7.70753 8.31803V8.33386C7.70256 8.40613 7.72047 8.48037 7.76425 8.54768L7.99214 8.89217C7.97024 8.9377 7.94934 8.98324 7.93044 9.02778C7.91153 9.07332 7.89262 9.12083 7.8767 9.16637L7.47468 9.24952C7.39109 9.26536 7.32143 9.31089 7.27367 9.37226C7.22292 9.43364 7.19306 9.51085 7.19306 9.594V10.4285C7.19306 10.5116 7.22292 10.5888 7.27367 10.6502C7.32442 10.7116 7.39408 10.7542 7.47468 10.773L7.8767 10.8561C7.89262 10.9046 7.91153 10.9492 7.93044 10.9977C7.93044 11.0026 7.93541 11.0086 7.93541 11.0105C7.95432 11.0531 7.97024 11.0937 7.98915 11.1303L7.76127 11.4748C7.71549 11.5441 7.69658 11.6243 7.70455 11.7015C7.71251 11.7817 7.74734 11.8559 7.80605 11.9123L8.39913 12.5023C8.45784 12.5607 8.53347 12.5934 8.61109 12.6033C8.68871 12.6112 8.76931 12.5924 8.83897 12.5468L9.18528 12.3231C9.23105 12.3449 9.27683 12.3657 9.32161 12.3845C9.32659 12.3845 9.33256 12.3894 9.33753 12.3894C9.38032 12.4053 9.42112 12.4211 9.46391 12.438L9.5475 12.8379C9.56342 12.921 9.6092 12.9903 9.6709 13.0378C9.73259 13.0883 9.81021 13.118 9.8938 13.118H10.7327C10.8163 13.118 10.8939 13.0883 10.9556 13.0378C11.0173 12.9873 11.0601 12.918 11.079 12.8379L11.1626 12.438C11.2084 12.4221 11.2561 12.4033 11.3019 12.3845C11.3507 12.3657 11.3954 12.3449 11.4382 12.3231L11.7845 12.5498C11.7975 12.5577 11.8144 12.5656 11.8273 12.5736C11.886 12.6003 11.9507 12.6112 12.0124 12.6052C12.0204 12.6052 12.0254 12.6052 12.0343 12.6023C12.104 12.5914 12.1706 12.5567 12.2244 12.5033L12.8175 11.9133C12.8762 11.8549 12.909 11.7797 12.919 11.7025C12.9269 11.6253 12.908 11.5451 12.8622 11.4758L12.6373 11.1313C12.6592 11.0858 12.6801 11.0402 12.699 10.9957C12.699 10.9907 12.702 10.9848 12.704 10.9798C12.7199 10.9373 12.7359 10.8967 12.7528 10.8541L13.1548 10.771C13.2384 10.7551 13.308 10.7096 13.3558 10.6482C13.4066 10.5869 13.4364 10.5097 13.4364 10.4265V9.59202C13.4364 9.50887 13.4066 9.43166 13.3558 9.37029C13.3051 9.30891 13.2354 9.26635 13.1548 9.24754L12.7528 9.16439C12.7369 9.11885 12.718 9.07134 12.699 9.0258C12.6801 8.9773 12.6592 8.93275 12.6373 8.89019L12.8652 8.5457C12.8732 8.53283 12.8811 8.51601 12.8891 8.50314C12.916 8.44473 12.9269 8.38039 12.921 8.31902V8.30021C12.91 8.22795 12.8752 8.16163 12.8214 8.10817L12.2284 7.51821C12.2284 7.51821 12.2045 7.49643 12.1905 7.48653C12.1398 7.44694 12.0781 7.42516 12.0134 7.41724C11.9358 7.40932 11.8552 7.42813 11.7855 7.47366L11.4392 7.69738C11.3964 7.6756 11.3507 7.65481 11.3029 7.636C11.2571 7.61719 11.2094 7.59839 11.1606 7.58255L11.077 7.18264L11.08 7.18264ZM17.2426 26.1834L16.9133 24.6362H12.3627L12.0333 26.1834H17.2437H17.2426ZM10.7267 27.9464H18.5462C18.7124 27.9464 18.8626 27.8801 18.9721 27.7702C19.0816 27.6613 19.1492 27.5118 19.1492 27.3465C19.1492 27.1812 19.0826 27.0317 18.9721 26.9228C18.8626 26.8139 18.7124 26.7466 18.5462 26.7466H10.7267C10.5605 26.7466 10.4102 26.8129 10.3007 26.9228C10.1913 27.0317 10.1236 27.1812 10.1236 27.3465C10.1236 27.5118 10.1903 27.6613 10.3007 27.7702C10.4102 27.8791 10.5605 27.9464 10.7267 27.9464Z" fill="white"/>
</g>
<defs>
<clipPath id="clip0_927_2889">
<rect width="24" height="24" fill="white" transform="translate(4 4.5)"/>
</clipPath>
</defs>
</svg>
